<svg width="44" height="54" viewBox="0 0 44 54" fill="none" xmlns="http://www.w3.org/2000/svg">
<path fill-rule="evenodd" clip-rule="evenodd" d="M16.3338 43.2634C6.9295 40.7639 0 32.1912 0 22C0 9.84974 9.84974 0 22 0C34.1503 0 44 9.84974 44 22C44 32.1912 37.0705 40.7639 27.6662 43.2634L22.9037 53.3175C22.5425 54.08 21.4575 54.08 21.0963 53.3175L16.3338 43.2634Z" fill="#868B94"/>
<circle cx="22" cy="22.0127" r="19" stroke="#EAEBEE" stroke-width="2"/>
<circle cx="22" cy="22" r="18" fill="#2B2E33"/>
<g clip-path="url(#clip0_1395_85344)">
<path d="M28.9573 29.4355H13.1159C12.7253 29.4355 12.4087 29.7522 12.4087 30.1428C12.4087 30.5333 12.7253 30.85 13.1159 30.85H28.9573C29.3479 30.85 29.6645 30.5333 29.6645 30.1428C29.6645 29.7522 29.3479 29.4355 28.9573 29.4355Z" fill="white"/>
<path d="M30.9997 16.9882H29.6645V16.1112C29.6645 15.5794 29.2345 15.1494 28.7027 15.1494H13.5119C12.9801 15.1494 12.5501 15.5794 12.5501 16.1112V19.7491C12.5501 21.0051 12.8302 22.2469 13.3733 23.3785C14.7707 26.3006 17.724 28.162 20.9659 28.162H21.2487C24.2699 28.162 27.0365 26.5439 28.533 23.9584L32.6546 21.5199C33.4268 20.9146 33.7946 19.9075 33.5513 18.9146C33.2713 17.7632 32.185 16.9853 30.9997 16.9853V16.9882ZM29.8823 19.6274C29.9474 19.2512 30.3858 18.6883 30.9233 18.6883C31.5004 18.6883 31.97 19.155 31.97 19.7349V19.7406C31.97 20.0631 31.8229 20.3658 31.5683 20.5638L29.4835 21.4718L29.8823 19.6274Z" fill="white"/>
</g>
<defs>
<clipPath id="clip0_1395_85344">
<rect width="21.2162" height="15.7" fill="white" transform="translate(12.4087 15.1494)"/>
</clipPath>
</defs>
</svg>
