<svg width="24" height="25" viewBox="0 0 24 25" fill="none" xmlns="http://www.w3.org/2000/svg">
<circle cx="12" cy="12.3638" r="10" fill="white"/>
<path fill-rule="evenodd" clip-rule="evenodd" d="M7.26766 7.6316C7.58008 7.31918 8.08661 7.31918 8.39903 7.6316L16.7324 15.9649C17.0448 16.2774 17.0448 16.7839 16.7324 17.0963C16.4199 17.4087 15.9134 17.4087 15.601 17.0963L7.26766 8.76297C6.95524 8.45055 6.95524 7.94402 7.26766 7.6316Z" fill="#1E1E1E"/>
<path fill-rule="evenodd" clip-rule="evenodd" d="M16.7324 7.6316C16.4199 7.31918 15.9134 7.31918 15.601 7.6316L7.26765 15.9649C6.95523 16.2774 6.95523 16.7839 7.26765 17.0963C7.58007 17.4087 8.0866 17.4087 8.39902 17.0963L16.7324 8.76297C17.0448 8.45055 17.0448 7.94402 16.7324 7.6316Z" fill="#1E1E1E"/>
</svg>
