<svg width="16" height="16" viewBox="0 0 16 16" fill="none" xmlns="http://www.w3.org/2000/svg">
<circle cx="8.00016" cy="8.00016" r="6.66667" fill="#F7B8AA"/>
<path fill-rule="evenodd" clip-rule="evenodd" d="M4.84504 4.8449C5.05332 4.63662 5.39101 4.63662 5.59929 4.8449L11.1548 10.4005C11.3631 10.6087 11.3631 10.9464 11.1548 11.1547C10.9466 11.363 10.6089 11.363 10.4006 11.1547L4.84504 5.59914C4.63676 5.39086 4.63676 5.05318 4.84504 4.8449Z" fill="#1E1E1E"/>
<path fill-rule="evenodd" clip-rule="evenodd" d="M11.1545 4.8449C10.9462 4.63662 10.6085 4.63662 10.4002 4.8449L4.84466 10.4005C4.63639 10.6087 4.63639 10.9464 4.84466 11.1547C5.05294 11.363 5.39063 11.363 5.59891 11.1547L11.1545 5.59914C11.3627 5.39086 11.3627 5.05318 11.1545 4.8449Z" fill="#1E1E1E"/>
</svg>
