<svg width="24" height="24" viewBox="0 0 24 24" fill="none" xmlns="http://www.w3.org/2000/svg">
<path fill-rule="evenodd" clip-rule="evenodd" d="M17.8182 19.4631C17.8182 19.7763 18.1694 19.955 18.4105 19.755C20.632 17.9122 22.0468 15.1308 22.0468 12.019C22.0468 8.69774 20.4351 5.7529 17.9512 3.9239L18.1538 4.12644L9.77211 12.5081C9.95001 12.8153 10.0518 13.1721 10.0518 13.5526C10.0518 14.7056 9.11716 15.6403 7.9642 15.6403C7.58364 15.6403 7.22687 15.5384 6.91964 15.3605L4.10753 18.1727L3.9073 17.9724C4.44483 18.7019 5.07863 19.3561 5.78996 19.9163C6.15488 20.2037 6.6629 19.9276 6.6629 19.4631V19.4631C6.6629 18.8428 7.16154 18.3414 7.77843 18.3414C8.39531 18.3414 8.89395 18.8428 8.89395 19.4631V20.6634C8.89395 21.2075 9.23398 21.695 9.76452 21.8156V21.8156C10.4824 21.9788 11.125 21.395 11.125 20.6589V19.4631C11.125 18.8428 11.6236 18.3414 12.2405 18.3414C12.8574 18.3414 13.3561 18.8428 13.3561 19.4631V20.534C13.3561 21.2964 14.0398 21.8879 14.7727 21.678V21.678C15.2746 21.5342 15.5871 21.0614 15.5871 20.5394V19.4631C15.5871 18.8428 16.0857 18.3414 16.7026 18.3414C17.3195 18.3414 17.8182 18.8428 17.8182 19.4631V19.4631ZM14.1271 12.6249C13.8596 12.3574 13.8596 11.9237 14.1271 11.6562C14.3946 11.3887 14.8283 11.3887 15.0958 11.6562L15.7746 12.335L16.4388 11.6708C16.7063 11.4033 17.14 11.4033 17.4075 11.6708C17.675 11.9383 17.675 12.372 17.4075 12.6395L16.7433 13.3037L17.4073 13.9678C17.6748 14.2353 17.6748 14.669 17.4073 14.9365C17.1398 15.204 16.7061 15.204 16.4386 14.9365L15.7746 14.2724L15.0959 14.9511C14.8284 15.2186 14.3947 15.2186 14.1272 14.9511C13.8597 14.6836 13.8597 14.2498 14.1272 13.9823L14.8059 13.3037L14.1271 12.6249Z" fill="url(#paint0_linear_4840_26317)"/>
<path d="M12.0004 1.97266C13.9333 1.97266 15.7386 2.51849 17.2708 3.46441L8.99713 11.738C8.69254 11.5643 8.33996 11.465 7.9642 11.465C6.81123 11.465 5.87656 12.3997 5.87656 13.5526C5.87656 13.9284 5.97584 14.281 6.1496 14.5856L3.44586 17.2893C2.49993 15.7572 1.9541 13.9518 1.9541 12.019C1.9541 6.47056 6.452 1.97266 12.0004 1.97266Z" fill="url(#paint1_linear_4840_26317)"/>
<defs>
<linearGradient id="paint0_linear_4840_26317" x1="6.45383" y1="7.29071" x2="18.0447" y2="21.6089" gradientUnits="userSpaceOnUse">
<stop stop-color="#FBD5CD"/>
<stop offset="1" stop-color="#CDCDFA"/>
</linearGradient>
<linearGradient id="paint1_linear_4840_26317" x1="6.45383" y1="7.29071" x2="18.0447" y2="21.6089" gradientUnits="userSpaceOnUse">
<stop stop-color="#FBD5CD"/>
<stop offset="1" stop-color="#CDCDFA"/>
</linearGradient>
</defs>
</svg>
