<svg width="24" height="25" viewBox="0 0 24 25" fill="none" xmlns="http://www.w3.org/2000/svg">
<path d="M12.5303 20.2277L20.1271 12.631C21.9937 10.7644 22.2691 7.69353 20.5027 5.73188C20.0602 5.2391 19.522 4.84163 18.9208 4.56374C18.3197 4.28584 17.6682 4.13333 17.0062 4.11553C16.3441 4.09773 15.6854 4.215 15.0702 4.46019C14.455 4.70538 13.8962 5.07334 13.4279 5.54163L12 6.96948L10.7672 5.73667C8.9006 3.87007 5.82976 3.59468 3.8681 5.36112C3.37532 5.80358 2.97786 6.34181 2.69996 6.94296C2.42206 7.54411 2.26956 8.19558 2.25175 8.85761C2.23395 9.51965 2.35122 10.1784 2.59641 10.7936C2.8416 11.4088 3.20956 11.9676 3.67785 12.4359L11.4697 20.2277C11.6103 20.3684 11.8011 20.4474 12 20.4474C12.1989 20.4474 12.3897 20.3684 12.5303 20.2277V20.2277Z" stroke="white" stroke-width="1.6" stroke-linecap="round" stroke-linejoin="round"/>
</svg>
