<svg width="24" height="25" viewBox="0 0 24 25" fill="none" xmlns="http://www.w3.org/2000/svg">
<path d="M21.0588 5.22977C20.5495 4.65894 19.9284 4.19886 19.2339 3.87808C18.5394 3.5573 17.7864 3.38267 17.0217 3.36503C16.2591 3.349 15.5012 3.48643 14.7928 3.76915C14.0844 4.05187 13.4401 4.47411 12.8981 5.01078L12.0002 5.90873L11.2971 5.20634C9.11005 3.01713 5.55048 2.83329 3.36787 4.8035C2.79897 5.31381 2.34008 5.93473 2.01922 6.62834C1.69836 7.32195 1.52228 8.07369 1.50171 8.83765C1.48115 9.6016 1.61654 10.3617 1.89962 11.0716C2.1827 11.7815 2.60752 12.4262 3.14814 12.9663L10.9396 20.7578C11.2211 21.0388 11.6025 21.1966 12.0002 21.1966C12.3979 21.1966 12.7793 21.0388 13.0607 20.7578L20.6574 13.1612C22.8459 10.972 23.0261 7.41385 21.0588 5.22977Z" fill="white"/>
</svg>
