<svg width="24" height="24" viewBox="0 0 24 24" fill="none" xmlns="http://www.w3.org/2000/svg">
<path fill-rule="evenodd" clip-rule="evenodd" d="M3.2002 4.99922C3.2002 4.00511 4.00608 3.19922 5.0002 3.19922H11.0002C11.442 3.19922 11.8002 3.55739 11.8002 3.99922C11.8002 4.44105 11.442 4.79922 11.0002 4.79922H5.0002C4.88974 4.79922 4.8002 4.88876 4.8002 4.99922V18.9992C4.8002 19.1097 4.88974 19.1992 5.0002 19.1992H19.0002C19.1107 19.1992 19.2002 19.1097 19.2002 18.9992V12.9992C19.2002 12.5574 19.5584 12.1992 20.0002 12.1992C20.442 12.1992 20.8002 12.5574 20.8002 12.9992V18.9992C20.8002 19.9933 19.9943 20.7992 19.0002 20.7992H5.0002C4.00608 20.7992 3.2002 19.9933 3.2002 18.9992V4.99922ZM19.2002 5.93059V8.99922C19.2002 9.44105 19.5584 9.79922 20.0002 9.79922C20.442 9.79922 20.8002 9.44105 20.8002 8.99922V3.99922C20.8002 3.55739 20.442 3.19922 20.0002 3.19922H15.0002C14.5584 3.19922 14.2002 3.55739 14.2002 3.99922C14.2002 4.44105 14.5584 4.79922 15.0002 4.79922H18.0688L8.43451 14.4335C8.12209 14.746 8.12209 15.2525 8.43451 15.5649C8.74693 15.8773 9.25346 15.8773 9.56588 15.5649L19.2002 5.93059Z" fill="white"/>
</svg>
