<svg width="24" height="25" viewBox="0 0 24 25" fill="none" xmlns="http://www.w3.org/2000/svg">
<path d="M12.0001 2.61377C10.0718 2.61377 8.1867 3.1856 6.58332 4.25694C4.97994 5.32828 3.73026 6.85103 2.9923 8.63261C2.25435 10.4142 2.06126 12.3746 2.43747 14.2659C2.81368 16.1572 3.74227 17.8945 5.10584 19.2581C6.4694 20.6216 8.20668 21.5502 10.098 21.9264C11.9893 22.3026 13.9497 22.1095 15.7313 21.3716C17.5129 20.6336 19.0356 19.384 20.107 17.7806C21.1783 16.1772 21.7501 14.2921 21.7501 12.3638C21.7471 9.77883 20.719 7.30061 18.8911 5.47278C17.0633 3.64495 14.5851 2.61676 12.0001 2.61377ZM12 7.11377C12.2225 7.11377 12.44 7.17975 12.625 7.30337C12.8101 7.42698 12.9542 7.60268 13.0394 7.80825C13.1245 8.01382 13.1468 8.24002 13.1034 8.45825C13.06 8.67648 12.9529 8.87693 12.7955 9.03426C12.6382 9.1916 12.4377 9.29874 12.2195 9.34215C12.0013 9.38556 11.7751 9.36328 11.5695 9.27813C11.3639 9.19299 11.1882 9.04879 11.0646 8.86379C10.941 8.67878 10.875 8.46127 10.875 8.23877C10.875 8.09103 10.9041 7.94474 10.9607 7.80825C11.0172 7.67176 11.1001 7.54774 11.2045 7.44327C11.309 7.33881 11.433 7.25594 11.5695 7.1994C11.706 7.14287 11.8523 7.11377 12 7.11377H12ZM12.7501 17.6138H12.0001C11.9016 17.6138 11.8041 17.5945 11.713 17.5568C11.622 17.5191 11.5393 17.4639 11.4697 17.3942C11.4 17.3246 11.3448 17.2419 11.3071 17.1508C11.2694 17.0598 11.2501 16.9623 11.2501 16.8638V12.3638C11.0512 12.3638 10.8604 12.2848 10.7198 12.1441C10.5791 12.0034 10.5001 11.8127 10.5001 11.6138C10.5001 11.4149 10.5791 11.2241 10.7198 11.0834C10.8604 10.9428 11.0512 10.8638 11.2501 10.8638H12.0001C12.0986 10.8637 12.1962 10.8831 12.2872 10.9207C12.3782 10.9584 12.4609 11.0137 12.5306 11.0833C12.6002 11.153 12.6555 11.2357 12.6932 11.3267C12.7308 11.4177 12.7502 11.5153 12.7501 11.6138V16.1138C12.949 16.1138 13.1398 16.1928 13.2805 16.3334C13.4211 16.4741 13.5001 16.6649 13.5001 16.8638C13.5001 17.0627 13.4211 17.2534 13.2805 17.3941C13.1398 17.5348 12.949 17.6138 12.7501 17.6138Z" fill="white"/>
</svg>
