<svg width="24" height="25" viewBox="0 0 24 25" fill="none" xmlns="http://www.w3.org/2000/svg">
<g id="Icon/InfoCircle">
<g id="Info Circle">
<path id="Info Circle_2" fill-rule="evenodd" clip-rule="evenodd" d="M2.0001 12.3633C2.0001 6.84428 6.4801 2.36328 12.0001 2.36328C17.5301 2.36328 22.0001 6.84428 22.0001 12.3633C22.0001 17.8843 17.5301 22.3633 12.0001 22.3633C6.4801 22.3633 2.0001 17.8843 2.0001 12.3633ZM11.1201 8.57328C11.1201 8.09428 11.5201 7.69328 12.0001 7.69328C12.4801 7.69328 12.8701 8.09428 12.8701 8.57328V12.9933C12.8701 13.4743 12.4801 13.8633 12.0001 13.8633C11.5201 13.8633 11.1201 13.4743 11.1201 12.9933V8.57328ZM12.0101 17.0443C11.5201 17.0443 11.1301 16.6443 11.1301 16.1643C11.1301 15.6843 11.5201 15.2943 12.0001 15.2943C12.4901 15.2943 12.8801 15.6843 12.8801 16.1643C12.8801 16.6443 12.4901 17.0443 12.0101 17.0443Z" fill="white"/>
</g>
</g>
</svg>
