<svg width="24" height="24" viewBox="0 0 24 24" fill="none" xmlns="http://www.w3.org/2000/svg">
<path d="M14.75 12C14.75 13.5188 13.5188 14.75 12 14.75C10.4812 14.75 9.25 13.5188 9.25 12C9.25 10.4812 10.4812 9.25 12 9.25C13.5188 9.25 14.75 10.4812 14.75 12Z" fill="white"/>
<path fill-rule="evenodd" clip-rule="evenodd" d="M11.0831 2.87901C6.75267 3.30923 3.3089 6.75316 2.87894 11.0837H1.91699C1.41073 11.0837 1.00033 11.4941 1.00033 12.0004C1.00033 12.5066 1.41073 12.917 1.91699 12.917H2.87894C3.30892 17.2477 6.75295 20.6918 11.0837 21.1218V22.083C11.0837 22.5892 11.4941 22.9996 12.0003 22.9996C12.5066 22.9996 12.917 22.5892 12.917 22.083V21.1218C17.2477 20.6918 20.6918 17.2477 21.1218 12.917H22.0833C22.5896 12.917 23 12.5066 23 12.0004C23 11.4941 22.5896 11.0837 22.0833 11.0837H21.1218C20.6918 6.75279 17.2474 3.30863 12.9165 2.8789V1.91667C12.9165 1.41041 12.5061 1 11.9998 1C11.4935 1 11.0831 1.41041 11.0831 1.91667V2.87901ZM11.0849 4.72362C11.1143 5.20335 11.5127 5.58333 11.9998 5.58333C12.487 5.58333 12.8854 5.20328 12.9147 4.72348C16.2335 5.13626 18.8641 7.76666 19.2772 11.0854C18.797 11.1144 18.4166 11.513 18.4166 12.0004C18.4166 12.4878 18.797 12.8863 19.2772 12.9153C18.8641 16.2339 16.2338 18.8641 12.9153 19.2772C12.8865 18.7969 12.4878 18.4163 12.0003 18.4163C11.5128 18.4163 11.1142 18.7969 11.0853 19.2772C7.76682 18.8641 5.13656 16.2338 4.72354 12.9153C5.20346 12.8861 5.58366 12.4876 5.58366 12.0004C5.58366 11.5131 5.20346 11.1146 4.72354 11.0854C5.13654 7.76704 7.76657 5.13685 11.0849 4.72362Z" fill="white"/>
</svg>
