<svg width="68" height="68" viewBox="0 0 68 68" fill="none" xmlns="http://www.w3.org/2000/svg">
<g filter="url(#filter0_d_1339_136440)">
<rect x="12" y="12" width="44" height="44" rx="22" fill="#161617" shape-rendering="crispEdges"/>
<path d="M36.75 34C36.75 35.5188 35.5188 36.75 34 36.75C32.4812 36.75 31.25 35.5188 31.25 34C31.25 32.4812 32.4812 31.25 34 31.25C35.5188 31.25 36.75 32.4812 36.75 34Z" fill="white"/>
<path fill-rule="evenodd" clip-rule="evenodd" d="M33.0831 24.879C28.7527 25.3092 25.3089 28.7532 24.8789 33.0837H23.917C23.4107 33.0837 23.0003 33.4941 23.0003 34.0004C23.0003 34.5066 23.4107 34.917 23.917 34.917H24.8789C25.3089 39.2477 28.753 42.6918 33.0837 43.1218V44.083C33.0837 44.5892 33.4941 44.9996 34.0003 44.9996C34.5066 44.9996 34.917 44.5892 34.917 44.083V43.1218C39.2477 42.6918 42.6918 39.2477 43.1218 34.917H44.0833C44.5896 34.917 45 34.5066 45 34.0004C45 33.4941 44.5896 33.0837 44.0833 33.0837H43.1218C42.6918 28.7528 39.2474 25.3086 34.9165 24.8789V23.9167C34.9165 23.4104 34.506 23 33.9998 23C33.4935 23 33.0831 23.4104 33.0831 23.9167V24.879ZM33.0849 26.7236C33.1143 27.2034 33.5127 27.5833 33.9998 27.5833C34.487 27.5833 34.8854 27.2033 34.9147 26.7235C38.2335 27.1363 40.8641 29.7667 41.2772 33.0854C40.797 33.1144 40.4166 33.513 40.4166 34.0004C40.4166 34.4878 40.797 34.8863 41.2772 34.9153C40.8641 38.2339 38.2338 40.8641 34.9153 41.2772C34.8865 40.7969 34.4878 40.4163 34.0003 40.4163C33.5128 40.4163 33.1142 40.7969 33.0853 41.2772C29.7668 40.8641 27.1366 38.2338 26.7235 34.9153C27.2035 34.8861 27.5837 34.4876 27.5837 34.0004C27.5837 33.5131 27.2035 33.1146 26.7235 33.0854C27.1365 29.767 29.7666 27.1369 33.0849 26.7236Z" fill="white"/>
</g>
<defs>
<filter id="filter0_d_1339_136440" x="0" y="0" width="68" height="68" filterUnits="userSpaceOnUse" color-interpolation-filters="sRGB">
<feFlood flood-opacity="0" result="BackgroundImageFix"/>
<feColorMatrix in="SourceAlpha" type="matrix" values="0 0 0 0 0 0 0 0 0 0 0 0 0 0 0 0 0 0 127 0" result="hardAlpha"/>
<feOffset/>
<feGaussianBlur stdDeviation="6"/>
<feComposite in2="hardAlpha" operator="out"/>
<feColorMatrix type="matrix" values="0 0 0 0 0 0 0 0 0 0 0 0 0 0 0 0 0 0 0.08 0"/>
<feBlend mode="normal" in2="BackgroundImageFix" result="effect1_dropShadow_1339_136440"/>
<feBlend mode="normal" in="SourceGraphic" in2="effect1_dropShadow_1339_136440" result="shape"/>
</filter>
</defs>
</svg>
