<svg width="18" height="19" viewBox="0 0 18 19" fill="none" xmlns="http://www.w3.org/2000/svg">
<g clip-path="url(#clip0_5170_44122)">
<path fill-rule="evenodd" clip-rule="evenodd" d="M3 8.15C3 4.415 5.85 2 9 2C12.15 2 15 4.415 15 8.15C15 10.535 13.1625 13.34 9.5025 16.5725C9.2175 16.82 8.79 16.82 8.505 16.5725C4.8375 13.34 3 10.535 3 8.15ZM9.00012 10.0001C10.1047 10.0001 11.0001 9.10469 11.0001 8.00012C11.0001 6.89555 10.1047 6.00012 9.00012 6.00012C7.89555 6.00012 7.00012 6.89555 7.00012 8.00012C7.00012 9.10469 7.89555 10.0001 9.00012 10.0001Z" fill="#ADB1BA"/>
</g>
<defs>
<clipPath id="clip0_5170_44122">
<rect width="18" height="18" fill="white" transform="translate(0 0.5)"/>
</clipPath>
</defs>
</svg>
