<svg width="24" height="24" viewBox="0 0 24 24" fill="none" xmlns="http://www.w3.org/2000/svg">
<path d="M18.3354 13.409L17.4646 14.2798L16.5939 13.409C16.3877 13.2029 15.4277 12.2213 14.4646 10.8921V18.4582C14.4646 19.4829 13.4615 20.2059 12.4892 19.8798L9.48924 18.8798C8.87693 18.6767 8.46462 18.1013 8.46462 17.4582V8.79055C8.46462 7.71978 9.55386 6.99363 10.5415 7.40593L12.9754 8.42132C12.5723 7.55978 12.2892 6.6644 12.2431 5.79978L8.99693 4.7167C8.65232 4.60286 8.28001 4.61516 7.94462 4.75363L3.38462 6.65209C2.82462 6.88593 2.46155 7.43055 2.46155 8.0367V20.7875C2.46155 21.8582 3.55078 22.5844 4.53847 22.1721L7.94462 20.7536C8.28001 20.6152 8.65232 20.5998 8.99693 20.7167L13.9323 22.3629C14.2769 22.4767 14.6492 22.4644 14.9846 22.3259L19.5446 20.4275C20.1046 20.1936 20.4677 19.649 20.4677 19.0429V10.8952C19.5015 12.2244 18.5446 13.2059 18.3385 13.4121L18.3354 13.409Z" fill="#868B94"/>
<path d="M17.4646 0.538574C15.2554 0.538574 13.4646 2.32934 13.4646 4.53857C13.4646 4.76319 13.4892 4.99396 13.5323 5.22781C14.0462 8.11704 17.4646 11.5386 17.4646 11.5386C17.4646 11.5386 19.1108 9.89242 20.2892 7.92011C20.9477 6.81857 21.4646 5.6155 21.4646 4.53857C21.4646 2.32934 19.6739 0.538574 17.4646 0.538574ZM16.2708 6.14165C15.7816 5.7755 15.4646 5.19704 15.4646 4.53857C15.4646 3.43396 16.36 2.53857 17.4646 2.53857C18.5692 2.53857 19.4646 3.43396 19.4646 4.53857C19.4646 5.64319 18.5692 6.53857 17.4646 6.53857C17.0154 6.53857 16.6062 6.39088 16.2708 6.14165Z" fill="#868B94"/>
</svg>
