<svg width="24" height="24" viewBox="0 0 24 24" fill="none" xmlns="http://www.w3.org/2000/svg">
<path d="M20.9752 3.02513C20.7866 2.83668 20.5512 2.70186 20.2932 2.63455C20.0353 2.56725 19.764 2.56987 19.5074 2.64216L2.0391 7.56907C1.74519 7.65196 1.48358 7.82259 1.28924 8.05814C1.0949 8.2937 0.977084 8.58296 0.951545 8.88727C0.926006 9.19158 0.993958 9.49643 1.14632 9.76108C1.29868 10.0257 1.52819 10.2376 1.80418 10.3683L9.11045 13.8292L14.1057 8.83396C14.2463 8.6933 14.4371 8.61428 14.636 8.61428C14.835 8.61428 15.0257 8.6933 15.1664 8.83396C15.3071 8.97462 15.3861 9.1654 15.3861 9.36433C15.3861 9.56325 15.3071 9.75403 15.1664 9.89469L10.1712 14.8899L13.6321 22.1962C13.7519 22.4532 13.9429 22.6706 14.1823 22.8227C14.4218 22.9747 14.6997 23.0551 14.9834 23.0542C15.0263 23.0542 15.0696 23.0524 15.1131 23.0488C15.418 23.025 15.708 22.9078 15.9439 22.7132C16.1798 22.5186 16.35 22.256 16.4313 21.9613L21.3582 4.49299C21.4304 4.23635 21.433 3.96511 21.3657 3.70714C21.2984 3.44917 21.1636 3.21377 20.9752 3.02513Z" fill="#868B94"/>
</svg>
