<svg width="16" height="17" viewBox="0 0 16 17" fill="none" xmlns="http://www.w3.org/2000/svg">
<path d="M3 14.5C3 14.5 2 14.5 2 13.5C2 12.5 3 9.5 8 9.5C13 9.5 14 12.5 14 13.5C14 14.5 13 14.5 13 14.5H3ZM8 8.5C8.79565 8.5 9.55871 8.18393 10.1213 7.62132C10.6839 7.05871 11 6.29565 11 5.5C11 4.70435 10.6839 3.94129 10.1213 3.37868C9.55871 2.81607 8.79565 2.5 8 2.5C7.20435 2.5 6.44129 2.81607 5.87868 3.37868C5.31607 3.94129 5 4.70435 5 5.5C5 6.29565 5.31607 7.05871 5.87868 7.62132C6.44129 8.18393 7.20435 8.5 8 8.5Z" fill="#868B94"/>
</svg>
