<svg width="33" height="23" viewBox="0 0 33 23" fill="none" xmlns="http://www.w3.org/2000/svg">
<path d="M31.9967 11.5C31.9967 13.0599 29.3669 13.8114 28.3307 15.1041C27.4263 16.2331 27.6148 18.9587 26.1147 19.757C24.8148 20.4501 22.5355 18.8619 20.9152 19.2243C19.4518 19.5516 18.1319 22 16.4967 22C14.8614 22 13.5432 19.5516 12.0781 19.2243C10.4579 18.8619 8.17849 20.4501 6.87862 19.757C5.37851 18.9571 5.56707 16.2314 4.66267 15.1041C3.62978 13.8114 1 13.0599 1 11.5C1 9.94011 3.62978 9.18856 4.666 7.8959C5.57041 6.7669 5.38185 4.04128 6.88196 3.24296C8.18183 2.54986 10.4612 4.13814 12.0814 3.77573C13.5448 3.44839 14.8647 1 16.5 1C18.1353 1 19.4535 3.44839 20.9186 3.77573C22.5388 4.13814 24.8182 2.54986 26.118 3.24296C27.6182 4.04295 27.4296 6.76857 28.334 7.8959C29.3702 9.18856 32 9.94011 32 11.5H31.9967Z" fill="#5456D7" stroke="white" stroke-width="2"/>
<path d="M12 8.38867L14 16.5002" stroke="white" stroke-linecap="round"/>
<path d="M14.8204 13.9806L13.5 9.00971C14.6732 8.37421 16.0775 8.32925 17.2889 8.88839L17.6008 9.03234C18.7293 9.55319 20.0416 9.48666 21.1117 8.85437L22.3544 13.8252C21.1979 14.548 19.747 14.6111 18.5322 13.9913L18.4788 13.964C17.3505 13.3883 16.0157 13.3829 14.8827 13.9494L14.8204 13.9806Z" fill="white"/>
<circle cx="11.8999" cy="8" r="1" fill="white"/>
</svg>
