<svg width="17" height="17" viewBox="0 0 17 17" fill="none" xmlns="http://www.w3.org/2000/svg">
<path d="M10.5753 2.63999L10.6379 2.69532L14.3046 6.36199C14.417 6.47497 14.4852 6.62447 14.4968 6.7834C14.5085 6.94234 14.4628 7.10019 14.3681 7.22835C14.2734 7.35651 14.1359 7.4465 13.9805 7.48203C13.8252 7.51755 13.6623 7.49625 13.5213 7.42199L11.4066 9.53598L10.4573 12.0673C10.4322 12.1341 10.3967 12.1965 10.3519 12.252L10.3053 12.3053L9.30526 13.3053C9.19038 13.42 9.0376 13.4888 8.87558 13.4989C8.71357 13.509 8.55345 13.4596 8.42526 13.36L8.36192 13.3047L6.49992 11.4433L3.97126 13.9713C3.85128 14.0909 3.6903 14.1603 3.521 14.1655C3.3517 14.1706 3.18678 14.1112 3.05974 13.9992C2.93269 13.8871 2.85305 13.7309 2.83699 13.5623C2.82093 13.3937 2.86965 13.2253 2.97326 13.0913L3.02859 13.0287L5.55659 10.5L3.69526 8.63798C3.58047 8.52319 3.51152 8.37046 3.50133 8.20844C3.49114 8.04642 3.54042 7.88625 3.63992 7.75799L3.69526 7.69532L4.69526 6.69532C4.74556 6.64484 4.80363 6.60275 4.86726 6.57065L4.93259 6.54265L7.46326 5.59265L9.57726 3.47932C9.50517 3.34454 9.48158 3.18908 9.51045 3.03899C9.53932 2.88889 9.61888 2.75327 9.73582 2.65485C9.85276 2.55643 9.99997 2.50117 10.1528 2.49834C10.3056 2.49552 10.4548 2.54595 10.5753 2.63999Z" fill="#868B94"/>
</svg>
