<svg width="44" height="54" viewBox="0 0 44 54" fill="none" xmlns="http://www.w3.org/2000/svg">
<path fill-rule="evenodd" clip-rule="evenodd" d="M16.3338 43.2634C6.9295 40.7639 0 32.1912 0 22C0 9.84974 9.84974 0 22 0C34.1503 0 44 9.84974 44 22C44 32.1912 37.0705 40.7639 27.6662 43.2634L22.9037 53.3175C22.5425 54.08 21.4575 54.08 21.0963 53.3175L16.3338 43.2634Z" fill="#868B94"/>
<circle cx="22" cy="22.0127" r="19" stroke="#EAEBEE" stroke-width="2"/>
<circle cx="22" cy="22" r="18" fill="#2B2E33"/>
<g clip-path="url(#clip0_1395_85360)">
<path d="M21.456 16.2454C21.456 13.3484 19.5644 10.9995 17.228 10.9995C14.8916 10.9995 13 13.3484 13 16.2454C13 18.848 14.5315 21.0027 16.5359 21.4161L15.6965 32.243C15.6746 32.5154 15.7404 32.791 15.8813 33.0259L15.9064 33.0666C16.1444 33.4644 16.5766 33.7087 17.0401 33.7087H17.4441C17.8982 33.7087 18.3179 33.4769 18.5622 33.0948C18.7157 32.8537 18.7877 32.5687 18.7658 32.2837L17.9264 21.4192C19.9308 21.009 21.4623 18.8542 21.4623 16.2485L21.456 16.2454Z" fill="white"/>
<path d="M29.2534 10.9995V32.4528V33.6961H25.9367L26.5631 24.9363L25.6799 23.574C24.7967 22.2147 24.3301 20.6269 24.3301 19.0077V18.2842C24.3301 16.4333 24.9408 14.6325 26.0714 13.1668C26.0714 13.1668 27.4024 10.9995 29.2534 10.9995Z" fill="white"/>
</g>
<defs>
<clipPath id="clip0_1395_85360">
<rect width="17.2534" height="22.706" fill="white" transform="translate(13 11)"/>
</clipPath>
</defs>
</svg>
