<svg width="44" height="54" viewBox="0 0 44 54" fill="none" xmlns="http://www.w3.org/2000/svg">
<path fill-rule="evenodd" clip-rule="evenodd" d="M16.3338 43.2634C6.9295 40.7639 0 32.1912 0 22C0 9.84974 9.84974 0 22 0C34.1503 0 44 9.84974 44 22C44 32.1912 37.0705 40.7639 27.6662 43.2634L22.9037 53.3175C22.5425 54.08 21.4575 54.08 21.0963 53.3175L16.3338 43.2634Z" fill="#868B94"/>
<circle cx="22" cy="22.0127" r="19" stroke="#EAEBEE" stroke-width="2"/>
<circle cx="22" cy="22" r="18" fill="#E5684C"/>
<g clip-path="url(#clip0_1395_85382)">
<path d="M25.7653 19.5376L24.7808 18.0114V10.6018C24.7808 9.99127 24.284 9.50049 23.6765 9.50049L20.4954 9.50947C19.8879 9.50947 19.3971 10.0032 19.3971 10.6107V18.1371L18.4634 19.5376L17.2664 21.3361C17.0958 21.5935 17.0031 21.8928 17.0031 22.201V33.4262C17.0031 34.0187 17.4849 34.5005 18.0774 34.5005H26.1035C26.696 34.5005 27.1778 34.0187 27.1778 33.4262V22.186C27.1778 21.8868 27.091 21.5935 26.9294 21.3421L25.7683 19.5376H25.7653Z" fill="white"/>
<path d="M26.7888 22.6792H20.8276C20.6144 22.6792 20.4415 22.852 20.4415 23.0652V29.7746C20.4415 29.9878 20.6144 30.1606 20.8276 30.1606H26.7888C27.002 30.1606 27.1748 29.9878 27.1748 29.7746V23.0652C27.1748 22.852 27.002 22.6792 26.7888 22.6792Z" fill="#F7B8AA"/>
</g>
<defs>
<clipPath id="clip0_1395_85382">
<rect width="10.1748" height="25" fill="white" transform="translate(17 9.5)"/>
</clipPath>
</defs>
</svg>
