<svg width="24" height="25" viewBox="0 0 24 25" fill="none" xmlns="http://www.w3.org/2000/svg">
<path d="M6 15.3638C7.65685 15.3638 9 14.0206 9 12.3638C9 10.7069 7.65685 9.36377 6 9.36377C4.34315 9.36377 3 10.7069 3 12.3638C3 14.0206 4.34315 15.3638 6 15.3638Z" stroke="white" stroke-width="1.6" stroke-linecap="round" stroke-linejoin="round"/>
<path d="M16.5 22.1138C18.1569 22.1138 19.5 20.7706 19.5 19.1138C19.5 17.4569 18.1569 16.1138 16.5 16.1138C14.8431 16.1138 13.5 17.4569 13.5 19.1138C13.5 20.7706 14.8431 22.1138 16.5 22.1138Z" stroke="white" stroke-width="1.6" stroke-linecap="round" stroke-linejoin="round"/>
<path d="M16.5 8.61377C18.1569 8.61377 19.5 7.27062 19.5 5.61377C19.5 3.95692 18.1569 2.61377 16.5 2.61377C14.8431 2.61377 13.5 3.95692 13.5 5.61377C13.5 7.27062 14.8431 8.61377 16.5 8.61377Z" stroke="white" stroke-width="1.6" stroke-linecap="round" stroke-linejoin="round"/>
<path d="M13.9767 7.23584L8.52312 10.7417" stroke="white" stroke-width="1.6" stroke-linecap="round" stroke-linejoin="round"/>
<path d="M8.52312 13.9858L13.9767 17.4917" stroke="white" stroke-width="1.6" stroke-linecap="round" stroke-linejoin="round"/>
</svg>
