<svg width="20" height="20" viewBox="0 0 20 20" fill="none" xmlns="http://www.w3.org/2000/svg">
<path d="M14.9322 11.9335C14.7164 12.1427 14.6172 12.4452 14.6664 12.7418L15.4072 16.8418C15.4697 17.1893 15.3231 17.541 15.0322 17.7418C14.7472 17.9502 14.3681 17.9752 14.0572 17.8085L10.3664 15.8835C10.2381 15.8152 10.0956 15.7785 9.94973 15.7743H9.7239C9.64557 15.786 9.5689 15.811 9.4989 15.8493L5.80723 17.7835C5.62473 17.8752 5.41807 17.9077 5.21557 17.8752C4.72223 17.7818 4.39307 17.3118 4.4739 16.816L5.21557 12.716C5.26473 12.4168 5.16557 12.1127 4.94973 11.9002L1.94057 8.9835C1.6889 8.73933 1.6014 8.37266 1.7164 8.04183C1.82807 7.71183 2.11307 7.471 2.45723 7.41683L6.5989 6.816C6.9139 6.7835 7.19057 6.59183 7.33223 6.3085L9.15723 2.56683C9.20057 2.4835 9.2564 2.40683 9.3239 2.34183L9.3989 2.2835C9.43807 2.24016 9.48307 2.20433 9.53307 2.17516L9.6239 2.14183L9.76557 2.0835H10.1164C10.4297 2.116 10.7056 2.3035 10.8497 2.5835L12.6989 6.3085C12.8322 6.581 13.0914 6.77016 13.3906 6.816L17.5322 7.41683C17.8822 7.46683 18.1747 7.7085 18.2906 8.04183C18.3997 8.376 18.3056 8.74266 18.0489 8.9835L14.9322 11.9335Z" fill="#6D717A"/>
<path d="M9.7239 15.7743H10.1164V2.0835H9.76557L9.6239 2.14183L9.53307 2.17516C9.48307 2.20433 9.43807 2.24016 9.3989 2.2835L9.3239 2.34183C9.2564 2.40683 9.20057 2.4835 9.15723 2.56683L7.33223 6.3085C7.19057 6.59183 6.9139 6.7835 6.5989 6.816L2.45723 7.41683C2.11307 7.471 1.82807 7.71183 1.7164 8.04183C1.6014 8.37266 1.6889 8.73933 1.94057 8.9835L4.94973 11.9002C5.16557 12.1127 5.26473 12.4168 5.21557 12.716L4.4739 16.816C4.39307 17.3118 4.72223 17.7818 5.21557 17.8752C5.41807 17.9077 5.62473 17.8752 5.80723 17.7835L9.4989 15.8493C9.5689 15.811 9.64557 15.786 9.7239 15.7743Z" fill="#FFEA2F"/>
</svg>
