<svg width="24" height="24" viewBox="0 0 24 24" fill="none" xmlns="http://www.w3.org/2000/svg">
<g id="Star">
<g id="Star_2">
<path id="Star_3" d="M17.9185 14.32C17.6595 14.571 17.5405 14.934 17.5995 15.29L18.4885 20.21C18.5635 20.627 18.3875 21.049 18.0385 21.29C17.6965 21.54 17.2415 21.57 16.8685 21.37L12.4395 19.06C12.2855 18.978 12.1145 18.934 11.9395 18.929H11.6685C11.5745 18.943 11.4825 18.973 11.3985 19.019L6.96851 21.34C6.74951 21.45 6.50151 21.489 6.25851 21.45C5.66651 21.338 5.27151 20.774 5.36851 20.179L6.25851 15.259C6.31751 14.9 6.19851 14.535 5.93951 14.28L2.32851 10.78C2.02651 10.487 1.92151 10.047 2.05951 9.65C2.19351 9.254 2.53551 8.965 2.94851 8.9L7.91851 8.179C8.29651 8.14 8.62851 7.91 8.79851 7.57L10.9885 3.08C11.0405 2.98 11.1075 2.888 11.1885 2.81L11.2785 2.74C11.3255 2.688 11.3795 2.645 11.4395 2.61L11.5485 2.57L11.7185 2.5H12.1395C12.5155 2.539 12.8465 2.764 13.0195 3.1L15.2385 7.57C15.3985 7.897 15.7095 8.124 16.0685 8.179L21.0385 8.9C21.4585 8.96 21.8095 9.25 21.9485 9.65C22.0795 10.051 21.9665 10.491 21.6585 10.78L17.9185 14.32Z" fill="#EAEBEE"/>
</g>
</g>
</svg>
