<svg width="20" height="20" viewBox="0 0 20 20" fill="none" xmlns="http://www.w3.org/2000/svg">
<path d="M14.9317 11.9335C14.7159 12.1427 14.6167 12.4452 14.6659 12.7418L15.4067 16.8418C15.4692 17.1893 15.3226 17.541 15.0317 17.7418C14.7467 17.9502 14.3676 17.9752 14.0567 17.8085L10.3659 15.8835C10.2376 15.8152 10.0951 15.7785 9.94925 15.7743H9.72341C9.64508 15.786 9.56841 15.811 9.49841 15.8493L5.80675 17.7835C5.62425 17.8752 5.41758 17.9077 5.21508 17.8752C4.72175 17.7818 4.39258 17.3118 4.47341 16.816L5.21508 12.716C5.26425 12.4168 5.16508 12.1127 4.94925 11.9002L1.94008 8.9835C1.68841 8.73933 1.60091 8.37266 1.71591 8.04183C1.82758 7.71183 2.11258 7.471 2.45675 7.41683L6.59841 6.816C6.91341 6.7835 7.19008 6.59183 7.33175 6.3085L9.15674 2.56683C9.20008 2.4835 9.25591 2.40683 9.32341 2.34183L9.39841 2.2835C9.43758 2.24016 9.48258 2.20433 9.53258 2.17516L9.62341 2.14183L9.76508 2.0835H10.1159C10.4292 2.116 10.7051 2.3035 10.8492 2.5835L12.6984 6.3085C12.8317 6.581 13.0909 6.77016 13.3901 6.816L17.5317 7.41683C17.8817 7.46683 18.1742 7.7085 18.2901 8.04183C18.3992 8.376 18.3051 8.74266 18.0484 8.9835L14.9317 11.9335Z" fill="#FFEA2F"/>
</svg>
