<svg width="20" height="20" viewBox="0 0 20 20" fill="none" xmlns="http://www.w3.org/2000/svg">
<g clip-path="url(#clip0_2221_6507)">
<path d="M1.78198 10.7836V13.3576C1.78198 14.7581 2.58148 16.0356 3.84148 16.6481L4.88998 17.1576C6.55648 17.9676 8.52748 17.8326 10.068 16.8031L17.0545 12.1351C18.226 11.3521 18.9295 10.0361 18.9295 8.62709V5.95459L1.78198 10.7836Z" fill="#DFE3E8"/>
<path d="M1.64412 11.3148L5.94912 13.3283C6.76712 13.7108 7.72312 13.6538 8.48962 13.1758C11.5861 10.6683 14.9441 8.61584 18.5136 6.92884C19.6941 6.19334 19.5016 5.09334 18.3216 4.21934L14.7021 2.18734C13.7416 1.74434 12.6536 1.66184 11.6391 1.96034C9.25862 2.66134 4.82662 4.50384 1.17312 9.07084C1.15062 9.09634 1.12912 9.12184 1.10862 9.14734C0.53762 9.86084 0.81662 10.9278 1.64412 11.3148Z" fill="#FA5F3C"/>
<path d="M10.8119 10.695C10.8119 9.73048 10.2839 8.81198 9.68635 8.05448L6.32085 4.41748C5.98635 4.63298 5.64835 4.86398 5.30835 5.11198L8.40385 8.34548C9.11085 9.08748 9.55185 10.0555 9.59135 11.0795C9.59335 11.1345 9.59435 11.19 9.59435 11.2455V12.3095C9.76785 12.1775 9.94235 12.0475 10.1174 11.918C10.2999 11.7755 10.4499 11.665 10.8119 11.405V10.695Z" fill="#FAA594"/>
<path d="M14.3529 5.31582L11.3504 2.04932C10.9724 2.16732 10.5524 2.31182 10.0974 2.48832L13.0699 5.60682C13.7769 6.34882 14.2179 7.31682 14.2574 8.34082C14.2594 8.39582 14.2604 8.45132 14.2604 8.50682V9.17982C14.6629 8.94232 15.0689 8.71032 15.4779 8.48382V7.95582C15.4779 6.99132 14.9499 6.07282 14.3524 5.31532L14.3529 5.31582Z" fill="#FAA594"/>
<path d="M1.71094 8.4271C2.19244 9.0156 3.33394 10.5471 3.76144 12.3051L5.30044 13.0251C4.91244 11.7861 4.01144 9.3651 2.46344 7.6001C2.21044 7.8641 1.95894 8.1396 1.71094 8.4271Z" fill="#FAA594"/>
</g>
<defs>
<clipPath id="clip0_2221_6507">
<rect width="20" height="20" fill="white"/>
</clipPath>
</defs>
</svg>
