<svg width="16" height="16" viewBox="0 0 16 16" fill="none" xmlns="http://www.w3.org/2000/svg">
<path d="M14.1995 6.53C14.4251 6.48359 14.6279 6.36087 14.7737 6.1825C14.9195 6.00412 14.9994 5.78098 15 5.5506V4C14.9997 3.73488 14.8942 3.4807 14.7068 3.29323C14.5193 3.10576 14.2651 3.0003 14 3H2C1.73488 3.0003 1.4807 3.10576 1.29323 3.29323C1.10576 3.4807 1.0003 3.73488 1 4V5.5506C1.00059 5.78098 1.0805 6.00412 1.2263 6.1825C1.3721 6.36087 1.57488 6.48359 1.80054 6.53C2.1392 6.59936 2.44353 6.78353 2.66208 7.05137C2.88063 7.31921 2.99999 7.65431 2.99999 8C2.99999 8.34569 2.88063 8.68079 2.66208 8.94863C2.44353 9.21647 2.1392 9.40064 1.80054 9.47C1.57488 9.51642 1.3721 9.63913 1.2263 9.8175C1.0805 9.99588 1.00059 10.219 1 10.4494V12C1.0003 12.2651 1.10576 12.5193 1.29323 12.7068C1.4807 12.8942 1.73488 12.9997 2 13H14C14.2651 12.9997 14.5193 12.8942 14.7068 12.7068C14.8942 12.5193 14.9997 12.2651 15 12V10.4494C14.9994 10.219 14.9195 9.99588 14.7737 9.8175C14.6279 9.63913 14.4251 9.51642 14.1995 9.47C13.8608 9.40064 13.5565 9.21647 13.3379 8.94863C13.1194 8.68079 13 8.34569 13 8C13 7.65431 13.1194 7.31921 13.3379 7.05137C13.5565 6.78353 13.8608 6.59936 14.1995 6.53ZM2 10.4499C2.56461 10.3346 3.07206 10.0278 3.4365 9.58144C3.80094 9.13507 4 8.5765 4 8.00024C4 7.42399 3.80094 6.86542 3.4365 6.41904C3.07206 5.97267 2.56461 5.66588 2 5.5506V4H5.5V12H2V10.4499Z" fill="white"/>
</svg>
