<svg width="24" height="25" viewBox="0 0 24 25" fill="none" xmlns="http://www.w3.org/2000/svg">
<path d="M12 2.61377C10.0716 2.61377 8.18657 3.1856 6.58319 4.25694C4.97982 5.32828 3.73013 6.85103 2.99218 8.63261C2.25422 10.4142 2.06114 12.3746 2.43735 14.2659C2.81355 16.1572 3.74215 17.8945 5.10571 19.2581C6.46928 20.6216 8.20656 21.5502 10.0979 21.9264C11.9892 22.3026 13.9496 22.1095 15.7312 21.3716C17.5127 20.6336 19.0355 19.384 20.1068 17.7806C21.1782 16.1772 21.75 14.2921 21.75 12.3638C21.7471 9.7788 20.7189 7.30055 18.8911 5.4727C17.0632 3.64485 14.585 2.61669 12 2.61377ZM11.25 7.86377C11.25 7.66486 11.329 7.47409 11.4697 7.33344C11.6103 7.19279 11.8011 7.11377 12 7.11377C12.1989 7.11377 12.3897 7.19279 12.5303 7.33344C12.671 7.47409 12.75 7.66486 12.75 7.86377V13.1138C12.75 13.3127 12.671 13.5034 12.5303 13.6441C12.3897 13.7848 12.1989 13.8638 12 13.8638C11.8011 13.8638 11.6103 13.7848 11.4697 13.6441C11.329 13.5034 11.25 13.3127 11.25 13.1138V7.86377ZM12 17.6138C11.7775 17.6138 11.56 17.5478 11.375 17.4242C11.19 17.3006 11.0458 17.1249 10.9606 16.9193C10.8755 16.7137 10.8532 16.4875 10.8966 16.2693C10.94 16.0511 11.0472 15.8506 11.2045 15.6933C11.3618 15.5359 11.5623 15.4288 11.7805 15.3854C11.9988 15.342 12.225 15.3643 12.4305 15.4494C12.6361 15.5346 12.8118 15.6787 12.9354 15.8638C13.059 16.0488 13.125 16.2663 13.125 16.4888C13.125 16.7871 13.0065 17.0733 12.7955 17.2843C12.5845 17.4952 12.2984 17.6138 12 17.6138Z" fill="white"/>
</svg>
