<svg width="20" height="20" viewBox="0 0 20 20" fill="none" xmlns="http://www.w3.org/2000/svg">
<g clip-path="url(#clip0_2070_18899)">
<path d="M10 18.75C14.8325 18.75 18.75 14.8325 18.75 10C18.75 5.16751 14.8325 1.25 10 1.25C5.16751 1.25 1.25 5.16751 1.25 10C1.25 14.8325 5.16751 18.75 10 18.75Z" fill="#FFC84D"/>
<path d="M10.0003 12.9182C9.15825 12.9182 8.50075 12.7727 8.05225 12.6257C7.81975 12.5497 7.62925 12.8262 7.78075 13.0182C8.18575 13.5317 8.89925 14.1432 10.0003 14.1432C11.1013 14.1432 11.8148 13.5317 12.2198 13.0182C12.3713 12.8262 12.1813 12.5497 11.9483 12.6257C11.4998 12.7722 10.8423 12.9182 10.0003 12.9182Z" fill="#FF6D00"/>
<path d="M6.09692 8.12303C5.97342 8.06203 5.83142 8.16903 5.85892 8.30403C6.01142 9.05353 6.65642 9.61653 7.42892 9.61653C8.20142 9.61653 8.84642 9.05353 8.99892 8.30403C9.02642 8.16903 8.88442 8.06203 8.76092 8.12303C8.49142 8.25603 8.03242 8.42353 7.42892 8.42353C6.82542 8.42353 6.36642 8.25603 6.09692 8.12303Z" fill="black"/>
<path d="M13.9025 8.12303C14.026 8.06203 14.168 8.16903 14.1405 8.30403C13.988 9.05353 13.343 9.61653 12.5705 9.61653C11.798 9.61653 11.153 9.05353 11.0005 8.30403C10.973 8.16903 11.115 8.06203 11.2385 8.12303C11.508 8.25603 11.967 8.42353 12.5705 8.42353C13.1735 8.42353 13.633 8.25603 13.9025 8.12303Z" fill="black"/>
</g>
<defs>
<clipPath id="clip0_2070_18899">
<rect width="20" height="20" fill="white"/>
</clipPath>
</defs>
</svg>
