<svg width="20" height="20" viewBox="0 0 20 20" fill="none" xmlns="http://www.w3.org/2000/svg">
<g clip-path="url(#clip0_2070_24674)">
<path d="M14.25 1.75H5.75C3.54086 1.75 1.75 3.54086 1.75 5.75V14.25C1.75 16.4591 3.54086 18.25 5.75 18.25H14.25C16.4591 18.25 18.25 16.4591 18.25 14.25V5.75C18.25 3.54086 16.4591 1.75 14.25 1.75Z" fill="#4592FB"/>
<path d="M8.43077 13.7871L9.85327 9.75505C10.0553 9.18205 9.63027 8.58105 9.02227 8.58105H6.17677C5.56877 8.58105 5.14377 9.18205 5.34577 9.75505L6.76827 13.7871C7.04477 14.5711 8.15327 14.5711 8.42977 13.7871H8.43077Z" fill="white"/>
<path d="M11.57 9.00695L10.1475 13.0389C9.94552 13.6119 10.3705 14.2129 10.9785 14.2129H13.824C14.432 14.2129 14.857 13.6119 14.655 13.0389L13.2325 9.00695C12.956 8.22295 11.8475 8.22295 11.571 9.00695H11.57Z" fill="white"/>
<path d="M7.60039 7.77549C8.1941 7.77549 8.67539 7.29419 8.67539 6.70049C8.67539 6.10678 8.1941 5.62549 7.60039 5.62549C7.00668 5.62549 6.52539 6.10678 6.52539 6.70049C6.52539 7.29419 7.00668 7.77549 7.60039 7.77549Z" fill="white"/>
<path d="M12.4002 7.77549C12.9939 7.77549 13.4752 7.29419 13.4752 6.70049C13.4752 6.10678 12.9939 5.62549 12.4002 5.62549C11.8065 5.62549 11.3252 6.10678 11.3252 6.70049C11.3252 7.29419 11.8065 7.77549 12.4002 7.77549Z" fill="white"/>
</g>
<defs>
<clipPath id="clip0_2070_24674">
<rect width="20" height="20" fill="white"/>
</clipPath>
</defs>
</svg>
