<svg width="20" height="20" viewBox="0 0 20 20" fill="none" xmlns="http://www.w3.org/2000/svg">
<g clip-path="url(#clip0_2070_18900)">
<path d="M14.7047 5.62196C14.6437 4.25146 13.6467 3.15196 12.3607 2.89096C11.9227 1.74346 10.7997 0.945456 9.50518 1.00346C8.16768 1.06296 7.09268 2.01546 6.79818 3.25596C5.73918 3.73546 5.02218 4.81946 5.07718 6.05146C5.10368 6.64446 5.30718 7.18646 5.63118 7.63446C5.44518 8.04246 5.33968 8.49296 5.36068 8.97146C5.40268 9.90896 5.88818 10.714 6.59768 11.219C6.55368 11.5575 6.53568 11.907 6.55168 12.2655C6.66718 14.8585 8.38118 16.8885 10.3802 16.7995C12.3787 16.7105 13.9052 14.536 13.7897 11.9425C13.7752 11.623 13.7362 11.312 13.6762 11.0125C14.4172 10.4505 14.8807 9.54796 14.8357 8.54846C14.8117 8.01246 14.6352 7.52396 14.3647 7.10346C14.5967 6.66046 14.7287 6.15796 14.7047 5.62196Z" fill="#036D50"/>
<path d="M11.8938 5.95303C11.5723 4.61953 10.3838 3.73053 9.07129 3.71953C8.42229 2.67653 7.16729 2.10803 5.90779 2.41153C4.60629 2.72553 3.73279 3.86553 3.68029 5.13953C2.73229 5.81253 2.23529 7.01303 2.52429 8.21203C2.66329 8.78903 2.96679 9.28253 3.37029 9.66003C3.26579 10.096 3.24779 10.558 3.36029 11.024C3.58029 11.9365 4.21079 12.634 5.00379 12.994C5.02529 13.3345 5.07429 13.681 5.15829 14.03C5.76679 16.5535 7.83679 18.219 9.78179 17.75C11.7268 17.281 12.8103 14.855 12.2018 12.3315C12.1268 12.0205 12.0293 11.723 11.9128 11.4405C12.5328 10.7475 12.8153 9.77303 12.5808 8.80053C12.4553 8.27903 12.1883 7.83353 11.8423 7.47203C11.9858 6.99253 12.0198 6.47453 11.8938 5.95303Z" fill="#03905A"/>
<path d="M17.4963 8.08197C17.7763 6.73897 17.0823 5.42697 15.9008 4.85547C15.7608 3.63497 14.8698 2.58447 13.6013 2.31997C12.2908 2.04697 11.0133 2.70347 10.4208 3.83247C9.27575 4.03497 8.31325 4.90747 8.06125 6.11547C7.94025 6.69647 8.00326 7.27247 8.20626 7.78597C7.92526 8.13497 7.71126 8.54547 7.61376 9.01447C7.42226 9.93297 7.69375 10.8335 8.25625 11.4985C8.13025 11.8155 8.02575 12.1495 7.95275 12.501C7.42325 15.042 8.58125 17.433 10.5403 17.8415C12.4988 18.2495 14.5158 16.5205 15.0458 13.9795C15.1113 13.6665 15.1503 13.3555 15.1658 13.0505C16.0228 12.6895 16.6953 11.9295 16.8993 10.95C17.0088 10.425 16.9583 9.90797 16.8003 9.43347C17.1348 9.06147 17.3873 8.60747 17.4968 8.08247L17.4963 8.08197Z" fill="#23B169"/>
<path d="M15.0451 13.9794C15.1106 13.6664 15.1496 13.3554 15.1651 13.0504C16.0221 12.6894 16.6946 11.9294 16.8986 10.9499C17.0081 10.4249 16.9576 9.90793 16.7996 9.43343C17.1341 9.06143 17.3866 8.60743 17.4961 8.08243C17.7761 6.73943 17.0821 5.42743 15.9006 4.85593C15.7606 3.63543 14.8696 2.58493 13.6011 2.32043C13.5871 2.31743 13.5731 2.31793 13.5586 2.31543L10.5576 17.8444C12.5106 18.2384 14.5166 16.5129 15.0446 13.9799L15.0451 13.9794Z" fill="#0A9F60"/>
<path d="M11.8959 17.7862C9.74686 17.2752 8.44336 17.7862 8.44336 17.7862V18.4742C8.44336 18.7647 8.67886 19.0002 8.96936 19.0002H11.3699C11.6604 19.0002 11.8959 18.7647 11.8959 18.4742V17.7862Z" fill="#68C76F"/>
</g>
<defs>
<clipPath id="clip0_2070_18900">
<rect width="20" height="20" fill="white"/>
</clipPath>
</defs>
</svg>
