<svg width="20" height="20" viewBox="0 0 20 20" fill="none" xmlns="http://www.w3.org/2000/svg">
<g clip-path="url(#clip0_2070_18905)">
<path d="M15.25 1.75H4.75C3.09315 1.75 1.75 3.09315 1.75 4.75V15.25C1.75 16.9069 3.09315 18.25 4.75 18.25H15.25C16.9069 18.25 18.25 16.9069 18.25 15.25V4.75C18.25 3.09315 16.9069 1.75 15.25 1.75Z" fill="#3D3D3D"/>
<path d="M15.25 1.75H4.75C3.09315 1.75 1.75 3.09315 1.75 4.75V10.25C1.75 11.9069 3.09315 13.25 4.75 13.25H15.25C16.9069 13.25 18.25 11.9069 18.25 10.25V4.75C18.25 3.09315 16.9069 1.75 15.25 1.75Z" fill="#767676"/>
<path d="M9.0002 7.94825H3.6377C3.3617 7.94825 3.1377 8.17225 3.1377 8.44825V10.1988C3.1377 11.2998 4.0302 12.1923 5.1312 12.1923H8.9997C9.2757 12.1923 9.4997 11.9683 9.4997 11.6923V8.44775C9.4997 8.17175 9.2757 7.94775 8.9997 7.94775L9.0002 7.94825Z" fill="#292929"/>
<path d="M9.50067 6.44812V3.30762C9.50067 3.03162 9.27667 2.80762 9.00067 2.80762H5.13217C4.03117 2.80762 3.13867 3.70012 3.13867 4.80112V6.44812C3.13867 6.72412 3.36267 6.94812 3.63867 6.94812H9.00117C9.27717 6.94812 9.50067 6.72412 9.50067 6.44812Z" fill="#292929"/>
<path d="M14.869 2.80762H11C10.724 2.80762 10.5 3.03162 10.5 3.30762V11.6926C10.5 11.9686 10.724 12.1926 11 12.1926H14.8685C15.9695 12.1926 16.862 11.3001 16.862 10.1991V4.80112C16.862 3.70012 15.9695 2.80762 14.8685 2.80762H14.869Z" fill="#E5E8EB"/>
<path d="M8.24503 4.85237C8.64571 4.85237 8.97053 4.52755 8.97053 4.12687C8.97053 3.72618 8.64571 3.40137 8.24503 3.40137C7.84435 3.40137 7.51953 3.72618 7.51953 4.12687C7.51953 4.52755 7.84435 4.85237 8.24503 4.85237Z" fill="#EC6700"/>
<path d="M8.24503 6.5218C8.64571 6.5218 8.97053 6.19698 8.97053 5.7963C8.97053 5.39562 8.64571 5.0708 8.24503 5.0708C7.84435 5.0708 7.51953 5.39562 7.51953 5.7963C7.51953 6.19698 7.84435 6.5218 8.24503 6.5218Z" fill="#EC6700"/>
<path d="M7.20576 4.04136C7.20576 3.68817 6.91944 3.40186 6.56626 3.40186C6.21307 3.40186 5.92676 3.68817 5.92676 4.04136V5.88236C5.92676 6.23554 6.21307 6.52186 6.56626 6.52186C6.91944 6.52186 7.20576 6.23554 7.20576 5.88236V4.04136Z" fill="#FFCD00"/>
<path d="M8.96973 9.21377V9.18877C8.96973 8.82509 8.67491 8.53027 8.31123 8.53027H4.99173C4.62805 8.53027 4.33323 8.82509 4.33323 9.18877V9.21377C4.33323 9.57745 4.62805 9.87227 4.99173 9.87227H8.31123C8.67491 9.87227 8.96973 9.57745 8.96973 9.21377Z" fill="#03905A"/>
<path d="M8.96973 10.872V10.847C8.96973 10.4833 8.67491 10.1885 8.31123 10.1885H4.99173C4.62805 10.1885 4.33323 10.4833 4.33323 10.847V10.872C4.33323 11.2357 4.62805 11.5305 4.99173 11.5305H8.31123C8.67491 11.5305 8.96973 11.2357 8.96973 10.872Z" fill="#03905A"/>
<path d="M5.61298 4.04136C5.61298 3.68817 5.32667 3.40186 4.97348 3.40186C4.6203 3.40186 4.33398 3.68817 4.33398 4.04136V5.88236C4.33398 6.23554 4.6203 6.52186 4.97348 6.52186C5.32667 6.52186 5.61298 6.23554 5.61298 5.88236V4.04136Z" fill="#FFCD00"/>
</g>
<defs>
<clipPath id="clip0_2070_18905">
<rect width="20" height="20" fill="white"/>
</clipPath>
</defs>
</svg>
