<svg width="20" height="20" viewBox="0 0 20 20" fill="none" xmlns="http://www.w3.org/2000/svg">
<g clip-path="url(#clip0_2070_23779)">
<path d="M8.92084 17.4844C9.57634 17.9239 10.4233 17.9239 11.0783 17.4844C12.8678 16.2839 16.4073 13.6569 17.9618 10.7294C20.0873 6.72639 17.5913 2.73389 14.2928 2.73389C12.4138 2.73389 11.2823 3.71489 10.6568 4.55939C10.3263 5.00539 9.67384 5.00539 9.34334 4.55939C8.71734 3.71489 7.58634 2.73389 5.70734 2.73389C2.40834 2.73389 -0.0876572 6.72689 2.03784 10.7299C3.59234 13.6574 7.13134 16.2844 8.92134 17.4849L8.92084 17.4844Z" fill="#EC4452"/>
<path d="M15.0356 4.70055L14.6721 2.18555L14.3086 4.70055C14.1976 5.46955 13.7146 6.07105 13.0976 6.20955L11.0791 6.66255L13.0976 7.11555C13.7146 7.25405 14.1976 7.85555 14.3086 8.62455L14.6721 11.1395L15.0356 8.62455C15.1466 7.85555 15.6296 7.25405 16.2466 7.11555L18.2651 6.66255L16.2466 6.20955C15.6296 6.07105 15.1466 5.46955 15.0356 4.70055Z" fill="#FFD800"/>
<path d="M6.36886 10.6746L6.11736 8.93408L5.86586 10.6746C5.78886 11.2066 5.45486 11.6231 5.02786 11.7191L3.63086 12.0326L5.02786 12.3461C5.45486 12.4421 5.78936 12.8581 5.86586 13.3906L6.11736 15.1311L6.36886 13.3906C6.44586 12.8586 6.77986 12.4421 7.20686 12.3461L8.60336 12.0326L7.20686 11.7191C6.77986 11.6231 6.44536 11.2071 6.36886 10.6746Z" fill="#FFD800"/>
</g>
<defs>
<clipPath id="clip0_2070_23779">
<rect width="20" height="20" fill="white"/>
</clipPath>
</defs>
</svg>
