<svg width="20" height="20" viewBox="0 0 20 20" fill="none" xmlns="http://www.w3.org/2000/svg">
<g clip-path="url(#clip0_2070_18898)">
<path d="M10 18.75C14.8325 18.75 18.75 14.8325 18.75 10C18.75 5.16751 14.8325 1.25 10 1.25C5.16751 1.25 1.25 5.16751 1.25 10C1.25 14.8325 5.16751 18.75 10 18.75Z" fill="#FFC84D"/>
<path d="M5.36033 11.5107C4.78383 11.5107 4.51733 11.8362 4.63133 12.1912C5.13583 13.7622 7.34583 14.9447 9.99533 14.9447C12.6448 14.9447 14.8543 13.7617 15.3593 12.1912C15.4733 11.8362 15.3238 11.5567 14.7473 11.5567L5.36083 11.5107H5.36033Z" fill="#FF6D00"/>
<path d="M7.12891 15.482C7.12891 16.8675 8.40691 17.9905 9.98291 17.9905C11.5589 17.9905 12.8369 16.8675 12.8369 15.482L12.8704 11.855H7.16241L7.12891 15.482Z" fill="#50BC9F"/>
<path d="M14.7464 11.5562C13.7499 12.3027 12.0334 12.7957 10.0829 12.7957C8.09287 12.7957 6.34637 12.2827 5.35938 11.5107L14.7459 11.5567L14.7464 11.5562Z" fill="white"/>
<path d="M10.6412 16.2515C10.4767 16.2515 10.3307 16.1405 10.2872 15.9815L9.99966 14.937L9.71215 15.9815C9.66865 16.1405 9.52265 16.2515 9.35815 16.2515C9.19365 16.2515 9.04715 16.1405 9.00365 15.9815L8.46515 14.0255C8.42015 13.862 8.51665 13.6925 8.68015 13.6475C8.84516 13.602 9.01266 13.699 9.05816 13.8625L9.35815 14.952L9.64615 13.9065C9.68965 13.7475 9.83565 13.6365 10.0002 13.6365C10.1647 13.6365 10.3107 13.7475 10.3542 13.9065L10.6422 14.952L10.9422 13.8625C10.9872 13.699 11.1547 13.602 11.3202 13.6475C11.4837 13.6925 11.5802 13.862 11.5352 14.0255L10.9967 15.9815C10.9532 16.1405 10.8072 16.2515 10.6422 16.2515H10.6412Z" fill="#0D7259"/>
<path d="M9.03686 15.2512H8.25086C8.08086 15.2512 7.94336 15.1137 7.94336 14.9437C7.94336 14.7737 8.08086 14.6362 8.25086 14.6362H9.03686C9.20686 14.6362 9.34436 14.7737 9.34436 14.9437C9.34436 15.1137 9.20686 15.2512 9.03686 15.2512Z" fill="#0D7259"/>
<path d="M11.7488 15.2512H10.9628C10.7928 15.2512 10.6553 15.1137 10.6553 14.9437C10.6553 14.7737 10.7928 14.6362 10.9628 14.6362H11.7488C11.9188 14.6362 12.0563 14.7737 12.0563 14.9437C12.0563 15.1137 11.9188 15.2512 11.7488 15.2512Z" fill="#0D7259"/>
<path d="M10.0001 7.76093C9.8316 7.76093 9.6876 7.84243 9.5886 7.96343C9.5256 8.03143 9.4656 8.12543 9.4181 8.25593C9.2256 8.78343 8.2636 10.6089 6.3481 10.6089C5.0646 10.6089 4.0686 10.0884 3.6721 8.95743C3.4496 8.32293 3.3781 7.59343 3.3561 7.13993C3.3436 6.88543 3.5191 6.66343 3.7706 6.62093C4.7121 6.46243 7.0831 6.16593 9.4546 6.68593C9.6341 6.72543 9.8176 6.74493 10.0006 6.74493C10.1836 6.74493 10.3671 6.72493 10.5466 6.68593C12.9181 6.16593 15.2886 6.46243 16.2306 6.62093C16.4821 6.66343 16.6576 6.88543 16.6451 7.13993C16.6226 7.59393 16.5511 8.32343 16.3291 8.95743C15.9326 10.0884 14.9366 10.6089 13.6531 10.6089C11.7371 10.6089 10.7756 8.78343 10.5831 8.25593C10.5356 8.12543 10.4756 8.03143 10.4126 7.96343C10.3136 7.84293 10.1696 7.76093 10.0016 7.76093H10.0001Z" fill="black"/>
</g>
<defs>
<clipPath id="clip0_2070_18898">
<rect width="20" height="20" fill="white"/>
</clipPath>
</defs>
</svg>
