<svg width="20" height="20" viewBox="0 0 20 20" fill="none" xmlns="http://www.w3.org/2000/svg">
<g clip-path="url(#clip0_2070_18895)">
<path d="M10 18.75C14.8325 18.75 18.75 14.8325 18.75 10C18.75 5.16751 14.8325 1.25 10 1.25C5.16751 1.25 1.25 5.16751 1.25 10C1.25 14.8325 5.16751 18.75 10 18.75Z" fill="#FFC84D"/>
<path d="M10.0001 8.8703C9.8316 8.8703 9.6876 8.9518 9.5886 9.0728C9.5256 9.1408 9.4656 9.2348 9.4181 9.3653C9.2256 9.8928 8.2636 11.7183 6.3481 11.7183C5.0646 11.7183 4.0686 11.1978 3.6721 10.0668C3.4496 9.4323 3.3781 8.7028 3.3561 8.2493C3.3436 7.9948 3.5191 7.7728 3.7706 7.7303C4.7121 7.5718 7.0831 7.2753 9.4546 7.7953C9.6341 7.8348 9.8176 7.8543 10.0006 7.8543C10.1836 7.8543 10.3671 7.8343 10.5466 7.7953C12.9181 7.2753 15.2886 7.5718 16.2306 7.7303C16.4821 7.7728 16.6576 7.9948 16.6451 8.2493C16.6226 8.7033 16.5511 9.4328 16.3291 10.0668C15.9326 11.1978 14.9366 11.7183 13.6531 11.7183C11.7371 11.7183 10.7756 9.8928 10.5831 9.3653C10.5356 9.2348 10.4756 9.1408 10.4126 9.0728C10.3136 8.9523 10.1696 8.8703 10.0016 8.8703H10.0001Z" fill="black"/>
<path d="M9.99986 13.553C8.65936 13.553 7.66586 13.313 7.07186 13.1135C6.80136 13.0225 6.59186 13.358 6.79286 13.5605C7.38436 14.155 8.62986 14.667 9.99936 14.667C11.3689 14.667 12.6144 14.155 13.2059 13.5605C13.4074 13.358 13.1979 13.0225 12.9269 13.1135C12.3329 13.313 11.3399 13.553 9.99886 13.553H9.99986Z" fill="#FF6D00"/>
</g>
<defs>
<clipPath id="clip0_2070_18895">
<rect width="20" height="20" fill="white"/>
</clipPath>
</defs>
</svg>
