<svg width="20" height="20" viewBox="0 0 20 20" fill="none" xmlns="http://www.w3.org/2000/svg">
<g clip-path="url(#clip0_2070_18896)">
<path d="M10 18.437C14.8325 18.437 18.75 14.5195 18.75 9.68701C18.75 4.85452 14.8325 0.937012 10 0.937012C5.16751 0.937012 1.25 4.85452 1.25 9.68701C1.25 14.5195 5.16751 18.437 10 18.437Z" fill="#FFC84D"/>
<path d="M7.7113 7.56224C8.29506 7.56224 8.7683 7.08901 8.7683 6.50524C8.7683 5.92148 8.29506 5.44824 7.7113 5.44824C7.12753 5.44824 6.6543 5.92148 6.6543 6.50524C6.6543 7.08901 7.12753 7.56224 7.7113 7.56224Z" fill="black"/>
<path d="M12.2894 7.56224C12.8732 7.56224 13.3464 7.08901 13.3464 6.50524C13.3464 5.92148 12.8732 5.44824 12.2894 5.44824C11.7057 5.44824 11.2324 5.92148 11.2324 6.50524C11.2324 7.08901 11.7057 7.56224 12.2894 7.56224Z" fill="black"/>
<path d="M11.9033 12.5532L9.79882 12.5752C8.97282 12.5837 8.28082 13.2027 8.18032 14.0227L7.71782 17.7957C7.65632 18.2982 8.01382 18.7552 8.51582 18.8167L10.4683 19.0562C10.7603 19.0922 11.0513 18.9857 11.2513 18.7702L13.4368 16.4162C13.9353 15.8757 14.0743 15.0952 13.7928 14.4157L13.5358 13.7957C13.2548 13.1177 12.6308 12.6432 11.9023 12.5537L11.9033 12.5532Z" fill="#FF9210"/>
<path d="M10.8227 14.3223H9.17924V9.96977C9.17924 9.51627 9.54724 9.14777 10.0012 9.14777C10.4547 9.14777 10.8232 9.51577 10.8232 9.96977V14.3223H10.8227Z" fill="#FF9210"/>
</g>
<defs>
<clipPath id="clip0_2070_18896">
<rect width="20" height="20" fill="white"/>
</clipPath>
</defs>
</svg>
