<svg width="20" height="20" viewBox="0 0 20 20" fill="none" xmlns="http://www.w3.org/2000/svg">
<g clip-path="url(#clip0_2070_18903)">
<path d="M10 18.75C14.8325 18.75 18.75 14.8325 18.75 10C18.75 5.16751 14.8325 1.25 10 1.25C5.16751 1.25 1.25 5.16751 1.25 10C1.25 14.8325 5.16751 18.75 10 18.75Z" fill="#FFC84D"/>
<path d="M9.99958 12.1993C7.81358 12.1993 6.32008 11.7208 5.64658 11.4478C5.45658 11.3708 5.28008 11.5758 5.37708 11.7563C5.89708 12.7223 7.83108 13.6843 9.99958 13.6843C12.1681 13.6843 14.1021 12.7223 14.6221 11.7563C14.7191 11.5758 14.5431 11.3708 14.3526 11.4478C13.6791 11.7203 12.1856 12.1993 9.99958 12.1993Z" fill="#FF6D00"/>
<path d="M8.92761 8.62462C9.05611 8.67462 9.18811 8.55562 9.14911 8.42362C8.93211 7.69012 8.24061 7.18562 7.47111 7.25312C6.70161 7.32062 6.10811 7.93762 6.02161 8.69762C6.00611 8.83462 6.15661 8.92862 6.27461 8.85712C6.53161 8.70112 6.97411 8.49412 7.57511 8.44162C8.17611 8.38912 8.64811 8.51612 8.92811 8.62512L8.92761 8.62462Z" fill="black"/>
<path d="M11.5722 8.62462C11.4437 8.67462 11.3117 8.55562 11.3507 8.42362C11.5677 7.69012 12.2592 7.18562 13.0287 7.25312C13.7982 7.32062 14.3917 7.93762 14.4782 8.69762C14.4937 8.83462 14.3432 8.92862 14.2252 8.85712C13.9682 8.70112 13.5257 8.49412 12.9247 8.44162C12.3237 8.38912 11.8517 8.51612 11.5717 8.62512L11.5722 8.62462Z" fill="black"/>
<path d="M11.7285 13.4801V15.6761C11.7285 16.6996 12.7975 17.3516 13.7215 16.9121C13.7305 16.9076 13.7395 16.9036 13.7485 16.8991C14.2205 16.6726 14.512 16.1856 14.512 15.6626V11.9321C14.0575 12.5681 13.0155 13.1751 11.7285 13.4801Z" fill="white"/>
</g>
<defs>
<clipPath id="clip0_2070_18903">
<rect width="20" height="20" fill="white"/>
</clipPath>
</defs>
</svg>
