<svg width="20" height="20" viewBox="0 0 20 20" fill="none" xmlns="http://www.w3.org/2000/svg">
<g clip-path="url(#clip0_2070_18904)">
<path d="M12.977 17.901C11.0275 17.901 9.5 15.738 9.5 12.976V8.52148C9.5 8.24498 9.7235 8.02148 10 8.02148C10.2765 8.02148 10.5 8.24498 10.5 8.52148V12.976C10.5 15.1035 11.6345 16.901 12.977 16.901C13.2535 16.901 13.477 17.1245 13.477 17.401C13.477 17.6775 13.2535 17.901 12.977 17.901Z" fill="#23B169"/>
<path d="M0.852539 3.2404C2.45054 2.3199 4.74954 2.3659 6.77904 3.5374C8.80804 4.7089 9.99804 6.6774 9.99954 8.5214C8.40154 9.4419 6.10204 9.3959 4.07304 8.2244C2.04404 7.0529 0.854039 5.0844 0.852539 3.2404Z" fill="#68C76F"/>
<path d="M19.147 3.2404C17.549 2.3199 15.25 2.3659 13.2205 3.5374C11.1915 4.7089 10.0015 6.6774 10 8.5214C11.598 9.4419 13.8975 9.3959 15.9265 8.2244C17.9555 7.0529 19.1455 5.0844 19.147 3.2404Z" fill="#68C76F"/>
</g>
<defs>
<clipPath id="clip0_2070_18904">
<rect width="20" height="20" fill="white"/>
</clipPath>
</defs>
</svg>
