<svg width="20" height="20" viewBox="0 0 20 20" fill="none" xmlns="http://www.w3.org/2000/svg">
<g clip-path="url(#clip0_2070_18901)">
<path d="M10 0.704102C11.1795 0.704102 11.157 1.1361 11.9515 1.1781C12.746 1.2206 13.1615 0.970602 13.698 1.0496C14.071 1.1046 14.3515 1.2711 14.5455 1.4346C14.7575 1.6136 14.7925 1.9251 14.6235 2.1451L12.7755 4.5461C12.611 4.7416 12.631 5.0311 12.824 5.1981C15.7 7.6896 19.25 10.6861 19.25 13.3766C19.25 17.8976 15.539 19.2966 10 19.2966C4.461 19.2966 0.75 17.8976 0.75 13.3766C0.75 10.6866 4.3 7.6896 7.176 5.1981C7.369 5.0311 7.389 4.7411 7.2245 4.5461L5.3765 2.1451C5.2075 1.9251 5.2425 1.6136 5.4545 1.4346C5.6485 1.2711 5.929 1.1046 6.302 1.0496C6.8385 0.970602 7.2545 1.2206 8.0485 1.1781C8.843 1.1356 8.8205 0.704102 10 0.704102Z" fill="#FFC522"/>
<path d="M10.0412 5.69278C9.07072 5.69278 8.09822 5.60178 7.14922 5.42078C6.84672 5.36278 6.64872 5.07078 6.70622 4.76828C6.76422 4.46578 7.05672 4.26628 7.35872 4.32478C9.11822 4.66028 10.9677 4.66178 12.7072 4.32478C13.0092 4.26428 13.3022 4.46378 13.3607 4.76628C13.4192 5.06878 13.2212 5.36128 12.9187 5.41978C11.9802 5.60128 11.0122 5.69228 10.0412 5.69228V5.69278Z" fill="#99452E"/>
<path d="M10.1203 15.9623C8.8363 15.9623 7.8588 15.2023 7.4498 14.6808C7.2113 14.3763 7.2648 13.9363 7.5693 13.6978C7.8723 13.4608 8.3093 13.5123 8.5488 13.8133C8.6458 13.9328 9.5238 14.9538 10.9003 14.4038C11.2348 14.2703 11.3873 14.0283 11.3648 13.8578C11.3308 13.5973 10.8968 13.2858 10.0048 13.1788C7.8048 12.9148 7.4733 11.6678 7.4238 11.2913C7.3128 10.4413 7.8488 9.62633 8.7578 9.26333C10.5968 8.53033 11.9388 9.51533 12.4303 9.97283C12.7133 10.2358 12.7288 10.6793 12.4653 10.9623C12.2013 11.2448 11.7593 11.2608 11.4758 10.9973C11.0263 10.5783 10.2793 10.1638 9.2763 10.5643C8.9418 10.6978 8.7893 10.9398 8.8118 11.1103C8.8458 11.3708 9.2793 11.6823 10.1713 11.7893C12.3713 12.0533 12.7028 13.3003 12.7523 13.6763C12.8638 14.5263 12.3273 15.3413 11.4188 15.7043C10.9608 15.8868 10.5248 15.9628 10.1198 15.9628L10.1203 15.9623Z" fill="#FFF3CC"/>
<path d="M10.0887 10.4019C9.70217 10.4019 9.38867 10.0889 9.38867 9.70238V8.70438C9.38867 8.31788 9.70217 8.00488 10.0887 8.00488C10.4752 8.00488 10.7887 8.31788 10.7887 8.70438V9.70238C10.7887 10.0889 10.4752 10.4019 10.0887 10.4019Z" fill="#FFF3CC"/>
<path d="M10.0887 16.9634C9.70217 16.9634 9.38867 16.6504 9.38867 16.2639V15.2659C9.38867 14.8794 9.70217 14.5664 10.0887 14.5664C10.4752 14.5664 10.7887 14.8794 10.7887 15.2659V16.2639C10.7887 16.6504 10.4752 16.9634 10.0887 16.9634Z" fill="#FFF3CC"/>
</g>
<defs>
<clipPath id="clip0_2070_18901">
<rect width="20" height="20" fill="white"/>
</clipPath>
</defs>
</svg>
