<svg width="20" height="20" viewBox="0 0 20 20" fill="none" xmlns="http://www.w3.org/2000/svg">
<g clip-path="url(#clip0_2070_18902)">
<path d="M13.8418 7.9462H19.2503L16.0653 2.3042H16.0648L13.8418 7.9462Z" fill="#7D9DFF"/>
<path d="M3.935 2.3042L0.75 7.9462H6.1585L3.935 2.3042Z" fill="#7D9DFF"/>
<path d="M13.8412 7.94629H6.1582L9.9997 17.6963L13.8412 7.94629Z" fill="#7D9DFF"/>
<path d="M6.1582 7.9462H13.8412L9.9997 2.3042L6.1582 7.9462Z" fill="#5A81FF"/>
<path d="M0.75 7.94629L10 17.6963L6.1585 7.94629H0.75Z" fill="#A8BFFF"/>
<path d="M13.8415 7.94629L10 17.6963L19.25 7.94629H13.8415Z" fill="#A8BFFF"/>
<path d="M9.99957 2.3042H3.93457L6.15807 7.9462L9.99957 2.3042Z" fill="#A8BFFF"/>
<path d="M13.8415 7.9462L16.0645 2.3042H10L13.8415 7.9462Z" fill="#A8BFFF"/>
</g>
<defs>
<clipPath id="clip0_2070_18902">
<rect width="20" height="20" fill="white"/>
</clipPath>
</defs>
</svg>
