<svg width="20" height="20" viewBox="0 0 20 20" fill="none" xmlns="http://www.w3.org/2000/svg">
<g clip-path="url(#clip0_2070_24179)">
<path d="M16.4689 13.9543C16.6929 13.8728 16.8919 13.7193 17.0209 13.4968C17.1544 13.2658 17.1859 13.0063 17.1369 12.7643C17.3434 12.6448 17.5129 12.4593 17.6009 12.2178C17.6919 11.9673 17.6779 11.7063 17.5879 11.4763C17.7704 11.3228 17.9049 11.1108 17.9499 10.8573C17.9959 10.5948 17.9374 10.3398 17.8084 10.1293C17.9614 9.94683 18.0574 9.71433 18.0574 9.45733C18.0574 9.19083 17.9549 8.95033 17.7914 8.76483C17.9104 8.55833 17.9644 8.31283 17.9199 8.05983C17.8734 7.79733 17.7309 7.57833 17.5379 7.42383C17.6194 7.19983 17.6299 6.94883 17.5419 6.70683C17.4509 6.45633 17.2724 6.26533 17.0554 6.14683C17.0964 5.91183 17.0634 5.66283 16.9349 5.44033C16.8014 5.20933 16.5929 5.05233 16.3584 4.97333C16.3584 4.73483 16.2824 4.49533 16.1169 4.29833C15.9454 4.09433 15.7124 3.97583 15.4679 3.93883C15.4264 3.70383 15.3099 3.48133 15.1129 3.31583C14.9089 3.14433 14.6584 3.06833 14.4114 3.07433C14.3299 2.85033 14.1764 2.65133 13.9539 2.52283C13.7229 2.38933 13.4634 2.35783 13.2214 2.40683C13.1019 2.20033 12.9164 2.03083 12.6749 1.94283C12.4244 1.85183 12.1634 1.86533 11.9334 1.95583C11.7799 1.77333 11.5679 1.63883 11.3144 1.59383C11.0519 1.54733 10.7974 1.60633 10.5864 1.73533C10.4039 1.58233 10.1714 1.48633 9.91386 1.48633C9.64736 1.48633 9.40686 1.58883 9.22136 1.75233C9.01486 1.63333 8.76936 1.57933 8.51636 1.62383C8.25386 1.67033 8.03486 1.81283 7.88036 2.00583C7.65636 1.92433 7.40486 1.91383 7.16336 2.00183C6.91286 2.09283 6.72186 2.27133 6.60336 2.48833C6.36836 2.44733 6.11936 2.48033 5.89686 2.60883C5.66586 2.74233 5.50886 2.95083 5.42986 3.18533C5.19136 3.18533 4.95186 3.26133 4.75486 3.42683C4.55086 3.59833 4.43236 3.83133 4.39536 4.07583C4.16086 4.11733 3.93786 4.23383 3.77286 4.43083C3.60136 4.63483 3.52536 4.88533 3.53136 5.13233C3.30736 5.21383 3.10836 5.36733 2.97986 5.58983C2.84636 5.82083 2.81486 6.08033 2.86386 6.32233C2.65736 6.44183 2.48786 6.62733 2.39986 6.86883C2.30886 7.11933 2.32236 7.38033 2.41286 7.61033C2.23036 7.76383 2.09586 7.97583 2.05086 8.22933C2.00436 8.49183 2.06336 8.74633 2.19236 8.95733C2.03936 9.13983 1.94336 9.37233 1.94336 9.62933C1.94336 9.89583 2.04586 10.1363 2.20886 10.3218C2.08986 10.5283 2.03586 10.7738 2.08036 11.0268C2.12636 11.2893 2.26936 11.5083 2.46236 11.6628C2.38086 11.8868 2.37036 12.1378 2.45836 12.3798C2.54936 12.6303 2.72786 12.8213 2.94486 12.9398C2.90386 13.1748 2.93686 13.4238 3.06536 13.6463C3.19886 13.8773 3.40736 14.0343 3.64186 14.1133C3.64186 14.3518 3.71786 14.5913 3.88336 14.7883C4.05486 14.9923 4.28786 15.1108 4.53236 15.1478L16.4694 13.9548L16.4689 13.9543Z" fill="#EBEBEB"/>
<path d="M7.70215 16.063H12.2981V17.6955C12.2981 18.1475 11.9311 18.514 11.4796 18.514H8.52115C8.06915 18.514 7.70265 18.147 7.70265 17.6955L7.70215 16.063Z" fill="#767676"/>
<path fill-rule="evenodd" clip-rule="evenodd" d="M18.1853 8.25C18.6608 8.25 19.0423 8.659 18.9968 9.1325C18.5533 13.7105 14.6948 17.289 10.0003 17.289C5.30577 17.289 1.44727 13.71 1.00377 9.1325C0.957766 8.659 1.33927 8.25 1.81527 8.25H18.1853Z" fill="#BABABA"/>
</g>
<defs>
<clipPath id="clip0_2070_24179">
<rect width="20" height="20" fill="white"/>
</clipPath>
</defs>
</svg>
