<svg width="20" height="20" viewBox="0 0 20 20" fill="none" xmlns="http://www.w3.org/2000/svg">
<path d="M19.1898 8.28477C19.1898 8.45977 19.0698 8.60977 18.8998 8.64977L16.2948 9.23477C15.6548 9.37476 15.1398 10.0348 15.0198 10.8648L14.5548 14.1098C14.5248 14.2948 14.3698 14.4298 14.1798 14.4298C13.9948 14.4298 13.8348 14.2948 13.8098 14.1098L13.3398 10.8648C13.2198 10.0348 12.7098 9.37476 12.0698 9.23477L9.4648 8.64977C9.2948 8.60977 9.1748 8.45977 9.1748 8.28477C9.1748 8.10977 9.2948 7.95477 9.4648 7.91477L12.0698 7.33477C12.7098 7.18977 13.2198 6.53477 13.3398 5.69977L13.8098 2.45477C13.8348 2.26977 13.9948 2.13477 14.1798 2.13477C14.3698 2.13477 14.5248 2.26977 14.5548 2.45477L15.0198 5.69977C15.0798 6.11977 15.2398 6.48977 15.4598 6.77477C15.6848 7.05977 15.9748 7.25977 16.2948 7.33477L18.8998 7.91477C19.0698 7.95477 19.1898 8.10977 19.1898 8.28477Z" fill="#FFCD00"/>
<path d="M11.0698 14.2998C11.0698 14.4748 10.9498 14.6248 10.7748 14.6648L8.95484 15.0698C8.55484 15.1648 8.22984 15.5848 8.14984 16.1198L7.82484 18.3898C7.79984 18.5748 7.63984 18.7098 7.45484 18.7098C7.26484 18.7098 7.10984 18.5748 7.08484 18.3898L6.75484 16.1198C6.67484 15.5848 6.35484 15.1648 5.94984 15.0698L4.12984 14.6648C3.95984 14.6248 3.83984 14.4748 3.83984 14.2998C3.83984 14.1248 3.95984 13.9698 4.12984 13.9298L5.94984 13.5248C6.35484 13.4348 6.67484 13.0098 6.75484 12.4748L7.08484 10.2048C7.10984 10.0198 7.26484 9.88477 7.45484 9.88477C7.63984 9.88477 7.79984 10.0198 7.82484 10.2048L8.14984 12.4748C8.22984 13.0098 8.55484 13.4348 8.95484 13.5248L10.7748 13.9298C10.9498 13.9698 11.0698 14.1248 11.0698 14.2998Z" fill="#FFCD00"/>
<path d="M7.39008 5.87502C7.39008 6.05002 7.27008 6.20002 7.10008 6.24002L5.64508 6.56502C5.35008 6.63002 5.11508 6.94502 5.06008 7.34502L4.79508 9.16002C4.77008 9.34002 4.61008 9.48002 4.42508 9.48002C4.24008 9.48002 4.08008 9.34002 4.05508 9.16002L3.79008 7.34502C3.73508 6.94502 3.50008 6.63002 3.20508 6.56502L1.75008 6.24002C1.58008 6.20002 1.45508 6.05002 1.45508 5.87502C1.45508 5.70002 1.58008 5.54502 1.75008 5.51002L3.20508 5.18002C3.50008 5.11502 3.73508 4.80502 3.79008 4.40502L4.05508 2.59002C4.08008 2.40502 4.24008 2.27002 4.42508 2.27002C4.61008 2.27002 4.77008 2.40502 4.79508 2.59002L5.06008 4.40502C5.11508 4.80502 5.35008 5.11502 5.64508 5.18002L7.10008 5.51002C7.27008 5.54502 7.39008 5.70002 7.39008 5.87502Z" fill="#FFCD00"/>
</svg>
