<svg width="20" height="20" viewBox="0 0 20 20" fill="none" xmlns="http://www.w3.org/2000/svg">
<path d="M11.4402 6.29773C11.3907 6.00923 11.4597 5.71073 11.6342 5.47623C11.7532 5.31673 11.8592 5.23523 11.8592 5.23523C12.4922 4.67073 12.6912 3.89223 12.7472 3.58623C12.7562 3.53673 12.8177 3.52023 12.8507 3.55823C13.0912 3.83823 13.8422 4.60323 14.9972 4.77473C16.0972 4.93823 16.6132 5.66873 16.4662 6.52123C16.2642 7.30473 15.7292 7.93923 15.0337 8.26773C15.3477 8.34623 15.6482 8.45473 15.9292 8.59573C16.5492 8.49423 16.9162 8.35123 17.1207 8.22723C17.2862 8.12673 17.3902 7.94923 17.3947 7.75523C17.4337 6.08723 17.1867 4.64773 16.9377 3.96773C16.6027 3.05523 15.6032 2.04673 14.2942 1.91073C12.9852 1.77473 12.3987 2.62473 12.3987 2.62473C10.2652 3.55973 10.6667 7.97123 10.6667 7.97123C10.6667 7.97123 10.7737 8.36423 12.0117 8.58323C12.2932 8.44473 12.5937 8.33723 12.9082 8.26073C12.1542 7.89923 11.5912 7.17623 11.4402 6.29723V6.29773Z" fill="#FF8800"/>
<path d="M15.9295 8.59623C15.6485 8.45523 15.348 8.34673 15.034 8.26823C14.7105 8.42123 14.3555 8.51423 13.977 8.51423C13.594 8.51423 13.235 8.41823 12.908 8.26123C12.594 8.33773 12.293 8.44473 12.0115 8.58373C11.086 9.04023 10.3645 9.81123 9.99902 10.7472C10.1675 11.1792 10.264 11.6437 10.264 12.1307V18.1037H10.642C10.642 16.9807 11.325 16.0167 12.2985 15.6052C11.9115 15.3812 11.6 15.0447 11.418 14.6332C10.951 14.6322 10.5725 14.2767 10.5725 13.8382C10.5725 13.5772 10.708 13.3482 10.915 13.2027C10.911 13.0962 10.913 12.9882 10.9235 12.8782C11.031 11.7372 11.9435 10.8107 13.083 10.6887C14.5645 10.5297 15.816 11.7172 15.7945 13.1712C15.7735 13.1712 15.757 13.1667 15.7365 13.1662C15.975 13.3067 16.1345 13.5542 16.1345 13.8382C16.1345 14.2767 15.756 14.6322 15.289 14.6332C15.107 15.0447 14.795 15.3817 14.4085 15.6052C15.382 16.0167 16.065 16.9802 16.065 18.1037H18.181V12.1307C18.181 10.5972 17.2685 9.26673 15.93 8.59573L15.9295 8.59623Z" fill="#482EC4"/>
<path d="M16.4665 6.52198C16.6135 5.66948 16.0975 4.93848 14.9975 4.77548C13.8425 4.60398 13.0915 3.83898 12.851 3.55898C12.8185 3.52098 12.7565 3.53748 12.7475 3.58698C12.6915 3.89298 12.4925 4.67148 11.8595 5.23598C11.8595 5.23598 11.7535 5.31698 11.6345 5.47698C11.4595 5.71148 11.391 6.01048 11.4405 6.29848C11.5915 7.17748 12.1545 7.90048 12.9085 8.26198C13.2355 8.41848 13.594 8.51498 13.9775 8.51498C14.356 8.51498 14.711 8.42198 15.0345 8.26898C15.73 7.93998 16.265 7.30548 16.467 6.52248L16.4665 6.52198ZM14.715 5.37998C14.8735 5.37998 15.002 5.53398 15.002 5.72398C15.002 5.91398 14.8735 6.06798 14.715 6.06798C14.5565 6.06798 14.428 5.91398 14.428 5.72398C14.428 5.53398 14.5565 5.37998 14.715 5.37998ZM13.6005 7.23648H14.315C14.3795 7.23648 14.425 7.29848 14.408 7.36048C14.354 7.55798 14.173 7.70348 13.958 7.70348C13.743 7.70348 13.562 7.55798 13.508 7.36048C13.491 7.29848 13.536 7.23648 13.6005 7.23648ZM13.2005 5.37998C13.359 5.37998 13.4875 5.53398 13.4875 5.72398C13.4875 5.91398 13.359 6.06798 13.2005 6.06798C13.042 6.06798 12.9135 5.91398 12.9135 5.72398C12.9135 5.53398 13.042 5.37998 13.2005 5.37998Z" fill="#FFC84D"/>
<path d="M13.2001 6.06788C13.3586 6.06788 13.4871 5.91387 13.4871 5.72388C13.4871 5.5339 13.3586 5.37988 13.2001 5.37988C13.0416 5.37988 12.9131 5.5339 12.9131 5.72388C12.9131 5.91387 13.0416 6.06788 13.2001 6.06788Z" fill="black"/>
<path d="M14.7147 6.06788C14.8732 6.06788 15.0017 5.91388 15.0017 5.72388C15.0017 5.53388 14.8732 5.37988 14.7147 5.37988C14.5562 5.37988 14.4277 5.53388 14.4277 5.72388C14.4277 5.91388 14.5562 6.06788 14.7147 6.06788Z" fill="black"/>
<path d="M13.958 7.70284C14.173 7.70284 14.354 7.55734 14.408 7.35984C14.425 7.29784 14.3795 7.23584 14.315 7.23584H13.6005C13.536 7.23584 13.4905 7.29784 13.5075 7.35984C13.562 7.55734 13.743 7.70284 13.958 7.70284Z" fill="#5C2F17"/>
<path d="M9.99986 10.747C9.56286 9.627 8.61436 8.745 7.42086 8.354C7.01686 8.6315 6.54686 8.7935 6.04186 8.7935C5.53686 8.7935 5.06686 8.6315 4.66286 8.354C3.00836 8.8955 1.81836 10.38 1.81836 12.1305V18.1035H3.93436C3.93436 16.9805 4.61736 16.0165 5.59086 15.605C5.20386 15.381 4.89236 15.0445 4.71036 14.633C4.24336 14.632 3.86486 14.2765 3.86486 13.838C3.86486 13.577 4.00036 13.348 4.20736 13.2025C4.20336 13.096 4.20536 12.988 4.21586 12.878C4.32336 11.737 5.23586 10.8105 6.37536 10.6885C7.85686 10.5295 9.10836 11.717 9.08686 13.171C9.06586 13.171 9.04936 13.1665 9.02886 13.166C9.26736 13.3065 9.42686 13.554 9.42686 13.838C9.42686 14.2765 9.04836 14.632 8.58136 14.633C8.39936 15.0445 8.08736 15.3815 7.70086 15.605C8.67436 16.0165 9.35736 16.98 9.35736 18.1035H10.2654V12.1305C10.2654 11.6435 10.1684 11.1785 9.99986 10.747Z" fill="#5268E9"/>
<path d="M9.08973 5.1752V5.2202L8.70473 5.5702C8.62973 5.6352 8.50973 5.59019 8.49973 5.4902C8.48473 5.31019 8.42473 5.0602 8.26973 4.8302C8.05473 4.5202 7.64973 4.2502 6.86473 4.2602C5.02973 4.2802 4.67473 3.2002 4.67473 3.2002C4.67473 3.2002 4.38473 4.1302 4.03473 4.8552C3.91473 5.0952 3.79473 5.3102 3.67473 5.4652C3.58473 5.5752 3.41973 5.5902 3.31473 5.4952L2.99473 5.2252V5.1702C2.82473 5.3502 2.71973 5.5802 2.71973 5.8402C2.71973 6.3152 3.06473 6.7052 3.52973 6.8202C3.74973 7.4652 4.14973 8.0052 4.66473 8.3552C5.06473 8.6302 5.53473 8.7952 6.03973 8.7952C6.54473 8.7952 7.01473 8.6302 7.41973 8.3552C7.92973 8.0052 8.33473 7.4652 8.54973 6.8202C9.01973 6.7052 9.36473 6.3152 9.36473 5.8402C9.36473 5.5852 9.25973 5.3502 9.08973 5.1752ZM5.28473 5.9802C5.12473 5.9802 4.99973 5.8252 4.99973 5.6352C4.99973 5.4452 5.12473 5.2902 5.28473 5.2902C5.44473 5.2902 5.56973 5.4452 5.56973 5.6352C5.56973 5.8252 5.44473 5.9802 5.28473 5.9802ZM6.03973 7.8652C5.82473 7.8652 5.64473 7.72019 5.58973 7.5202C5.57473 7.4602 5.61973 7.3952 5.68473 7.3952H6.39973C6.46473 7.3952 6.50973 7.4602 6.48973 7.5202C6.43973 7.72019 6.25473 7.8652 6.03973 7.8652ZM6.79973 5.9802C6.63973 5.9802 6.50973 5.8252 6.50973 5.6352C6.50973 5.4452 6.63973 5.2902 6.79973 5.2902C6.95973 5.2902 7.08473 5.4452 7.08473 5.6352C7.08473 5.8252 6.95973 5.9802 6.79973 5.9802Z" fill="#FFC84D"/>
<path d="M5.28407 5.97853C5.44257 5.97853 5.57107 5.82453 5.57107 5.63453C5.57107 5.44453 5.44257 5.29053 5.28407 5.29053C5.12557 5.29053 4.99707 5.44453 4.99707 5.63453C4.99707 5.82453 5.12557 5.97853 5.28407 5.97853Z" fill="black"/>
<path d="M6.7997 5.97853C6.9582 5.97853 7.0867 5.82451 7.0867 5.63453C7.0867 5.44454 6.9582 5.29053 6.7997 5.29053C6.64119 5.29053 6.5127 5.44454 6.5127 5.63453C6.5127 5.82451 6.64119 5.97853 6.7997 5.97853Z" fill="black"/>
<path d="M3.31463 5.49654C3.42213 5.58804 3.58613 5.57604 3.67363 5.46504C3.79513 5.31004 3.91763 5.09304 4.03363 4.85404C4.38563 4.12754 4.67463 3.19804 4.67463 3.19804C4.67463 3.19804 5.02963 4.28154 6.86763 4.25804C7.64863 4.24804 8.05413 4.51804 8.27013 4.83004C8.42813 5.05804 8.48763 5.30804 8.50263 5.49104C8.51113 5.59054 8.62963 5.63654 8.70363 5.56954L9.09163 5.21854C9.09163 5.21854 9.09263 5.19954 9.09363 5.17254C9.09813 5.04304 9.10063 4.62704 8.98913 4.09004C8.85463 3.44154 8.08363 2.31554 6.65163 2.02204C5.21963 1.72804 4.37513 2.65354 4.37513 2.65354C2.95063 3.00554 2.97863 4.83854 2.99513 5.16954C2.99663 5.20254 2.99863 5.22604 2.99863 5.22604L3.31563 5.49654H3.31463Z" fill="#FF8800"/>
<path d="M6.04211 7.8625C6.25711 7.8625 6.43761 7.7175 6.49211 7.52C6.50911 7.458 6.46361 7.396 6.39911 7.396H5.68561C5.62111 7.396 5.57511 7.458 5.59261 7.52C5.64711 7.7175 5.82761 7.8625 6.04261 7.8625H6.04211Z" fill="#5C2F17"/>
<path d="M14.4096 15.6055C14.0981 15.786 13.7411 15.897 13.3546 15.897C12.9681 15.897 12.6116 15.786 12.3001 15.6055C11.3266 16.017 10.6436 16.9805 10.6436 18.104H16.0661C16.0661 16.981 15.3831 16.017 14.4096 15.6055Z" fill="#64A7FF"/>
<path d="M15.7352 13.1649C15.4902 13.1599 15.2852 13.1199 15.1102 13.0599C14.4702 12.8449 14.2502 12.3799 14.2502 12.3799C14.2502 12.3799 13.8202 12.8849 13.3552 12.8849C12.8852 12.8849 12.4152 12.3799 12.4152 12.3799C12.1302 12.7399 11.8352 12.9399 11.5802 13.0599C11.2002 13.2349 10.9152 13.2199 10.9152 13.2199V13.2049C10.7102 13.3499 10.5752 13.5749 10.5752 13.8399C10.5752 14.2749 10.9502 14.6299 11.4202 14.6349C11.6002 15.0449 11.9102 15.3799 12.3002 15.6049C12.6102 15.7849 12.9702 15.8949 13.3552 15.8949C13.7402 15.8949 14.0952 15.7849 14.4102 15.6049C14.7952 15.3799 15.1052 15.0449 15.2902 14.6349C15.7552 14.6299 16.1352 14.2749 16.1352 13.8399C16.1352 13.5549 15.9752 13.3049 15.7352 13.1649ZM12.7602 13.9449C12.6352 13.9449 12.5352 13.8249 12.5352 13.6749C12.5352 13.5249 12.6352 13.4049 12.7602 13.4049C12.8852 13.4049 12.9852 13.5249 12.9852 13.6749C12.9852 13.8249 12.8852 13.9449 12.7602 13.9449ZM13.3552 15.1099C13.1852 15.1099 13.0452 14.9949 13.0002 14.8399C12.9852 14.7899 13.0252 14.7449 13.0752 14.7449H13.6352C13.6852 14.7449 13.7202 14.7899 13.7102 14.8399C13.6652 14.9949 13.5252 15.1099 13.3552 15.1099ZM13.9502 13.9449C13.8252 13.9449 13.7252 13.8249 13.7252 13.6749C13.7252 13.5249 13.8252 13.4049 13.9502 13.4049C14.0752 13.4049 14.1752 13.5249 14.1752 13.6749C14.1752 13.8249 14.0752 13.9449 13.9502 13.9449Z" fill="#FFC84D"/>
<path d="M12.7597 13.9468C12.8842 13.9468 12.9852 13.8258 12.9852 13.6763C12.9852 13.5268 12.8842 13.4058 12.7597 13.4058C12.6352 13.4058 12.5342 13.5268 12.5342 13.6763C12.5342 13.8258 12.6352 13.9468 12.7597 13.9468Z" fill="black"/>
<path d="M13.9491 13.9468C14.0736 13.9468 14.1746 13.8258 14.1746 13.6763C14.1746 13.5268 14.0736 13.4058 13.9491 13.4058C13.8246 13.4058 13.7236 13.5268 13.7236 13.6763C13.7236 13.8258 13.8246 13.9468 13.9491 13.9468Z" fill="black"/>
<path d="M13.3544 15.1097C13.5234 15.1097 13.6654 14.9957 13.7079 14.8407C13.7214 14.7917 13.6854 14.7432 13.6349 14.7432H13.0739C13.0234 14.7432 12.9874 14.7917 13.0009 14.8407C13.0434 14.9957 13.1859 15.1097 13.3544 15.1097Z" fill="#5C2F17"/>
<path d="M11.5813 13.0581C11.8363 12.9396 12.1323 12.7376 12.4168 12.3811C12.4168 12.3811 12.8863 12.8871 13.3543 12.8871C13.8223 12.8871 14.2498 12.3811 14.2498 12.3811C14.2498 12.3811 14.4688 12.8461 15.1078 13.0621C15.2838 13.1216 15.4923 13.1606 15.7373 13.1671C15.7578 13.1671 15.7743 13.1721 15.7953 13.1721C15.8168 11.7181 14.5658 10.5306 13.0838 10.6896C11.9443 10.8121 11.0318 11.7381 10.9243 12.8791C10.9138 12.9886 10.9123 13.0971 10.9158 13.2036C10.9158 13.2096 10.9148 13.2161 10.9158 13.2226C10.9158 13.2226 11.2018 13.2356 11.5818 13.0586L11.5813 13.0581Z" fill="#FF8800"/>
<path d="M7.70155 15.6055C7.39005 15.786 7.03305 15.897 6.64705 15.897C6.26105 15.897 5.90405 15.786 5.59205 15.6055C4.61855 16.017 3.93555 16.9805 3.93555 18.104H9.35805C9.35805 16.981 8.67505 16.017 7.70155 15.6055Z" fill="#64A7FF"/>
<path d="M9.03023 13.1649C8.78523 13.1599 8.57523 13.1199 8.40023 13.0599C7.76023 12.8449 7.54023 12.3799 7.54023 12.3799C7.54023 12.3799 7.11523 12.8849 6.64523 12.8849C6.18023 12.8849 5.71023 12.3799 5.71023 12.3799C5.42523 12.7399 5.13023 12.9399 4.87523 13.0599C4.49523 13.2349 4.20523 13.2199 4.20523 13.2199C4.20523 13.2149 4.21023 13.2099 4.21023 13.2049C4.00023 13.3499 3.86523 13.5749 3.86523 13.8399C3.86523 14.2749 4.24523 14.6299 4.71023 14.6349C4.89523 15.0449 5.20523 15.3799 5.59023 15.6049C5.90523 15.7849 6.26023 15.8949 6.64523 15.8949C7.03023 15.8949 7.39023 15.7849 7.70023 15.6049C8.09023 15.3799 8.40023 15.0449 8.58023 14.6349C9.05023 14.6299 9.42523 14.2749 9.42523 13.8399C9.42523 13.5549 9.26523 13.3049 9.03023 13.1649ZM6.05023 13.9449C5.92523 13.9449 5.82523 13.8249 5.82523 13.6749C5.82523 13.5249 5.92523 13.4049 6.05023 13.4049C6.17523 13.4049 6.27523 13.5249 6.27523 13.6749C6.27523 13.8249 6.17523 13.9449 6.05023 13.9449ZM6.64523 15.1099C6.47523 15.1099 6.33523 14.9949 6.29023 14.8399C6.28023 14.7899 6.31523 14.7449 6.36523 14.7449H6.92523C6.97523 14.7449 7.01523 14.7899 7.00023 14.8399C6.95523 14.9949 6.81523 15.1099 6.64523 15.1099ZM7.24023 13.9449C7.11523 13.9449 7.01523 13.8249 7.01523 13.6749C7.01523 13.5249 7.11523 13.4049 7.24023 13.4049C7.36523 13.4049 7.46523 13.5249 7.46523 13.6749C7.46523 13.8249 7.36523 13.9449 7.24023 13.9449Z" fill="#FFC84D"/>
<path d="M6.05167 13.9468C6.17617 13.9468 6.27717 13.8258 6.27717 13.6763C6.27717 13.5268 6.17617 13.4058 6.05167 13.4058C5.92717 13.4058 5.82617 13.5268 5.82617 13.6763C5.82617 13.8258 5.92717 13.9468 6.05167 13.9468Z" fill="black"/>
<path d="M7.24113 13.9468C7.36563 13.9468 7.46662 13.8258 7.46662 13.6763C7.46662 13.5268 7.36563 13.4058 7.24113 13.4058C7.11663 13.4058 7.01562 13.5268 7.01562 13.6763C7.01562 13.8258 7.11663 13.9468 7.24113 13.9468Z" fill="black"/>
<path d="M6.6464 15.1097C6.8154 15.1097 6.9574 14.9957 6.9999 14.8407C7.0134 14.7917 6.9774 14.7432 6.9269 14.7432H6.3659C6.3154 14.7432 6.2794 14.7917 6.2929 14.8407C6.3354 14.9957 6.4779 15.1097 6.6464 15.1097Z" fill="#5C2F17"/>
<path d="M4.87325 13.0581C5.12825 12.9396 5.42425 12.7376 5.70875 12.3811C5.70875 12.3811 6.17825 12.8871 6.64625 12.8871C7.11425 12.8871 7.54175 12.3811 7.54175 12.3811C7.54175 12.3811 7.76075 12.8461 8.39975 13.0621C8.57575 13.1216 8.78425 13.1606 9.02925 13.1671C9.04975 13.1671 9.06625 13.1721 9.08725 13.1721C9.10875 11.7181 7.85725 10.5306 6.37575 10.6896C5.23625 10.8121 4.32375 11.7381 4.21625 12.8791C4.20575 12.9886 4.20425 13.0971 4.20775 13.2036C4.20775 13.2096 4.20675 13.2161 4.20775 13.2226C4.20775 13.2226 4.49375 13.2356 4.87375 13.0586L4.87325 13.0581Z" fill="#FF8800"/>
</svg>
