<svg width="20" height="20" viewBox="0 0 20 20" fill="none" xmlns="http://www.w3.org/2000/svg">
<g clip-path="url(#clip0_2070_25075)">
<path d="M14.25 1.75H5.75C3.54086 1.75 1.75 3.54086 1.75 5.75V14.25C1.75 16.4591 3.54086 18.25 5.75 18.25H14.25C16.4591 18.25 18.25 16.4591 18.25 14.25V5.75C18.25 3.54086 16.4591 1.75 14.25 1.75Z" fill="#007FF2"/>
<path d="M14.1967 8.47936C14.1967 10.3034 12.7927 11.5279 10.7522 11.5279H9.20418V14.3959H7.28418V5.44336H11.0162C13.0082 5.44336 14.1967 6.64336 14.1967 8.47936ZM10.2002 9.91936C11.3522 9.91936 12.2162 9.52336 12.2162 8.47936C12.2162 7.44736 11.3762 7.03936 10.2602 7.03936H9.20418V9.91936H10.2002Z" fill="white"/>
</g>
<defs>
<clipPath id="clip0_2070_25075">
<rect width="20" height="20" fill="white"/>
</clipPath>
</defs>
</svg>
