<svg width="20" height="20" viewBox="0 0 20 20" fill="none" xmlns="http://www.w3.org/2000/svg">
<g clip-path="url(#clip0_2069_16622)">
<path d="M18.3441 11.6261C17.0651 14.3306 12.3136 14.0016 10.3036 13.8921C8.29358 13.7826 2.51908 12.4666 1.56858 10.3471C1.40458 9.98155 1.30908 9.62005 1.27058 9.26855H1.26758L1.47508 12.1181C1.56058 13.1781 2.13008 14.1541 3.04158 14.7016C5.15958 15.9746 8.79308 16.7376 10.3031 16.8196C12.1421 16.9201 16.2751 17.2036 17.9451 15.1806C18.2051 14.8656 18.3501 14.4711 18.3836 14.0641C18.4566 13.1741 18.6081 11.3206 18.6666 10.6076C18.6021 10.9566 18.4991 11.2981 18.3441 11.6261Z" fill="#FF8293"/>
<path d="M10.1626 12.4477C11.5536 12.5237 15.8551 12.8062 16.7291 10.9292C17.6666 8.91617 16.8471 6.35467 15.6551 5.23817C14.3631 4.02817 12.2876 4.50617 10.5931 5.64417C9.26159 6.53817 7.19659 6.74567 6.37259 6.79317C6.00959 6.81417 4.71359 7.04117 4.35609 7.10567C2.73909 7.39717 2.36509 8.56167 2.92409 9.80917C3.58159 11.2762 8.77209 12.3712 10.1631 12.4467L10.1626 12.4477ZM13.3136 6.38267C14.2146 6.38267 14.9446 6.94967 14.9446 7.64917C14.9446 8.34867 14.2146 8.91617 13.3136 8.91617C12.4126 8.91617 11.6826 8.34917 11.6826 7.64917C11.6826 6.94917 12.4126 6.38267 13.3136 6.38267Z" fill="#ED4E61"/>
<path d="M10.3043 13.8924C12.3143 14.0019 17.0653 14.3309 18.3448 11.6264C18.4998 11.2984 18.6038 10.9564 18.6678 10.6079C19.1343 8.08094 17.4408 5.17244 16.7663 4.24094C15.9988 3.18094 13.3738 2.41694 10.9253 4.06144C9.00128 5.35344 6.01678 5.65294 4.82628 5.72194C4.30178 5.75244 3.77728 5.84344 3.29628 6.05394C1.89528 6.66594 1.11978 7.88594 1.27178 9.26894C1.31028 9.62044 1.40578 9.98194 1.56978 10.3474C2.51978 12.4674 8.29428 13.7829 10.3048 13.8924H10.3043ZM4.35528 7.10644C4.71278 7.04194 6.00878 6.81494 6.37178 6.79394C7.19578 6.74644 9.26078 6.53894 10.5923 5.64494C12.2868 4.50694 14.3623 4.02844 15.6543 5.23894C16.8463 6.35544 17.6658 8.91694 16.7283 10.9299C15.8543 12.8064 11.5528 12.5239 10.1618 12.4484C8.77078 12.3724 3.58028 11.2774 2.92278 9.81094C2.36328 8.56344 2.73778 7.39894 4.35478 7.10744L4.35528 7.10644Z" fill="#FFA7B3"/>
<path d="M13.3126 8.91631C14.2136 8.91631 14.9436 8.34931 14.9436 7.64931C14.9436 6.94931 14.2136 6.38281 13.3126 6.38281C12.4116 6.38281 11.6816 6.94981 11.6816 7.64931C11.6816 8.34881 12.4116 8.91631 13.3126 8.91631Z" fill="#FFA7B3"/>
</g>
<defs>
<clipPath id="clip0_2069_16622">
<rect width="20" height="20" fill="white"/>
</clipPath>
</defs>
</svg>
