<svg width="20" height="20" viewBox="0 0 20 20" fill="none" xmlns="http://www.w3.org/2000/svg">
<g clip-path="url(#clip0_2718_16419)">
<path d="M14.7232 1.55227L13.8632 10.2503H12.4327L11.6577 5.50727C11.4632 3.65577 12.5202 1.90027 14.2472 1.20527C14.4852 1.10927 14.7417 1.29627 14.7232 1.55227Z" fill="#D5D5D5"/>
<path d="M6.64169 10.25L6.06469 17.9085C6.05319 18.4085 6.45519 18.8205 6.95569 18.8205H7.75669C8.25719 18.8205 8.65919 18.409 8.64769 17.9085L8.07219 10.25H6.64169Z" fill="#767676"/>
<path d="M12.4337 10.25L11.8567 17.9085C11.8452 18.4085 12.2472 18.8205 12.7477 18.8205H13.5487C14.0492 18.8205 14.4512 18.409 14.4397 17.9085L13.8642 10.25H12.4337Z" fill="#767676"/>
<path d="M8.04591 9.87119C8.04991 9.33219 8.47141 9.18119 8.47141 9.18119L8.46891 9.17869C8.48641 9.17019 8.50541 9.16569 8.52291 9.15669L9.57691 8.78269C10.1534 8.48819 10.5039 7.75569 10.4294 7.00169L9.68591 1.60419C9.65241 1.36119 9.44441 1.17969 9.19891 1.17969C8.92491 1.17969 8.70391 1.40369 8.70741 1.67719L8.76541 6.33069C8.76541 6.50369 8.68091 6.65919 8.54941 6.72619C8.46191 6.77119 8.36191 6.77119 8.27491 6.72619C8.14391 6.65919 8.05891 6.50419 8.05891 6.33069L7.97991 1.66269C7.97541 1.39469 7.75691 1.17969 7.48841 1.17969H7.22241C6.95441 1.17969 6.73541 1.39469 6.73091 1.66269L6.65191 6.33069C6.65191 6.50369 6.56741 6.65919 6.43541 6.72619C6.34891 6.77119 6.24841 6.77119 6.16091 6.72619C6.02991 6.65919 5.94491 6.50419 5.94491 6.33069L6.00341 1.67719C6.00691 1.40319 5.78591 1.17969 5.51191 1.17969C5.26641 1.17969 5.05841 1.36069 5.02491 1.60419L4.28141 7.00169C4.20691 7.75569 4.55791 8.48769 5.13391 8.78269L6.18791 9.15669C6.20491 9.16519 6.22291 9.16969 6.24041 9.17769L6.23741 9.18069C6.23741 9.18069 6.67841 9.33519 6.66491 9.90069L6.64041 10.2497H8.07091L8.04441 9.87069L8.04591 9.87119Z" fill="#D5D5D5"/>
</g>
<defs>
<clipPath id="clip0_2718_16419">
<rect width="20" height="20" fill="white"/>
</clipPath>
</defs>
</svg>
