<svg width="20" height="20" viewBox="0 0 20 20" fill="none" xmlns="http://www.w3.org/2000/svg">
<g clip-path="url(#clip0_2069_16616)">
<path d="M16.4679 13.9543C16.6919 13.8728 16.8909 13.7193 17.0199 13.4968C17.1534 13.2658 17.1849 13.0063 17.1359 12.7643C17.3424 12.6448 17.5119 12.4593 17.5999 12.2178C17.6909 11.9673 17.6769 11.7063 17.5869 11.4763C17.7694 11.3228 17.9039 11.1108 17.9489 10.8573C17.9949 10.5948 17.9364 10.3398 17.8074 10.1293C17.9604 9.94683 18.0564 9.71433 18.0564 9.45733C18.0564 9.19083 17.9539 8.95033 17.7904 8.76483C17.9094 8.55833 17.9634 8.31283 17.9189 8.05983C17.8724 7.79733 17.7299 7.57833 17.5369 7.42383C17.6184 7.19983 17.6289 6.94883 17.5409 6.70683C17.4499 6.45633 17.2714 6.26533 17.0544 6.14683C17.0954 5.91183 17.0624 5.66283 16.9339 5.44033C16.8004 5.20933 16.5919 5.05233 16.3574 4.97333C16.3574 4.73483 16.2814 4.49533 16.1159 4.29833C15.9444 4.09433 15.7114 3.97583 15.4669 3.93883C15.4254 3.70383 15.3089 3.48133 15.1119 3.31583C14.9079 3.14433 14.6574 3.06833 14.4104 3.07433C14.3289 2.85033 14.1754 2.65133 13.9529 2.52283C13.7219 2.38933 13.4624 2.35783 13.2204 2.40683C13.1009 2.20033 12.9154 2.03083 12.6739 1.94283C12.4234 1.85183 12.1624 1.86533 11.9324 1.95583C11.7789 1.77333 11.5669 1.63883 11.3134 1.59383C11.0509 1.54733 10.7964 1.60633 10.5854 1.73533C10.4029 1.58233 10.1704 1.48633 9.91288 1.48633C9.64638 1.48633 9.40588 1.58883 9.22038 1.75233C9.01388 1.63333 8.76838 1.57933 8.51538 1.62383C8.25288 1.67033 8.03388 1.81283 7.87938 2.00583C7.65538 1.92433 7.40388 1.91383 7.16238 2.00183C6.91188 2.09283 6.72088 2.27133 6.60238 2.48833C6.36738 2.44733 6.11838 2.48033 5.89588 2.60883C5.66488 2.74233 5.50788 2.95083 5.42888 3.18533C5.19038 3.18533 4.95088 3.26133 4.75388 3.42683C4.54988 3.59833 4.43138 3.83133 4.39438 4.07583C4.15988 4.11733 3.93688 4.23383 3.77188 4.43083C3.60038 4.63483 3.52438 4.88533 3.53038 5.13233C3.30638 5.21383 3.10738 5.36733 2.97888 5.58983C2.84538 5.82083 2.81388 6.08033 2.86288 6.32233C2.65638 6.44183 2.48688 6.62733 2.39888 6.86883C2.30788 7.11933 2.32138 7.38033 2.41188 7.61033C2.22938 7.76383 2.09488 7.97583 2.04988 8.22933C2.00338 8.49183 2.06238 8.74633 2.19138 8.95733C2.03838 9.13983 1.94238 9.37233 1.94238 9.62933C1.94238 9.89583 2.04488 10.1363 2.20788 10.3218C2.08888 10.5283 2.03488 10.7738 2.07938 11.0268C2.12538 11.2893 2.26838 11.5083 2.46138 11.6628C2.37988 11.8868 2.36938 12.1378 2.45738 12.3798C2.54838 12.6303 2.72688 12.8213 2.94388 12.9398C2.90288 13.1748 2.93588 13.4238 3.06438 13.6463C3.19788 13.8773 3.40638 14.0343 3.64088 14.1133C3.64088 14.3518 3.71688 14.5913 3.88238 14.7883C4.05388 14.9923 4.28688 15.1108 4.53138 15.1478L16.4684 13.9548L16.4679 13.9543Z" fill="#EBEBEB"/>
<path d="M7.70117 16.0625H12.2972V17.695C12.2972 18.147 11.9302 18.5135 11.4787 18.5135H8.52017C8.06817 18.5135 7.70167 18.1465 7.70167 17.695L7.70117 16.0625Z" fill="#767676"/>
<path fill-rule="evenodd" clip-rule="evenodd" d="M18.1843 8.25C18.6598 8.25 19.0413 8.659 18.9958 9.1325C18.5523 13.7105 14.6938 17.289 9.99929 17.289C5.30479 17.289 1.44629 13.71 1.00279 9.1325C0.956789 8.659 1.33829 8.25 1.81429 8.25H18.1843Z" fill="#BABABA"/>
</g>
<defs>
<clipPath id="clip0_2069_16616">
<rect width="20" height="20" fill="white"/>
</clipPath>
</defs>
</svg>
