<svg width="20" height="20" viewBox="0 0 20 20" fill="none" xmlns="http://www.w3.org/2000/svg">
<g clip-path="url(#clip0_2069_16610)">
<path d="M12.2819 2.43018L7.1294 13.6082C7.0459 13.7882 7.1229 14.0052 7.3014 14.0922C7.4304 14.1552 7.5804 14.1342 7.6879 14.0512C7.7289 14.0197 7.7634 13.9787 7.7889 13.9297L13.4299 2.99018L12.2819 2.43018Z" fill="#3D3D3D"/>
<path d="M14.4233 1.05088C14.4748 0.950381 14.4833 0.835881 14.4478 0.728381C14.4123 0.621381 14.3362 0.534881 14.2347 0.485881L13.7598 0.253881C13.6583 0.204381 13.5433 0.197881 13.4373 0.235881C13.3308 0.273381 13.2462 0.350881 13.1982 0.453381L12.2812 2.42988L13.4292 2.98988L14.4233 1.05088Z" fill="#EF4452"/>
<path d="M14.592 3.43115L7.93404 13.7832C7.82654 13.9497 7.87254 14.1757 8.03704 14.2862C8.15604 14.3667 8.30754 14.3667 8.42554 14.2992C8.47054 14.2737 8.51054 14.2377 8.54254 14.1932L15.6515 4.14565L14.5925 3.43115H14.592Z" fill="#3D3D3D"/>
<path d="M16.9048 2.36373C16.9698 2.27123 16.9943 2.15923 16.9738 2.04773C16.9533 1.93673 16.8903 1.84073 16.7968 1.77773L16.3588 1.48223C16.2648 1.41873 16.1523 1.39673 16.0418 1.41923C15.9308 1.44173 15.8368 1.50623 15.7748 1.60123L14.5918 3.43123L15.6508 4.14573L16.9048 2.36373Z" fill="#EF4452"/>
<path d="M15.347 18.2896H10V8.49512H17.4285L16.0825 17.6256C16.0435 18.0026 15.726 18.2896 15.347 18.2896Z" fill="#D0D5DA"/>
<path d="M10 8.49594L11.3805 5.78944C11.5615 5.43444 11.9265 5.21094 12.325 5.21094H18.719C19.1485 5.21094 19.3995 5.69494 19.1525 6.04594L17.4285 8.49544L10 8.49594Z" fill="#AFB7C0"/>
<path d="M10 14.4873V15.5638H16.3865L16.5455 14.4873H10Z" fill="#BB1B2A"/>
<path d="M4.65279 18.2896H9.99979V8.49512H2.57129L3.91729 17.6256C3.95629 18.0026 4.27379 18.2896 4.65279 18.2896Z" fill="#E5E9EE"/>
<path d="M9.99995 8.49594L8.61945 5.78944C8.43845 5.43444 8.07345 5.21094 7.67495 5.21094H1.28095C0.85145 5.21094 0.60045 5.69494 0.84745 6.04594L2.57145 8.49544L9.99995 8.49594Z" fill="#D0D5DA"/>
<path d="M10.0006 14.4873V15.5638H3.61408L3.45508 14.4873H10.0006Z" fill="#EF4452"/>
</g>
<defs>
<clipPath id="clip0_2069_16610">
<rect width="20" height="20" fill="white"/>
</clipPath>
</defs>
</svg>
