<svg width="20" height="20" viewBox="0 0 20 20" fill="none" xmlns="http://www.w3.org/2000/svg">
<g clip-path="url(#clip0_2069_16620)">
<path d="M9.99984 18.5283C13.5745 18.5283 16.4723 16.8498 16.4723 14.7793C16.4723 12.7088 13.5745 11.0303 9.99984 11.0303C6.42518 11.0303 3.52734 12.7088 3.52734 14.7793C3.52734 16.8498 6.42518 18.5283 9.99984 18.5283Z" fill="#BABABA"/>
<path d="M10.0004 17.3595C15.1071 17.3595 19.2469 14.9615 19.2469 12.0035C19.2469 9.04542 15.1071 6.64746 10.0004 6.64746C4.89371 6.64746 0.753906 9.04542 0.753906 12.0035C0.753906 14.9615 4.89371 17.3595 10.0004 17.3595Z" fill="#D9D9D9"/>
<path d="M9.99994 16.4365C13.853 16.4365 16.9764 14.6273 16.9764 12.3955C16.9764 10.1637 13.853 8.35449 9.99994 8.35449C6.14692 8.35449 3.02344 10.1637 3.02344 12.3955C3.02344 14.6273 6.14692 16.4365 9.99994 16.4365Z" fill="#EC4F00"/>
<path d="M13.2534 14.5459C13.1429 14.5459 13.0424 14.4724 13.0124 14.3609C12.4994 12.4469 10.5239 11.3044 8.61039 11.8194C8.47789 11.8529 8.33989 11.7759 8.30439 11.6424C8.26889 11.5089 8.34789 11.3724 8.48139 11.3364C10.6609 10.7544 12.9114 12.0514 13.4959 14.2314C13.5314 14.3654 13.4524 14.5019 13.3189 14.5379C13.2974 14.5434 13.2754 14.5464 13.2539 14.5464L13.2534 14.5459Z" fill="#FFAD00"/>
<path d="M12.5111 14.7451C12.4006 14.7451 12.2996 14.6716 12.2701 14.5601C12.0751 13.8321 11.6071 13.2231 10.9531 12.8451C10.2986 12.4676 9.53711 12.3656 8.80961 12.5621C8.67711 12.5956 8.53911 12.5181 8.50361 12.3851C8.46811 12.2511 8.54711 12.1146 8.68061 12.0786C9.53711 11.8506 10.4331 11.9671 11.2031 12.4121C11.9731 12.8571 12.5236 13.5736 12.7531 14.4301C12.7886 14.5641 12.7096 14.7006 12.5761 14.7366C12.5546 14.7421 12.5326 14.7451 12.5111 14.7451Z" fill="#FFAD00"/>
<path d="M11.7679 14.9443C11.6574 14.9443 11.5564 14.8708 11.5269 14.7588C11.2339 13.6643 10.1059 13.0098 9.00785 13.3053C8.87435 13.3378 8.73735 13.2618 8.70185 13.1283C8.66635 12.9948 8.74535 12.8583 8.87885 12.8223C10.2409 12.4588 11.6454 13.2683 12.0099 14.6303C12.0454 14.7638 11.9664 14.9003 11.8329 14.9363C11.8114 14.9418 11.7894 14.9443 11.7679 14.9443Z" fill="#FFAD00"/>
<path d="M5.31543 12.0616C5.27293 12.0616 5.22993 12.0511 5.19043 12.0281C5.07093 11.9591 5.02993 11.8066 5.09893 11.6866C6.13794 9.88757 8.44594 9.26807 10.2454 10.3076C10.3649 10.3766 10.4059 10.5291 10.3369 10.6491C10.2679 10.7691 10.1144 10.8091 9.99544 10.7406C8.43494 9.84057 6.43244 10.3771 5.53194 11.9371C5.48544 12.0171 5.40144 12.0621 5.31494 12.0621L5.31543 12.0616Z" fill="#FFAD00"/>
<path d="M5.92481 12.4138C5.88231 12.4138 5.83931 12.4033 5.79981 12.3803C5.68031 12.3113 5.63931 12.1588 5.70831 12.0388C6.55381 10.5758 8.43181 10.0723 9.89431 10.9173C10.0138 10.9863 10.0548 11.1388 9.98581 11.2588C9.91631 11.3778 9.76331 11.4193 9.64431 11.3503C8.42031 10.6438 6.84931 11.0648 6.14181 12.2893C6.09531 12.3693 6.01131 12.4138 5.92481 12.4138Z" fill="#FFAD00"/>
<path d="M6.67867 12.547C6.62617 12.547 6.57317 12.5305 6.52817 12.4965C6.41767 12.413 6.39617 12.2565 6.47917 12.146C7.19517 11.198 8.51267 10.9315 9.54217 11.5265C9.66167 11.5955 9.70267 11.748 9.63367 11.868C9.56417 11.987 9.41117 12.028 9.29217 11.9595C8.47967 11.491 7.44217 11.701 6.87817 12.4485C6.82917 12.5135 6.75417 12.547 6.67867 12.547Z" fill="#FFAD00"/>
<path d="M15.3702 12.9322C15.2837 12.9322 15.1997 12.8872 15.1532 12.8072C14.6732 11.9757 13.8982 11.3807 12.9707 11.1322C12.0432 10.8837 11.0752 11.0117 10.2432 11.4912C10.1237 11.5602 9.97067 11.5192 9.90167 11.3997C9.83267 11.2802 9.87367 11.1272 9.99317 11.0582C10.9407 10.5117 12.0432 10.3657 13.0997 10.6492C14.1562 10.9322 15.0387 11.6097 15.5857 12.5567C15.6547 12.6762 15.6137 12.8292 15.4942 12.8982C15.4547 12.9212 15.4117 12.9317 15.3692 12.9317L15.3702 12.9322Z" fill="#FFAD00"/>
<path d="M14.7035 13.3171C14.617 13.3171 14.533 13.2721 14.4865 13.1921C14.11 12.5396 13.5005 12.0731 12.7705 11.8771C12.0405 11.6816 11.2795 11.7816 10.627 12.1581C10.507 12.2271 10.3545 12.1866 10.2855 12.0666C10.2165 11.9471 10.2575 11.7941 10.377 11.7251C11.1445 11.2811 12.0405 11.1626 12.9 11.3941C13.7585 11.6241 14.476 12.1741 14.9195 12.9421C14.9885 13.0616 14.9475 13.2146 14.828 13.2836C14.7885 13.3066 14.746 13.3171 14.7035 13.3171Z" fill="#FFAD00"/>
<path d="M14.0388 13.7009C13.9523 13.7009 13.8683 13.6559 13.8218 13.5759C13.4558 12.9409 12.7728 12.5479 12.0383 12.5479C12.0353 12.5479 12.0328 12.5524 12.0283 12.5479C11.8908 12.5479 11.7788 12.4364 11.7783 12.2989C11.7783 12.1574 11.8958 12.0454 12.0383 12.0479C12.9513 12.0479 13.7998 12.5369 14.2553 13.3259C14.3243 13.4454 14.2833 13.5984 14.1638 13.6674C14.1243 13.6904 14.0813 13.7009 14.0388 13.7009Z" fill="#FFAD00"/>
<path d="M9.88384 14.4699C9.79734 14.4699 9.71334 14.4249 9.66684 14.3449C9.18684 13.5134 8.41184 12.9184 7.48434 12.6699C6.55684 12.4209 5.58834 12.5494 4.75684 13.0289C4.63734 13.0979 4.48434 13.0569 4.41534 12.9374C4.34634 12.8179 4.38734 12.6649 4.50684 12.5959C5.45384 12.0489 6.55684 11.9034 7.61334 12.1869C8.66984 12.4699 9.55234 13.1474 10.0993 14.0944C10.1683 14.2139 10.1273 14.3669 10.0078 14.4359C9.96834 14.4589 9.92534 14.4694 9.88284 14.4694L9.88384 14.4699Z" fill="#FFAD00"/>
<path d="M9.21811 14.8545C9.13161 14.8545 9.04761 14.8095 9.00111 14.7295C8.62461 14.077 8.01511 13.6106 7.28511 13.4146C6.55511 13.2186 5.79411 13.3191 5.14161 13.6956C5.02211 13.7646 4.86911 13.7235 4.80011 13.604C4.73111 13.4845 4.77211 13.3315 4.89161 13.2625C5.65911 12.818 6.55511 12.7006 7.41461 12.9316C8.27311 13.1616 8.99061 13.7115 9.43411 14.4795C9.50311 14.599 9.46211 14.7521 9.34261 14.8211C9.30311 14.8441 9.26061 14.8545 9.21811 14.8545Z" fill="#FFAD00"/>
<path d="M7.71837 14.4011C7.67587 14.4011 7.63237 14.3906 7.59287 14.3676C6.95437 13.9956 6.16287 13.9936 5.52637 14.3606C5.40687 14.4301 5.25387 14.3886 5.18487 14.2691C5.11587 14.1496 5.15687 13.9966 5.27637 13.9276C6.06787 13.4701 7.05187 13.4731 7.84437 13.9346C7.96387 14.0046 8.00437 14.1571 7.93487 14.2771C7.88837 14.3566 7.80487 14.4011 7.71837 14.4011Z" fill="#FFAD00"/>
<path d="M8.59749 14.708C8.55499 14.781 8.58499 14.872 8.66249 14.9045C8.87999 14.9965 9.32399 15.141 9.73699 15.004C10.15 14.867 10.42 14.486 10.539 14.282C10.5815 14.209 10.5515 14.118 10.474 14.0855C10.2565 13.9935 9.81249 13.849 9.39949 13.986C8.98649 14.123 8.71649 14.504 8.59749 14.708Z" fill="#036D50"/>
<path d="M15.4735 13.6617C15.522 13.7307 15.499 13.8237 15.4245 13.8632C15.217 13.9717 14.792 14.1487 14.3745 14.0472C13.957 13.9457 13.661 13.5932 13.5265 13.4012C13.478 13.3322 13.501 13.2392 13.5755 13.1997C13.783 13.0912 14.208 12.9142 14.6255 13.0157C15.043 13.1172 15.339 13.4697 15.4735 13.6617Z" fill="#036D50"/>
<path d="M11.0917 4.44743L18.4982 2.75543C18.7367 2.69743 18.8807 2.45493 18.8172 2.21793L18.7157 1.83843C18.6522 1.60143 18.4062 1.46343 18.1707 1.53243L10.9102 3.76993L11.0917 4.44743Z" fill="#3D3D3D"/>
<path d="M9.66981 4.39153C9.36081 4.66653 8.99031 4.86353 8.58931 4.96553L6.98831 5.37303C6.85831 5.40603 6.78031 5.53903 6.81481 5.66903C6.84581 5.78503 6.95831 5.86053 7.07731 5.84553L9.72781 5.51253C10.0943 5.45203 10.2573 5.17153 10.3768 5.00503C10.4963 4.83853 10.6528 4.54503 10.9223 4.47953L11.0908 4.44703L10.9093 3.76953L10.6878 3.82903C10.3243 3.92653 9.98881 4.10753 9.70831 4.35753L9.66981 4.39153Z" fill="#BABABA"/>
<path d="M9.18945 10.4025C9.05145 10.4025 8.93945 10.2905 8.93945 10.1525V4.729C8.93945 4.591 9.05145 4.479 9.18945 4.479C9.32745 4.479 9.43945 4.591 9.43945 4.729V10.1525C9.43945 10.2905 9.32745 10.4025 9.18945 10.4025Z" fill="#FFAD00"/>
<path d="M8.47168 10.3078C8.33368 10.3078 8.22168 10.1958 8.22168 10.0578V4.96533C8.22168 4.82733 8.33368 4.71533 8.47168 4.71533C8.60968 4.71533 8.72168 4.82733 8.72168 4.96533V10.0578C8.72168 10.1958 8.60968 10.3078 8.47168 10.3078Z" fill="#FFAD00"/>
<path d="M7.75391 10.3027C7.61591 10.3027 7.50391 10.1907 7.50391 10.0527V5.17822C7.50391 5.04022 7.61591 4.92822 7.75391 4.92822C7.89191 4.92822 8.00391 5.04022 8.00391 5.17822V10.0527C8.00391 10.1907 7.89191 10.3027 7.75391 10.3027Z" fill="#FFAD00"/>
<path d="M12.038 11.3144C12.051 11.2409 12.0405 11.1634 12.0005 11.0939C11.959 11.0219 11.8935 10.9729 11.8205 10.9479C11.8205 10.8734 11.7965 10.7984 11.745 10.7369C11.6915 10.6734 11.6185 10.6359 11.5425 10.6244C11.5295 10.5509 11.493 10.4814 11.4315 10.4299C11.3675 10.3764 11.2895 10.3524 11.2125 10.3544C11.187 10.2844 11.139 10.2224 11.0695 10.1819C10.9975 10.1404 10.9165 10.1304 10.8405 10.1459C10.8035 10.0814 10.7455 10.0284 10.67 10.0009C10.592 9.9724 10.51 9.9769 10.4385 10.0049C10.3905 9.9479 10.3245 9.9059 10.2455 9.8919C10.1635 9.8774 10.084 9.8959 10.018 9.9359C9.96098 9.8879 9.88848 9.8584 9.80798 9.8584C9.72498 9.8584 9.64948 9.8904 9.59148 9.9414C9.52698 9.9044 9.45048 9.8874 9.37148 9.9014C9.28948 9.9159 9.22098 9.9604 9.17298 10.0209C9.10298 9.9954 9.02448 9.9924 8.94898 10.0199C8.87098 10.0484 8.81098 10.1039 8.77398 10.1719C8.70048 10.1589 8.62298 10.1694 8.55348 10.2094C8.48148 10.2509 8.43248 10.3164 8.40748 10.3894C8.33298 10.3894 8.25798 10.4134 8.19648 10.4649C8.13248 10.5184 8.09548 10.5914 8.08398 10.6674C8.01048 10.6804 7.94098 10.7169 7.88948 10.7784C7.83598 10.8424 7.81198 10.9204 7.81398 10.9974C7.74398 11.0229 7.68198 11.0709 7.64148 11.1404C7.59998 11.2124 7.58998 11.2934 7.60498 11.3694C7.54048 11.4069 7.45998 11.4554 7.45998 11.5399C7.45998 11.5419 7.46148 11.5449 7.46198 11.5474H7.45898C7.45898 12.3039 8.51798 12.9174 9.82398 12.9174C11.13 12.9174 12.189 12.3039 12.189 11.5474C12.189 11.4339 12.105 11.3514 12.037 11.3144H12.038Z" fill="#CB2C29"/>
</g>
<defs>
<clipPath id="clip0_2069_16620">
<rect width="20" height="20" fill="white"/>
</clipPath>
</defs>
</svg>
