<svg width="20" height="20" viewBox="0 0 20 20" fill="none" xmlns="http://www.w3.org/2000/svg">
<g clip-path="url(#clip0_2069_16618)">
<path d="M1.78223 10.7836V13.3576C1.78223 14.7581 2.58173 16.0356 3.84173 16.6481L4.89023 17.1576C6.55673 17.9676 8.52773 17.8326 10.0682 16.8031L17.0547 12.1351C18.2262 11.3521 18.9297 10.0361 18.9297 8.62709V5.95459L1.78223 10.7836Z" fill="#DFE3E8"/>
<path d="M1.64436 11.3148L5.94936 13.3283C6.76736 13.7108 7.72336 13.6538 8.48986 13.1758C11.5864 10.6683 14.9444 8.61584 18.5139 6.92884C19.6944 6.19334 19.5019 5.09334 18.3219 4.21934L14.7024 2.18734C13.7419 1.74434 12.6539 1.66184 11.6394 1.96034C9.25886 2.66134 4.82686 4.50384 1.17336 9.07084C1.15086 9.09634 1.12936 9.12184 1.10886 9.14734C0.537864 9.86084 0.816864 10.9278 1.64436 11.3148Z" fill="#FA5F3C"/>
<path d="M10.8121 10.695C10.8121 9.73048 10.2841 8.81198 9.68659 8.05448L6.32109 4.41748C5.98659 4.63298 5.64859 4.86398 5.30859 5.11198L8.40409 8.34548C9.11109 9.08748 9.55209 10.0555 9.59159 11.0795C9.59359 11.1345 9.59459 11.19 9.59459 11.2455V12.3095C9.76809 12.1775 9.9426 12.0475 10.1176 11.918C10.3001 11.7755 10.4501 11.665 10.8121 11.405V10.695Z" fill="#FAA594"/>
<path d="M14.3532 5.31582L11.3507 2.04932C10.9727 2.16732 10.5527 2.31182 10.0977 2.48832L13.0702 5.60682C13.7772 6.34882 14.2182 7.31682 14.2577 8.34082C14.2597 8.39582 14.2607 8.45132 14.2607 8.50682V9.17982C14.6632 8.94232 15.0692 8.71032 15.4782 8.48382V7.95582C15.4782 6.99132 14.9502 6.07282 14.3527 5.31532L14.3532 5.31582Z" fill="#FAA594"/>
<path d="M1.71094 8.4271C2.19244 9.0156 3.33394 10.5471 3.76144 12.3051L5.30044 13.0251C4.91244 11.7861 4.01144 9.3651 2.46344 7.6001C2.21044 7.8641 1.95894 8.1396 1.71094 8.4271Z" fill="#FAA594"/>
</g>
<defs>
<clipPath id="clip0_2069_16618">
<rect width="20" height="20" fill="white"/>
</clipPath>
</defs>
</svg>
