<svg width="20" height="20" viewBox="0 0 20 20" fill="none" xmlns="http://www.w3.org/2000/svg">
<path d="M9.00599 4.76807L8.72949 4.83157V7.14807C8.82049 7.13807 8.91349 7.13157 9.00599 7.12357V4.76807Z" fill="#AFB7C0"/>
<path d="M9.50588 7.0925C9.64638 7.0865 9.78738 7.081 9.92988 7.08C10.9024 6.7155 11.8874 6.7045 12.4384 7.2555C12.4704 7.2875 12.4959 7.324 12.5239 7.359C15.0709 7.9425 16.8749 9.378 16.8749 11.0605C16.8749 11.2685 16.8389 11.4715 16.7859 11.671C17.4329 11.1025 17.8769 10.451 18.0544 9.7505C18.0624 9.7175 18.0739 9.6845 18.0804 9.6515C18.0984 9.5695 18.1049 9.4855 18.1154 9.4025C18.1269 9.3 18.1424 9.198 18.1424 9.094C18.1424 6.612 14.8309 4.5825 10.6284 4.396L9.50488 4.6545V7.093L9.50588 7.0925Z" fill="#AFB7C0"/>
<path d="M8.22963 4.94678L7.95312 5.01028V7.25728C8.04362 7.24078 8.13763 7.23028 8.22963 7.21578V4.94678Z" fill="#AFB7C0"/>
<path d="M3.2199 11.6915C3.1629 11.4855 3.1254 11.2755 3.1254 11.0605C3.1254 9.38296 4.9184 7.95046 7.4529 7.36396V5.12596L6.6994 5.29946C6.6714 5.30596 6.6434 5.30746 6.6164 5.30546C6.5044 5.29546 6.4054 5.21596 6.3769 5.10196C6.3539 5.01096 6.3849 4.92096 6.4449 4.85596C3.7324 5.62146 1.8584 7.22896 1.8584 9.09396C1.8584 9.14496 1.8689 9.19446 1.8714 9.24496C1.9209 10.1485 2.4144 10.9855 3.2204 11.692L3.2199 11.6915Z" fill="#AFB7C0"/>
<path d="M7.54921 11.4149C7.53271 11.3899 7.51821 11.3644 7.50271 11.3394C7.47871 11.3574 7.45221 11.3709 7.42871 11.3899C7.46921 11.3964 7.50921 11.4074 7.54921 11.4149Z" fill="#261A19"/>
<path d="M8.17315 8.18533C8.19115 8.16783 8.21015 8.15083 8.22865 8.13383V7.21533C8.13665 7.22983 8.04265 7.24033 7.95215 7.25683V7.91783C8.04915 7.98383 8.12415 8.07733 8.17315 8.18533Z" fill="#261A19"/>
<path d="M6.44043 11.3498C6.55043 11.3423 6.66093 11.3388 6.77143 11.3393C6.92393 11.1578 7.09743 11.0028 7.28593 10.8748C7.25793 10.7893 7.23343 10.7028 7.21643 10.6143C6.91593 10.8083 6.65093 11.0533 6.44043 11.3498Z" fill="#261A19"/>
<path d="M11.1 12.8798C10.706 12.6518 10.263 12.5518 9.82 12.5843C10.107 12.8643 10.359 13.1828 10.565 13.5388C10.612 13.6208 10.6045 13.7163 10.559 13.7918C10.422 13.7973 10.2855 13.8023 10.147 13.8038C10.143 13.7978 10.1355 13.7953 10.132 13.7888C9.785 13.1878 9.294 12.7038 8.709 12.3658C8.576 12.3143 8.448 12.2493 8.325 12.1718C8.143 12.0918 7.956 12.0213 7.7605 11.9688C6.7535 11.6988 5.7005 11.8368 4.7965 12.3588C4.677 12.4283 4.524 12.3868 4.455 12.2673C4.386 12.1478 4.427 11.9948 4.5465 11.9258C4.95 11.6928 5.3805 11.5303 5.823 11.4343C5.824 11.3938 5.831 11.3533 5.853 11.3153C6.172 10.7628 6.635 10.3263 7.19 10.0408C7.1985 9.93834 7.213 9.83534 7.2365 9.73134C6.5835 10.0268 6.0125 10.5183 5.6275 11.1848C5.581 11.2648 5.497 11.3098 5.4105 11.3098C5.368 11.3098 5.325 11.2993 5.2855 11.2763C5.166 11.2073 5.125 11.0548 5.194 10.9348C5.2405 10.8543 5.293 10.7793 5.344 10.7033C5.314 10.7243 5.2795 10.7398 5.2395 10.7398H4.4015C4.2755 10.7398 4.18 10.6128 4.228 10.4963C4.324 10.2633 4.553 10.0993 4.8205 10.0993C5.088 10.0993 5.317 10.2633 5.413 10.4963C5.4245 10.5248 5.4275 10.5538 5.4235 10.5813C5.9395 9.86884 6.6585 9.37084 7.4525 9.11284V8.44484H7.1725C7.0465 8.44484 6.9515 8.31784 6.999 8.20134C7.0775 8.01084 7.247 7.87184 7.4525 7.82584V7.36084C4.918 7.94734 3.125 9.37984 3.125 11.0573C3.125 11.2728 3.1625 11.4823 3.2195 11.6883C3.676 12.0883 4.23 12.4473 4.8695 12.7488C4.8905 12.7073 4.919 12.6698 4.9625 12.6448C6.6165 11.6898 8.72 12.2138 9.746 13.7993C9.536 13.7958 9.3265 13.7903 9.1205 13.7778C9.4095 13.7958 9.7025 13.8068 10 13.8068C10.6535 13.8068 11.2855 13.7563 11.894 13.6713C11.7005 13.3483 11.4355 13.0723 11.1 12.8788V12.8798Z" fill="#261A19"/>
<path d="M5.40625 12.9807C5.55675 13.0407 5.71275 13.0962 5.87075 13.1502C6.61425 12.8992 7.44175 12.9707 8.13425 13.3737C8.24625 13.4392 8.28525 13.5772 8.23225 13.6932C8.52025 13.7302 8.81325 13.7602 9.11225 13.7787C8.21875 12.7027 6.68625 12.3572 5.40625 12.9807Z" fill="#261A19"/>
<path d="M5.91113 13.165C6.07263 13.2195 6.23613 13.2715 6.40463 13.3195C6.23663 13.2715 6.07263 13.2195 5.91113 13.165Z" fill="#261A19"/>
<path d="M9.00502 7.12256C8.91252 7.13056 8.82002 7.13706 8.72852 7.14706V7.72306C8.81902 7.65806 8.91102 7.59656 9.00502 7.53756V7.12306V7.12256Z" fill="#261A19"/>
<path d="M13.8274 13.248C13.8174 13.251 13.8069 13.254 13.7969 13.2575C13.8069 13.2545 13.8174 13.2515 13.8274 13.248Z" fill="#261A19"/>
<path d="M5.01103 12.8137C4.97303 12.7967 4.93253 12.7812 4.89453 12.7632C4.93203 12.7807 4.97253 12.7962 5.01103 12.8137Z" fill="#261A19"/>
<path d="M8.14266 13.6799C7.55866 13.6009 7.00016 13.4854 6.47266 13.3374C7.00016 13.4849 7.55866 13.6009 8.14266 13.6799Z" fill="#261A19"/>
<path d="M13.2939 11.9292C13.6094 12.2897 13.8694 12.7052 14.0569 13.1672C14.2509 13.1017 14.4404 13.0327 14.6239 12.9582L14.6234 12.9577C14.3309 12.4517 13.8419 12.0897 13.2944 11.9297L13.2939 11.9292Z" fill="#261A19"/>
<path d="M13.6907 10.3068C13.2747 10.1953 12.8517 10.1568 12.4342 10.1833C12.3757 10.3043 12.3107 10.4238 12.2422 10.5418C13.6232 10.3728 15.0372 11.0133 15.7757 12.2923C15.7912 12.3193 15.7972 12.3488 15.8017 12.3783C15.9097 12.3143 16.0162 12.2488 16.1177 12.1813C16.0977 12.1653 16.0762 12.1503 16.0627 12.1268C15.5412 11.2228 14.6982 10.5768 13.6907 10.3068Z" fill="#261A19"/>
<path d="M11.689 11.3218C11.6145 11.4078 11.5375 11.4908 11.458 11.5708C11.562 11.6183 11.6645 11.6698 11.765 11.7278C12.4405 12.1178 12.9545 12.7048 13.2565 13.4068C13.3655 13.3788 13.472 13.3483 13.5785 13.3178C13.205 12.4228 12.5205 11.7293 11.6895 11.3223L11.689 11.3218Z" fill="#261A19"/>
<path d="M9.92888 7.07861C9.78588 7.07961 9.64538 7.08511 9.50488 7.09111V7.25811C9.64488 7.19011 9.78688 7.13161 9.92888 7.07861Z" fill="#261A19"/>
<path d="M11.5155 12.1605C11.3605 12.071 11.1995 11.9985 11.035 11.938C10.9125 12.03 10.79 12.11 10.667 12.1795C10.9025 12.2405 11.1335 12.322 11.3505 12.4475C11.822 12.7195 12.192 13.116 12.43 13.5905C12.5415 13.57 12.6495 13.5445 12.759 13.5215C12.495 12.955 12.0695 12.4805 11.516 12.161L11.5155 12.1605Z" fill="#261A19"/>
<path d="M12.6449 9.67543C13.0369 9.67293 13.4319 9.71893 13.8209 9.82343C14.9574 10.1274 15.9079 10.8569 16.4964 11.8759C16.5009 11.8834 16.5024 11.8919 16.5044 11.8999C16.6019 11.8244 16.6959 11.7474 16.7854 11.6689C16.8384 11.4694 16.8744 11.2664 16.8744 11.0584C16.8744 9.37593 15.0699 7.93993 12.5234 7.35693C12.9674 7.90393 12.9584 8.78793 12.6449 9.67543ZM13.3874 8.91543C13.4834 8.68243 13.7124 8.51843 13.9799 8.51843C14.2474 8.51843 14.4764 8.68243 14.5724 8.91543C14.6204 9.03193 14.5249 9.15893 14.3989 9.15893H13.5609C13.4349 9.15893 13.3394 9.03193 13.3874 8.91543Z" fill="#261A19"/>
<path d="M12.2305 11.0408C12.382 11.1308 12.526 11.2318 12.666 11.3393C12.6695 11.3393 12.673 11.3368 12.6765 11.3368C13.656 11.3368 14.5675 11.8613 15.0565 12.7078C15.067 12.7263 15.0715 12.7458 15.076 12.7653C15.1885 12.7128 15.2935 12.6553 15.401 12.5993C15.3795 12.5828 15.3575 12.5668 15.3435 12.5423C14.6955 11.4198 13.4415 10.8633 12.2305 11.0408Z" fill="#261A19"/>
<path d="M18.0544 9.74914C17.8764 10.4496 17.4324 11.1011 16.7859 11.6696C16.6959 11.7486 16.6019 11.8251 16.5049 11.9006C16.5064 11.9061 16.5084 11.9111 16.5104 11.9166C16.3884 12.0106 16.2624 12.1026 16.1289 12.1911C16.1254 12.1881 16.1229 12.1841 16.1189 12.1811C16.0174 12.2486 15.9109 12.3136 15.8029 12.3781C15.8039 12.3841 15.8074 12.3896 15.8079 12.3951C15.6814 12.4696 15.5464 12.5396 15.4114 12.6091C15.4079 12.6061 15.4049 12.6021 15.4014 12.5991C15.2939 12.6551 15.1889 12.7126 15.0764 12.7651C15.0774 12.7681 15.0789 12.7711 15.0794 12.7746C14.9349 12.8416 14.7864 12.9061 14.6339 12.9676C14.6314 12.9636 14.6269 12.9621 14.6244 12.9581C14.4409 13.0326 14.2514 13.1016 14.0574 13.1671C14.0584 13.1701 14.0604 13.1726 14.0614 13.1756C13.9849 13.2011 13.9049 13.2236 13.8264 13.2476C13.8164 13.2506 13.8059 13.2536 13.7959 13.2571C13.7239 13.2786 13.6539 13.3021 13.5809 13.3231C13.5799 13.3211 13.5789 13.3191 13.5784 13.3176C13.4719 13.3481 13.3654 13.3786 13.2564 13.4066C13.2574 13.4086 13.2589 13.4106 13.2599 13.4126C13.2154 13.4241 13.1684 13.4326 13.1234 13.4431C13.1064 13.4471 13.0889 13.4506 13.0719 13.4546C12.9684 13.4781 12.8654 13.5026 12.7604 13.5246C12.7599 13.5231 12.7589 13.5221 12.7584 13.5206C12.6489 13.5436 12.5414 13.5691 12.4294 13.5896C12.4299 13.5911 12.4309 13.5921 12.4319 13.5936C12.2564 13.6251 12.0759 13.6491 11.8959 13.6741L11.8944 13.6721C11.2854 13.7576 10.6534 13.8076 10.0004 13.8076C9.70292 13.8076 9.40992 13.7966 9.12092 13.7786C9.11842 13.7786 9.11542 13.7786 9.11242 13.7786C8.81342 13.7596 8.52092 13.7301 8.23242 13.6931V13.6936C8.20192 13.6896 8.17292 13.6841 8.14242 13.6796C7.55842 13.6006 7.00042 13.4846 6.47242 13.3371C6.45042 13.3311 6.42792 13.3251 6.40542 13.3191C6.23742 13.2711 6.07342 13.2191 5.91192 13.1646C5.89742 13.1596 5.88242 13.1556 5.86842 13.1511L5.87042 13.1506C5.71242 13.0966 5.55692 13.0411 5.40592 12.9811C5.40442 12.9821 5.40242 12.9821 5.40092 12.9831C5.26692 12.9296 5.13892 12.8716 5.01042 12.8141C4.97242 12.7971 4.93192 12.7816 4.89392 12.7636C4.88542 12.7596 4.87642 12.7561 4.86792 12.7526L4.86942 12.7511C4.22992 12.4491 3.67592 12.0906 3.21942 11.6906C2.41342 10.9841 1.91992 10.1471 1.87042 9.24364C1.86192 9.22264 1.85742 9.20914 1.85742 9.20914V11.2961C1.85742 15.7931 5.50292 19.4386 9.99992 19.4386C14.4969 19.4386 18.1424 15.7931 18.1424 11.2961C18.1424 11.2961 18.1509 9.18814 18.1424 9.20914C18.1389 9.27364 18.1234 9.33664 18.1154 9.40064C18.1049 9.48414 18.0984 9.56764 18.0804 9.64964C18.0734 9.68314 18.0629 9.71564 18.0544 9.74864V9.74914Z" fill="#E5E9EE"/>
<path d="M8.17413 8.18596C8.12563 8.07796 8.05013 7.98446 7.95312 7.91846V8.41646C8.00713 8.35596 8.06112 8.29546 8.12112 8.23546C8.13812 8.21846 8.15663 8.20246 8.17413 8.18596Z" fill="#CB2C29"/>
<path d="M6.99994 8.20411C6.95194 8.32061 7.04744 8.44761 7.17344 8.44761H7.45344V7.82861C7.24844 7.87461 7.07844 8.01361 6.99994 8.20411Z" fill="#CB2C29"/>
<path d="M5.41345 10.4991C5.31745 10.2661 5.08845 10.1021 4.82095 10.1021C4.55345 10.1021 4.32445 10.2661 4.22845 10.4991C4.18045 10.6156 4.27595 10.7426 4.40195 10.7426H5.23995C5.27995 10.7426 5.31395 10.7271 5.34445 10.7061C5.37145 10.6656 5.39595 10.6231 5.42395 10.5841C5.42745 10.5566 5.42495 10.5276 5.41345 10.4991Z" fill="#CB2C29"/>
<path d="M13.5621 9.16052H14.4001C14.5261 9.16052 14.6216 9.03352 14.5736 8.91702C14.4776 8.68402 14.2486 8.52002 13.9811 8.52002C13.7136 8.52002 13.4846 8.68402 13.3886 8.91702C13.3406 9.03352 13.4361 9.16052 13.5621 9.16052Z" fill="#CB2C29"/>
<path d="M7.95245 5.00975L8.22895 4.94625V4.32275L7.93945 4.40125C7.94545 4.42225 7.95245 4.44275 7.95245 4.46575V5.00975Z" fill="#FFAA00"/>
<path d="M8.7298 4.83132L9.0063 4.76782V4.11182L8.7168 4.19032C8.7223 4.21132 8.7298 4.23182 8.7298 4.25482V4.83132Z" fill="#FFAA00"/>
<path d="M18.4487 2.2738L18.3542 1.8963C18.3342 1.8158 18.2832 1.7478 18.2112 1.7058C18.1397 1.6638 18.0557 1.6528 17.9752 1.6743L9.49219 3.9788C9.49769 3.9998 9.50519 4.0203 9.50519 4.0433V4.6518L10.6287 4.3933L18.2197 2.6473C18.3007 2.6283 18.3697 2.5793 18.4127 2.5083C18.4562 2.4373 18.4692 2.3543 18.4487 2.2738Z" fill="#FFAA00"/>
<path d="M6.37725 5.10069C6.40575 5.21469 6.50525 5.29419 6.61675 5.30419C6.64375 5.30669 6.67175 5.30469 6.69975 5.29819L7.45325 5.12469V4.53369L6.56825 4.77419C6.51775 4.78769 6.47825 4.81819 6.44475 4.85469C6.38475 4.91969 6.35425 5.00969 6.37725 5.10069Z" fill="#FFAA00"/>
<path d="M7.73063 4.22148L17.8446 1.15548C17.9241 1.13098 17.9891 1.07748 18.0281 1.00348C18.0666 0.929977 18.0736 0.845478 18.0476 0.766478L17.9271 0.396477C17.9016 0.316978 17.8461 0.252977 17.7716 0.216477C17.6971 0.179477 17.6131 0.173977 17.5341 0.200977L6.36413 4.07148C6.22613 4.11948 6.15063 4.27148 6.19563 4.40998C6.22813 4.51048 6.31613 4.57948 6.41513 4.59398C6.45263 4.59948 6.49263 4.59698 6.53113 4.58498L7.54213 4.27848C7.58563 4.24098 7.64113 4.21598 7.70313 4.21598C7.71263 4.21598 7.72113 4.22048 7.73013 4.22148H7.73063Z" fill="#FFAA00"/>
<path d="M7.45312 5.12629V9.11628C7.45812 9.11478 7.46313 9.11328 7.46813 9.11128C7.58913 8.87878 7.74913 8.64629 7.95312 8.41729V4.46729C7.95312 4.44429 7.94613 4.42379 7.94012 4.40279C7.91363 4.30579 7.83262 4.23428 7.73012 4.22278C7.72062 4.22178 7.71262 4.21729 7.70312 4.21729C7.64112 4.21729 7.58613 4.24229 7.54213 4.27979C7.48863 4.32579 7.45312 4.39129 7.45312 4.46729V5.12629Z" fill="#6E4944"/>
<path d="M8.22949 4.94785V8.13535C8.38599 7.98885 8.55299 7.85135 8.72949 7.72485V4.25635C8.72949 4.23335 8.72199 4.21285 8.71649 4.19185C8.68749 4.08585 8.59499 4.00635 8.47949 4.00635C8.34149 4.00635 8.22949 4.11835 8.22949 4.25635V4.94785Z" fill="#6E4944"/>
<path d="M9.00586 4.76891V7.53891C9.16886 7.43691 9.33536 7.34241 9.50586 7.25991V4.04541C9.50586 4.02241 9.49836 4.00191 9.49286 3.98091C9.46386 3.87491 9.37136 3.79541 9.25586 3.79541C9.11786 3.79541 9.00586 3.90741 9.00586 4.04541V4.76891Z" fill="#6E4944"/>
<path d="M11.7657 11.7288C11.6657 11.6708 11.5627 11.6193 11.4587 11.5718L11.4577 11.5728C11.3182 11.7123 11.1772 11.8323 11.0352 11.9393C11.1997 11.9998 11.3607 12.0723 11.5157 12.1618C12.0692 12.4813 12.4942 12.9558 12.7587 13.5223C12.7592 13.5238 12.7602 13.5248 12.7607 13.5263C12.8657 13.5043 12.9687 13.4798 13.0722 13.4563C13.0892 13.4523 13.1067 13.4488 13.1237 13.4448C13.1692 13.4343 13.2157 13.4253 13.2602 13.4143C13.2592 13.4123 13.2577 13.4103 13.2567 13.4083C12.9547 12.7058 12.4407 12.1193 11.7652 11.7293L11.7657 11.7288Z" fill="#6E4944"/>
<path d="M12.4309 13.5912V13.5962C12.2559 13.6262 12.0759 13.6512 11.8959 13.6762C11.7009 13.3512 11.4359 13.0762 11.1009 12.8812C10.7059 12.6562 10.2659 12.5562 9.82094 12.5862C10.1059 12.8662 10.3609 13.1862 10.5659 13.5412C10.6109 13.6212 10.6059 13.7212 10.5609 13.7962C10.4259 13.8012 10.2859 13.8062 10.1459 13.8062C10.1459 13.8012 10.1359 13.7962 10.1309 13.7912C9.78594 13.1912 9.29594 12.7062 8.71094 12.3662C8.83594 12.4162 8.96094 12.4562 9.09094 12.4812C9.29594 12.5162 9.50094 12.5212 9.71594 12.5012C10.0259 12.4662 10.3459 12.3612 10.6659 12.1812C10.9009 12.2412 11.1359 12.3262 11.3509 12.4512C11.8209 12.7212 12.1909 13.1162 12.4309 13.5912Z" fill="#6E4944"/>
<path d="M5.42414 10.5848C5.39614 10.6238 5.37164 10.6663 5.34464 10.7068C5.29364 10.7828 5.24114 10.8578 5.19464 10.9383C5.12564 11.0578 5.16664 11.2108 5.28614 11.2798C5.32564 11.3028 5.36864 11.3133 5.41114 11.3133C5.49764 11.3133 5.58164 11.2683 5.62814 11.1883C6.01264 10.5218 6.58414 10.0303 7.23714 9.73482C7.28314 9.52882 7.36064 9.32082 7.46864 9.11182C7.46364 9.11332 7.45864 9.11482 7.45364 9.11682C6.65914 9.37482 5.94064 9.87232 5.42464 10.5853L5.42414 10.5848Z" fill="#6E4944"/>
<path d="M8.32534 12.1764C8.14534 12.0964 7.95534 12.0264 7.76034 11.9714C6.75534 11.7014 5.70034 11.8414 4.79534 12.3614C4.67534 12.4314 4.52534 12.3914 4.45534 12.2714C4.38534 12.1514 4.42534 11.9964 4.54534 11.9314C4.95034 11.6964 5.38034 11.5314 5.82534 11.4364C5.82534 11.3964 5.83034 11.3564 5.85534 11.3164C6.17034 10.7664 6.63534 10.3314 7.19034 10.0464C7.17534 10.2414 7.18034 10.4314 7.21534 10.6164C6.91534 10.8114 6.65034 11.0564 6.44034 11.3514C6.55034 11.3464 6.66034 11.3414 6.77034 11.3414C6.92534 11.1614 7.10034 11.0064 7.28534 10.8764C7.34034 11.0364 7.41534 11.1914 7.50534 11.3414C7.48034 11.3614 7.45034 11.3714 7.43034 11.3914C7.47034 11.3964 7.51034 11.4114 7.55034 11.4164C7.64034 11.5564 7.75034 11.6914 7.87534 11.8164C8.01534 11.9564 8.16534 12.0764 8.32534 12.1764Z" fill="#6E4944"/>
<path d="M13.8225 9.82538C13.4335 9.72088 13.039 9.67438 12.6465 9.67738C12.5865 9.84738 12.5175 10.0174 12.4365 10.1849C12.854 10.1584 13.277 10.1969 13.693 10.3084C14.701 10.5784 15.543 11.2244 16.0645 12.1284C16.078 12.1519 16.0995 12.1669 16.1195 12.1829C16.123 12.1859 16.1255 12.1899 16.1295 12.1929C16.263 12.1044 16.3895 12.0124 16.511 11.9184C16.509 11.9134 16.507 11.9079 16.5055 11.9024C16.5035 11.8944 16.502 11.8859 16.4975 11.8784C15.909 10.8594 14.959 10.1299 13.822 9.82588L13.8225 9.82538Z" fill="#6E4944"/>
<path d="M15.8104 12.396C15.6804 12.471 15.5454 12.541 15.4104 12.611C15.4104 12.606 15.4054 12.606 15.4004 12.601C15.3804 12.586 15.3604 12.571 15.3454 12.546C14.6954 11.421 13.4404 10.866 12.2304 11.041C12.3804 11.131 12.5254 11.231 12.6654 11.341C12.6704 11.341 12.6754 11.341 12.6754 11.336C13.6554 11.336 14.5704 11.861 15.0554 12.711C15.0654 12.726 15.0704 12.746 15.0754 12.766C15.0754 12.771 15.0804 12.771 15.0804 12.776C14.9354 12.846 14.7854 12.906 14.6354 12.971C14.6304 12.966 14.6254 12.966 14.6254 12.961C14.3304 12.451 13.8404 12.091 13.2954 11.931C13.6104 12.291 13.8704 12.706 14.0604 13.171V13.176C13.9854 13.201 13.9054 13.226 13.8254 13.251C13.8154 13.251 13.8054 13.256 13.7954 13.261C13.7254 13.281 13.6554 13.306 13.5804 13.326V13.321C13.2054 12.426 12.5204 11.731 11.6904 11.321C11.7454 11.261 11.7954 11.191 11.8504 11.126C11.9004 11.056 11.9504 10.991 12.0004 10.921C12.0854 10.796 12.1704 10.671 12.2454 10.546C13.6254 10.376 15.0404 11.016 15.7754 12.296C15.7904 12.321 15.8004 12.351 15.8004 12.381C15.8054 12.386 15.8054 12.391 15.8104 12.396Z" fill="#6E4944"/>
<path d="M4.96266 12.6489C4.91966 12.6739 4.89116 12.7114 4.86966 12.7529L4.86816 12.7544C4.87666 12.7584 4.88566 12.7619 4.89416 12.7654C4.93166 12.7829 4.97216 12.7984 5.01066 12.8159C5.13866 12.8739 5.26666 12.9319 5.40116 12.9849C5.40266 12.9844 5.40466 12.9839 5.40616 12.9829C6.68566 12.3594 8.21816 12.7049 9.11216 13.7809C9.11466 13.7809 9.11766 13.7809 9.12066 13.7809C9.32666 13.7934 9.53616 13.7989 9.74616 13.8024C8.72016 12.2174 6.61666 11.6929 4.96266 12.6479V12.6489Z" fill="#6E4944"/>
<path d="M8.13464 13.3755C7.44214 12.973 6.61414 12.9015 5.87114 13.152L5.86914 13.1525C5.88364 13.1575 5.89864 13.1615 5.91264 13.166C6.07414 13.2205 6.23814 13.2725 6.40614 13.3205C6.42814 13.327 6.45064 13.3325 6.47314 13.3385C7.00064 13.4865 7.55914 13.602 8.14314 13.681C8.17364 13.685 8.20264 13.691 8.23314 13.695V13.6945C8.28564 13.579 8.24714 13.4405 8.13514 13.375L8.13464 13.3755Z" fill="#6E4944"/>
<path d="M9.00552 7.53769C8.91152 7.59669 8.81952 7.65819 8.72902 7.72319C8.55252 7.84969 8.38552 7.98719 8.22902 8.13369C8.21052 8.15119 8.19152 8.16769 8.17352 8.18519C8.15602 8.20169 8.13752 8.21769 8.12052 8.23419C8.06052 8.29419 8.00652 8.35469 7.95252 8.41519C7.74852 8.64419 7.58802 8.87669 7.46752 9.10919C7.35902 9.31769 7.28202 9.52619 7.23602 9.73219C7.21252 9.83619 7.19802 9.93919 7.18952 10.0417C7.17352 10.2367 7.18152 10.4287 7.21702 10.6142C7.23402 10.7027 7.25852 10.7892 7.28652 10.8747C7.33952 11.0362 7.41252 11.1912 7.50252 11.3392C7.51802 11.3647 7.53252 11.3902 7.54902 11.4147C7.64252 11.5562 7.75052 11.6907 7.87602 11.8157C8.01502 11.9547 8.16602 12.0722 8.32502 12.1717C8.44802 12.2492 8.57652 12.3142 8.70902 12.3657C8.83352 12.4142 8.96102 12.4522 9.09202 12.4767C9.29352 12.5142 9.50252 12.5202 9.71502 12.4967C10.027 12.4617 10.347 12.3582 10.667 12.1792C10.79 12.1102 10.913 12.0302 11.035 11.9377C11.177 11.8307 11.318 11.7107 11.4575 11.5712L11.4585 11.5702C11.538 11.4907 11.615 11.4077 11.6895 11.3212C11.745 11.2572 11.797 11.1902 11.8495 11.1232C11.902 11.0557 11.952 10.9872 12.001 10.9172C12.087 10.7947 12.1685 10.6697 12.2435 10.5412C12.312 10.4232 12.377 10.3037 12.4355 10.1827C12.5165 10.0152 12.5855 9.84519 12.6455 9.67519C12.959 8.78769 12.968 7.90369 12.524 7.35669C12.496 7.32219 12.47 7.28519 12.4385 7.25319C11.8875 6.70219 10.9025 6.71319 9.93002 7.07769C9.78802 7.13119 9.64602 7.18969 9.50602 7.25719C9.33552 7.33969 9.16902 7.43419 9.00602 7.53619L9.00552 7.53769ZM10.628 9.06469C11.148 9.58469 11.148 10.4272 10.628 10.9472C10.108 11.4672 9.26552 11.4672 8.74552 10.9472C8.22552 10.4272 8.22552 9.58469 8.74552 9.06469C9.26552 8.54469 10.108 8.54469 10.628 9.06469Z" fill="white"/>
<path d="M8.74547 9.0648C8.22547 9.5848 8.22547 10.4273 8.74547 10.9473C9.26547 11.4673 10.108 11.4673 10.628 10.9473C11.148 10.4273 11.148 9.5848 10.628 9.0648C10.108 8.5448 9.26547 8.5448 8.74547 9.0648Z" fill="#FFCD00"/>
<path d="M12.18 11.2759C12.3381 10.9022 12.7082 10.6401 13.1396 10.6401C13.5711 10.6401 13.9412 10.9022 14.0993 11.2759C14.189 11.4878 13.9947 11.6816 13.7646 11.6816L12.5147 11.6816C12.2846 11.6816 12.0903 11.4878 12.18 11.2759Z" fill="#83D740"/>
<path d="M13.43 11.2759C13.5881 10.9022 13.9582 10.6401 14.3896 10.6401C14.8211 10.6401 15.1912 10.9022 15.3493 11.2759C15.439 11.4878 15.2447 11.6816 15.0146 11.6816L13.7647 11.6816C13.5346 11.6816 13.3403 11.4878 13.43 11.2759Z" fill="#83D740"/>
</svg>
