<svg width="20" height="20" viewBox="0 0 20 20" fill="none" xmlns="http://www.w3.org/2000/svg">
<g clip-path="url(#clip0_2069_16613)">
<path d="M2.48075 9.44583C2.52675 10.2853 2.98275 11.0628 3.72875 11.7193C3.67625 11.5278 3.64125 11.3328 3.64125 11.1328C3.64125 10.0843 4.39425 9.13983 5.59875 8.46633C5.78025 8.26933 6.01075 8.11433 6.28775 8.04033C6.33525 8.02783 6.38325 8.02483 6.43075 8.01733C6.56125 7.34733 7.05675 6.77583 7.75775 6.58783C8.57275 6.36933 9.39925 6.74283 9.80675 7.43883C9.87175 7.43783 9.93525 7.43333 10.0007 7.43333C13.5127 7.43333 16.3603 9.08983 16.3603 11.1333C16.3603 11.3333 16.3252 11.5283 16.2727 11.7198C17.0182 11.0633 17.4748 10.2858 17.5208 9.44633C17.5232 9.39933 17.5327 9.35333 17.5327 9.30583C17.5327 8.56683 17.2153 7.87183 16.6602 7.26133C15.3972 5.87183 12.8907 4.92383 10.0007 4.92383C7.11075 4.92383 4.60425 5.87183 3.34125 7.26133C2.78625 7.87183 2.46875 8.56733 2.46875 9.30583C2.46875 9.35333 2.47825 9.39883 2.48075 9.44583Z" fill="#3D3D3D"/>
<path d="M16.3601 11.1326C16.3601 9.08912 13.5131 7.43262 10.0006 7.43262C9.9351 7.43262 9.8716 7.43712 9.8066 7.43812C9.8891 7.57862 9.9601 7.72762 10.0041 7.89312C10.0056 7.89912 10.0066 7.90512 10.0081 7.91112C10.0641 7.88862 10.1186 7.86262 10.1786 7.84662C10.9881 7.62962 11.8196 8.11312 12.0356 8.92612C12.0371 8.93162 12.0386 8.93762 12.0401 8.94362C12.1141 9.25512 11.8666 9.55312 11.5476 9.55312H5.7961C5.4411 9.55312 5.1841 9.18762 5.3286 8.86212C5.3941 8.71512 5.4896 8.58462 5.5991 8.46562C4.3946 9.13862 3.6416 10.0836 3.6416 11.1321C3.6416 11.3321 3.6766 11.5271 3.7291 11.7186C5.0751 12.9031 7.3766 13.6866 10.0011 13.6866C12.6256 13.6866 14.9271 12.9031 16.2731 11.7186C16.3256 11.5271 16.3606 11.3321 16.3606 11.1321L16.3601 11.1326ZM6.1686 11.1266C6.3261 10.7411 6.7036 10.4701 7.1441 10.4701C7.5846 10.4701 7.9621 10.7411 8.1196 11.1266C8.1986 11.3191 8.0416 11.5291 7.8341 11.5291H6.4536C6.2461 11.5291 6.0891 11.3191 6.1681 11.1266H6.1686ZM12.2106 12.4461H9.6511C9.2911 12.4461 9.0521 12.0786 9.1856 11.7436C9.4631 11.0491 10.1396 10.5581 10.9306 10.5581C11.7216 10.5581 12.3981 11.0486 12.6756 11.7436C12.8096 12.0791 12.5706 12.4461 12.2106 12.4461ZM12.9881 10.1156C12.7806 10.1156 12.6236 9.90562 12.7026 9.71312C12.8601 9.32762 13.2376 9.05662 13.6781 9.05662C14.1186 9.05662 14.4961 9.32762 14.6536 9.71312C14.7326 9.90562 14.5756 10.1156 14.3681 10.1156H12.9881Z" fill="#FFAD00"/>
<path d="M5.79512 9.55369H11.5466C11.8656 9.55369 12.1131 9.25569 12.0391 8.94419C12.0376 8.93819 12.0361 8.93219 12.0346 8.92669C11.8186 8.11369 10.9871 7.63019 10.1776 7.84719C10.1176 7.86319 10.0636 7.88919 10.0071 7.91169C10.0056 7.90569 10.0051 7.89969 10.0031 7.89369C9.95912 7.72819 9.88761 7.57919 9.80561 7.43869C9.39811 6.74269 8.57161 6.36919 7.75661 6.58769C7.05561 6.77569 6.56012 7.34719 6.42962 8.01719C6.38162 8.02519 6.33412 8.02769 6.28662 8.04019C6.00962 8.11469 5.77911 8.26969 5.59761 8.46619C5.48811 8.58519 5.39212 8.71519 5.32712 8.86269C5.18262 9.18819 5.43962 9.55369 5.79461 9.55369H5.79512Z" fill="#037F56"/>
<path d="M14.6534 9.71265C14.4959 9.32715 14.1184 9.05615 13.6779 9.05615C13.2374 9.05615 12.8599 9.32715 12.7024 9.71265C12.6234 9.90515 12.7804 10.1152 12.9879 10.1152H14.3684C14.5759 10.1152 14.7329 9.90515 14.6539 9.71265H14.6534Z" fill="#F77F00"/>
<path d="M8.11926 11.1257C7.96176 10.7402 7.58426 10.4692 7.14376 10.4692C6.70326 10.4692 6.32576 10.7402 6.16826 11.1257C6.08926 11.3182 6.24626 11.5282 6.45376 11.5282H7.83426C8.04176 11.5282 8.19826 11.3182 8.11926 11.1257Z" fill="#F77F00"/>
<path d="M19.2507 9.30524C19.2507 8.17624 18.3392 7.26074 17.2152 7.26074H16.6602C17.2152 7.87124 17.5327 8.56674 17.5327 9.30524C17.5327 9.35274 17.5232 9.39874 17.5207 9.44574C17.5282 9.42624 17.5327 9.41424 17.5327 9.41424V11.3182C18.5052 11.1642 19.2507 10.3252 19.2507 9.30524Z" fill="#C50010"/>
<path d="M2.48098 9.44574C2.47848 9.39874 2.46898 9.35274 2.46898 9.30524C2.46898 8.56624 2.78648 7.87124 3.34148 7.26074H2.78648C1.66248 7.26074 0.750977 8.17624 0.750977 9.30524C0.750977 10.3252 1.49648 11.1637 2.46898 11.3177V9.41374C2.46898 9.41374 2.47348 9.42674 2.48098 9.44574Z" fill="#C50010"/>
<path d="M12.6761 11.7441C12.3986 11.0496 11.7221 10.5586 10.9311 10.5586C10.1401 10.5586 9.46361 11.0491 9.18611 11.7441C9.05211 12.0796 9.29161 12.4466 9.65161 12.4466H12.2111C12.5711 12.4466 12.8096 12.0791 12.6761 11.7441Z" fill="#C50010"/>
<path d="M17.5198 9.44556C17.4738 10.2851 17.0178 11.0626 16.2718 11.7191C14.9258 12.9036 12.6243 13.6871 9.99977 13.6871C7.37527 13.6871 5.07377 12.9036 3.72777 11.7191C2.98227 11.0626 2.52577 10.2851 2.47977 9.44556C2.47227 9.42606 2.46777 9.41406 2.46777 9.41406V11.3531C2.46777 15.5311 5.83977 18.9186 9.99977 18.9186C14.1598 18.9186 17.5318 15.5316 17.5318 11.3531V9.41406C17.5318 9.41406 17.5273 9.42656 17.5198 9.44556Z" fill="#C50010"/>
<path d="M12.8955 4.48504C12.4255 4.57004 11.9755 4.38504 11.6855 4.04504C11.5805 4.09004 11.4705 4.12504 11.3555 4.14504C10.5205 4.29004 9.72548 3.72504 9.58048 2.88504C9.43548 2.04504 9.99548 1.25004 10.8305 1.10504C11.5055 0.990042 12.1455 1.33504 12.4455 1.91004H12.4505C13.1605 1.78504 13.8355 2.26504 13.9555 2.97504C14.0805 3.68504 13.6005 4.36504 12.8955 4.48504Z" fill="#D5D5D5"/>
<path d="M7.12987 4.45626C7.73937 4.45626 8.23337 3.96026 8.23337 3.34776C8.23337 2.73526 7.73937 2.23926 7.12987 2.23926C6.52037 2.23926 6.02637 2.73526 6.02637 3.34776C6.02637 3.96026 6.52037 4.45626 7.12987 4.45626Z" fill="#D5D5D5"/>
</g>
<defs>
<clipPath id="clip0_2069_16613">
<rect width="20" height="20" fill="white"/>
</clipPath>
</defs>
</svg>
