<svg width="20" height="20" viewBox="0 0 20 20" fill="none" xmlns="http://www.w3.org/2000/svg">
<g clip-path="url(#clip0_2069_16621)">
<path d="M14.3988 2.23011L14.3803 3.07811L14.3223 5.76861V5.79361L17.0208 5.85261V5.84661L17.8718 5.86511C18.6173 5.88111 19.2343 5.28811 19.2508 4.54011C19.2668 3.79211 18.6758 3.17211 17.9308 3.15611L17.0803 3.13761L17.0988 2.28961C17.1148 1.54161 16.5238 0.921609 15.7783 0.905609C15.0328 0.889109 14.4158 1.48261 14.3993 2.23061L14.3988 2.23011Z" fill="#D0D5DA"/>
<path d="M14.7606 3.49121L16.6291 5.45021L13.9891 7.98721L12.1211 6.02871L14.7606 3.49121Z" fill="#D0D5DA"/>
<path d="M7.20048 19.0959C10.7624 19.0959 13.65 16.1976 13.65 12.6224C13.65 9.04721 10.7624 6.14893 7.20048 6.14893C3.63852 6.14893 0.750977 9.04721 0.750977 12.6224C0.750977 16.1976 3.63852 19.0959 7.20048 19.0959Z" fill="#F77F00"/>
<path d="M13.5605 13.7451L6.12402 6.23863L12.7505 4.86313C12.9395 4.82313 13.136 4.88413 13.2695 5.02413L15.0235 6.86313C15.157 7.00263 15.209 7.20163 15.162 7.38913L13.5605 13.7451Z" fill="#F77F00"/>
</g>
<defs>
<clipPath id="clip0_2069_16621">
<rect width="20" height="20" fill="white"/>
</clipPath>
</defs>
</svg>
