<svg width="20" height="20" viewBox="0 0 20 20" fill="none" xmlns="http://www.w3.org/2000/svg">
<g clip-path="url(#clip0_2069_16611)">
<path d="M5.30394 13.2764C5.28494 13.3759 5.27344 13.4774 5.27344 13.5799C5.27344 15.0934 7.39144 16.3199 10.0044 16.3199C12.6174 16.3199 14.7354 15.0929 14.7354 13.5799C14.7354 13.4769 14.7239 13.3759 14.7049 13.2764C13.4459 14.3724 11.8049 15.0414 10.0044 15.0414C8.20394 15.0414 6.56244 14.3729 5.30394 13.2764Z" fill="#AFB7C0"/>
<path d="M10.004 4.09816C7.08903 4.09816 4.65653 5.29216 4.08203 6.88166C5.14553 8.08266 7.42653 8.93716 10.004 8.93716C12.5815 8.93716 14.863 8.08266 15.926 6.88166C15.8935 6.79266 15.853 6.70516 15.809 6.61816C15.0735 5.16216 12.755 4.09766 10.0035 4.09766L10.004 4.09816Z" fill="#6E4944"/>
<path d="M16.5653 5.39559C16.5653 5.57059 16.5303 5.74059 16.4803 5.91059C16.3853 6.25059 16.1953 6.57559 15.9253 6.88059C15.8953 6.79059 15.8553 6.70559 15.8103 6.62059C15.0753 5.16059 12.7553 4.10059 10.0053 4.10059C7.09031 4.10059 4.65531 5.29059 4.08031 6.88059C3.68031 6.42559 3.44531 5.92059 3.44531 5.39559C3.44531 3.47559 6.45031 1.85059 10.0053 1.85059C13.5603 1.85059 16.5653 3.47559 16.5653 5.39559Z" fill="#D0D5DA"/>
<path d="M17.17 5.93512V5.49512L17.16 5.52512C17.145 5.76512 17.105 6.00012 17.025 6.23012C16.98 6.36512 16.92 6.50012 16.85 6.63012C15.94 8.32012 13.22 9.54512 10.005 9.54512C6.78996 9.54512 4.06496 8.32012 3.15996 6.63012C3.08996 6.50012 3.02996 6.36512 2.97996 6.23012C2.89996 6.00012 2.85996 5.76512 2.84496 5.52512L2.83496 5.49512V7.87512C2.83496 8.69012 2.97996 9.47012 3.22996 10.2051C3.64496 11.4051 4.36496 12.4601 5.30496 13.2751C6.56496 14.3701 8.20496 15.0401 10.005 15.0401C11.805 15.0401 13.445 14.3701 14.705 13.2751C15.31 12.7451 15.83 12.1151 16.23 11.4101H16.81C17.205 11.4101 17.58 11.3251 17.92 11.1751C18.885 10.7501 19.565 9.78512 19.565 8.66012C19.565 7.26512 18.52 6.11512 17.17 5.93512ZM16.81 10.2151H16.77C16.7733 10.2118 16.775 10.2085 16.775 10.2051C17.03 9.47012 17.17 8.69012 17.17 7.87512V7.15512C17.855 7.31512 18.365 7.93012 18.365 8.66012C18.365 9.52012 17.67 10.2151 16.81 10.2151Z" fill="#D0D5DA"/>
<path d="M16.7765 10.2041C16.775 10.2081 16.7735 10.2116 16.7725 10.2156H16.795C16.789 10.2116 16.782 10.2081 16.7765 10.2041Z" fill="#E5E8EB"/>
<path d="M16.812 11.4116H16.232C15.83 12.1171 15.312 12.7461 14.7035 13.2761C14.7225 13.3761 14.734 13.4771 14.734 13.5796C14.734 15.0931 12.616 16.3196 10.003 16.3196C7.39002 16.3196 5.27202 15.0926 5.27202 13.5796C5.27202 13.4766 5.28352 13.3756 5.30252 13.2761C4.36502 12.4596 3.64352 11.4051 3.23002 10.2041C1.88152 11.1111 1.06152 12.2886 1.06152 13.5796C1.06152 16.4396 5.06452 18.7586 10.0025 18.7586C14.9405 18.7586 18.944 16.4401 18.944 13.5796C18.944 12.7116 18.571 11.8951 17.9195 11.1766C17.58 11.3266 17.206 11.4116 16.812 11.4116Z" fill="#E5E8EB"/>
<path d="M17.135 4.97023C17.085 4.69023 16.99 4.42023 16.85 4.16023C16.71 3.90023 16.525 3.65023 16.305 3.41523C16.195 3.29523 16.075 3.18523 15.95 3.07023C15.69 2.85023 15.395 2.64523 15.07 2.46023C13.775 1.70523 11.985 1.24023 10.005 1.24023C8.02496 1.24023 6.22996 1.70523 4.93496 2.46023C4.60996 2.64523 4.31996 2.85023 4.05996 3.07023C3.92996 3.18523 3.80996 3.29523 3.69996 3.41523C3.47996 3.65023 3.29996 3.90023 3.15996 4.16023C3.01996 4.42023 2.91996 4.69023 2.87496 4.97023C2.84996 5.11023 2.83496 5.25023 2.83496 5.39523C2.83496 5.44023 2.84496 5.48023 2.84496 5.52523C2.85996 5.76523 2.89996 6.00023 2.97996 6.23023C3.02996 6.36523 3.08996 6.50023 3.15996 6.63023C4.06496 8.32023 6.78496 9.54523 10.005 9.54523C13.225 9.54523 15.94 8.32023 16.85 6.63023C16.92 6.50023 16.98 6.36523 17.025 6.23023C17.105 6.00023 17.145 5.76523 17.16 5.52523C17.165 5.48023 17.17 5.44023 17.17 5.39523C17.17 5.25023 17.16 5.11023 17.135 4.97023ZM16.48 5.91023C16.385 6.25023 16.195 6.57523 15.925 6.88023C14.865 8.08023 12.58 8.93524 10.005 8.93524C7.42996 8.93524 5.14496 8.08023 4.07996 6.88023C3.67996 6.42523 3.44496 5.92023 3.44496 5.39523C3.44496 3.47523 6.44996 1.85023 10.005 1.85023C13.56 1.85023 16.565 3.47523 16.565 5.39523C16.565 5.57023 16.53 5.74023 16.48 5.91023Z" fill="#E5E8EB"/>
</g>
<defs>
<clipPath id="clip0_2069_16611">
<rect width="20" height="20" fill="white"/>
</clipPath>
</defs>
</svg>
