<svg width="20" height="20" viewBox="0 0 20 20" fill="none" xmlns="http://www.w3.org/2000/svg">
<path d="M9.9999 16.298C5.9254 16.298 2.5504 14.5835 1.8869 12.333C1.8739 12.4415 1.8584 12.5495 1.8584 12.66C1.8584 12.681 1.8634 12.701 1.8639 12.7215C1.9214 15.2975 5.5394 17.376 9.9999 17.376C14.4604 17.376 18.0784 15.2975 18.1359 12.7215C18.1359 12.701 18.1414 12.681 18.1414 12.66C18.1414 12.5495 18.1259 12.4415 18.1129 12.333C17.4494 14.5835 14.0744 16.298 9.9999 16.298Z" fill="#179614"/>
<path d="M17.9233 11.7722L10.8813 15.5762C10.3423 15.8672 9.69277 15.8672 9.15377 15.5762L2.07577 11.7527C1.94827 11.6837 1.84877 11.5922 1.76277 11.4922C1.76277 11.5037 1.75977 11.5142 1.75977 11.5257C1.75977 11.8017 1.80877 12.0702 1.88627 12.3332C2.54977 14.5837 5.92477 16.2982 9.99927 16.2982C14.0738 16.2982 17.4488 14.5837 18.1123 12.3332C18.1898 12.0702 18.2388 11.8017 18.2388 11.5257C18.2388 11.5207 18.2373 11.5152 18.2373 11.5102C18.1508 11.6107 18.0518 11.7027 17.9233 11.7722Z" fill="#6E452C"/>
<path d="M17.8661 9.76552L17.8246 9.74602C17.0146 12.2035 13.8221 13.7695 10.0001 13.7695C6.17808 13.7695 2.96908 12.196 2.16908 9.72852L2.11908 9.75302C1.42708 10.09 1.30708 10.9625 1.76358 11.4915C1.84958 11.591 1.94908 11.683 2.07658 11.752L9.15458 15.5755C9.69358 15.8665 10.3431 15.8665 10.8821 15.5755L17.9241 11.7715C18.0526 11.702 18.1526 11.61 18.2386 11.5095C18.6971 10.976 18.5696 10.095 17.8666 9.76552H17.8661Z" fill="#FFD16B"/>
<path d="M10.0002 13.7698C13.8227 13.7698 17.0152 12.2033 17.8247 9.74633C17.8462 9.68083 17.8672 9.61533 17.8852 9.54883C16.5302 11.2908 13.5127 12.5058 10.0002 12.5058C6.48773 12.5058 3.47023 11.2913 2.11523 9.54883C2.13173 9.60983 2.14973 9.66933 2.16923 9.72933C2.96973 12.1968 6.16873 13.7698 10.0002 13.7698Z" fill="#ED0000"/>
<path d="M10.0002 17.3752C5.53974 17.3752 1.92174 15.2967 1.86424 12.7207C1.80274 13.0032 1.76074 13.2922 1.76074 13.5942C1.76074 16.8392 5.44974 18.9997 10.0002 18.9997C14.5507 18.9997 18.2397 16.8397 18.2397 13.5942C18.2397 13.2922 18.1977 13.0032 18.1362 12.7207C18.0787 15.2967 14.4607 17.3752 10.0002 17.3752Z" fill="#FF9E26"/>
<path d="M10.0001 12.505C13.5126 12.505 16.5301 11.2905 17.8851 9.54802C18.3731 8.92052 18.6516 8.22652 18.6516 7.49352C18.6516 4.72602 15.5061 0.999023 10.0001 0.999023C4.49413 0.999023 1.34863 4.72602 1.34863 7.49402C1.34863 8.22702 1.62663 8.92102 2.11513 9.54852C3.47013 11.2905 6.48763 12.505 10.0001 12.505ZM13.4586 3.78602C13.5826 3.63652 13.8046 3.61602 13.9536 3.74002C14.1031 3.86402 14.1236 4.08602 13.9996 4.23502C13.9206 4.33002 13.6391 4.44602 13.4451 4.51752C13.3571 4.55002 13.2666 4.47502 13.2826 4.38252C13.3176 4.17852 13.3796 3.88102 13.4586 3.78602ZM10.9916 5.89602C11.0866 5.81702 11.3846 5.75502 11.5886 5.72002C11.6811 5.70402 11.7561 5.79452 11.7236 5.88252C11.6521 6.07652 11.5361 6.35802 11.4411 6.43702C11.2916 6.56102 11.0701 6.54052 10.9461 6.39102C10.8221 6.24152 10.8421 6.02002 10.9916 5.89602ZM9.27763 2.58302C9.40063 2.57152 9.68163 2.68852 9.86963 2.77552C9.95513 2.81502 9.96563 2.93152 9.88913 2.98602C9.72013 3.10552 9.46563 3.27252 9.34263 3.28352C9.14913 3.30152 8.97813 3.15902 8.96013 2.96552C8.94213 2.77202 9.08413 2.60102 9.27763 2.58302ZM8.03613 5.18152C8.24013 5.21652 8.53813 5.27852 8.63313 5.35752C8.78263 5.48152 8.80313 5.70352 8.67913 5.85252C8.55513 6.00202 8.33313 6.02252 8.18413 5.89852C8.08913 5.81952 7.97313 5.53852 7.90163 5.34402C7.86913 5.25602 7.94363 5.16552 8.03613 5.18152ZM5.70163 4.15202C5.78063 4.05702 6.06213 3.94102 6.25613 3.86952C6.34413 3.83702 6.43463 3.91202 6.41863 4.00452C6.38363 4.20852 6.32163 4.50652 6.24263 4.60152C6.11863 4.75102 5.89663 4.77152 5.74763 4.64752C5.59813 4.52352 5.57763 4.30102 5.70163 4.15202Z" fill="#FF9E26"/>
<path d="M11.4418 6.4376C11.5368 6.3586 11.6528 6.0776 11.7243 5.8831C11.7568 5.7951 11.6818 5.7046 11.5893 5.7206C11.3853 5.7556 11.0873 5.8176 10.9923 5.8966C10.8428 6.0206 10.8223 6.2426 10.9463 6.3916C11.0703 6.5411 11.2928 6.5616 11.4418 6.4376Z" fill="#FFD16B"/>
<path d="M8.18427 5.89844C8.33377 6.02244 8.55527 6.00194 8.67927 5.85244C8.80327 5.70294 8.78277 5.48144 8.63327 5.35744C8.53827 5.27844 8.24027 5.21644 8.03627 5.18144C7.94377 5.16594 7.86877 5.25594 7.90127 5.34394C7.97277 5.53794 8.08877 5.81944 8.18377 5.89844H8.18427Z" fill="#FFD16B"/>
<path d="M13.4456 4.51873C13.6396 4.44723 13.9211 4.33123 14.0001 4.23623C14.1241 4.08673 14.1036 3.86523 13.9541 3.74123C13.8046 3.61723 13.5831 3.63773 13.4591 3.78723C13.3801 3.88223 13.3181 4.18023 13.2831 4.38423C13.2671 4.47673 13.3576 4.55173 13.4456 4.51923V4.51873Z" fill="#FFD16B"/>
<path d="M9.34247 3.28325C9.46547 3.27175 9.71997 3.10525 9.88897 2.98575C9.96547 2.93125 9.95497 2.81425 9.86947 2.77525C9.68147 2.68875 9.40047 2.57175 9.27747 2.58275C9.08397 2.60075 8.94197 2.77175 8.95947 2.96525C8.97747 3.15875 9.14897 3.30075 9.34247 3.28325Z" fill="#FFD16B"/>
<path d="M6.24317 4.60104C6.32217 4.50604 6.38417 4.20804 6.41917 4.00404C6.43517 3.91154 6.34467 3.83654 6.25667 3.86904C6.06267 3.94054 5.78117 4.05654 5.70217 4.15154C5.57817 4.30104 5.59867 4.52254 5.74817 4.64654C5.89767 4.77054 6.11917 4.75004 6.24317 4.60054V4.60104Z" fill="#FFD16B"/>
</svg>
