<svg width="20" height="20" viewBox="0 0 20 20" fill="none" xmlns="http://www.w3.org/2000/svg">
<g clip-path="url(#clip0_2069_16617)">
<path d="M18.8411 15.2115L18.2816 14.3075L10.7171 2.0915C10.3091 1.433 9.3476 1.4445 8.9556 2.1125L2.4636 13.1755L1.6831 14.5055L1.1441 15.4235C0.835103 15.9495 1.0376 16.627 1.5816 16.9035C6.9321 19.6195 13.2521 19.483 18.4391 16.701C18.9766 16.4125 19.1621 15.73 18.8411 15.2115Z" fill="#F77F00"/>
<path d="M10.7236 2.10908C10.3156 1.45058 9.35406 1.46208 8.96206 2.13008L2.72956 12.7496L1.97656 14.0326C6.97806 16.9756 13.1661 16.8281 17.9881 13.8421L10.7236 2.10908Z" fill="#FFAD00"/>
<path d="M8.72847 5.64906C8.72847 4.95806 8.38497 4.34956 7.86197 3.97656L5.79297 7.50256C6.06047 7.62956 6.35597 7.70656 6.67147 7.70656C7.80747 7.70656 8.72847 6.78556 8.72847 5.64956V5.64906Z" fill="#EF4452"/>
<path d="M12.6528 8.39893C12.6528 9.53493 13.5738 10.4559 14.7098 10.4559C15.0803 10.4559 15.4233 10.3499 15.7238 10.1784L13.5638 6.69043C13.0143 7.05993 12.6523 7.68693 12.6523 8.39893H12.6528Z" fill="#EF4452"/>
<path d="M9.21325 8.92676C8.07725 8.92676 7.15625 9.84776 7.15625 10.9838C7.15625 12.1198 8.07725 13.0408 9.21325 13.0408C10.3492 13.0408 11.2702 12.1198 11.2702 10.9838C11.2702 9.84776 10.3492 8.92676 9.21325 8.92676Z" fill="#EF4452"/>
<path d="M14.1968 12.2766L13.3155 12.7211C13.1321 12.8137 13.0584 13.0374 13.1509 13.2208L13.5954 14.1021C13.6879 14.2855 13.9117 14.3592 14.0951 14.2667L14.9763 13.8222C15.1598 13.7297 15.2335 13.5059 15.141 13.3225L14.6965 12.4413C14.6039 12.2578 14.3802 12.1841 14.1968 12.2766Z" fill="#036D50"/>
<path d="M10.5441 6.6716L11.249 7.02715C11.3957 7.10115 11.5746 7.04221 11.6486 6.89551L12.0042 6.1906C12.0782 6.0439 12.0192 5.86499 11.8725 5.791L11.1676 5.43545C11.0209 5.36146 10.842 5.42039 10.768 5.56709L10.4125 6.272C10.3385 6.4187 10.3974 6.59761 10.5441 6.6716Z" fill="#299C50"/>
<path d="M5.07489 12.7977L5.86313 12.7531C6.02717 12.7438 6.15264 12.6033 6.14337 12.4393L6.09883 11.6511C6.08957 11.487 5.94907 11.3615 5.78503 11.3708L4.99678 11.4154C4.83274 11.4246 4.70727 11.5651 4.71654 11.7292L4.76108 12.5174C4.77035 12.6814 4.91084 12.8069 5.07489 12.7977Z" fill="#45AA1F"/>
</g>
<defs>
<clipPath id="clip0_2069_16617">
<rect width="20" height="20" fill="white"/>
</clipPath>
</defs>
</svg>
