<svg width="20" height="20" viewBox="0 0 20 20" fill="none" xmlns="http://www.w3.org/2000/svg">
<g clip-path="url(#clip0_2069_16619)">
<path d="M16.3159 15.7725H15.5869V14.253H16.3159C16.7239 14.253 17.0559 13.921 17.0559 13.513V9.697C17.0559 9.289 16.7239 8.957 16.3159 8.957H15.5869V7.4375H16.3159C17.5619 7.4375 18.5759 8.451 18.5759 9.6975V13.5135C18.5759 14.7595 17.5624 15.7735 16.3159 15.7735V15.7725Z" fill="#FFAA00"/>
<path d="M2.9253 5.13574H15.5868V16.1092C15.5868 17.5067 14.4523 18.6417 13.0543 18.6417H5.4573C4.0598 18.6417 2.9248 17.5072 2.9248 16.1092L2.9253 5.13574Z" fill="#FFAA00"/>
<path d="M9.25605 15.361C8.90655 15.361 8.62305 15.0775 8.62305 14.7275V8.54854C8.62305 8.19904 8.90655 7.91504 9.25605 7.91504C9.60555 7.91504 9.88905 8.19854 9.88905 8.54854V14.7275C9.88905 15.077 9.60555 15.361 9.25605 15.361Z" fill="#F77F00"/>
<path d="M12.2951 15.361C11.9456 15.361 11.6621 15.0775 11.6621 14.7275V8.54854C11.6621 8.19904 11.9456 7.91504 12.2951 7.91504C12.6446 7.91504 12.9281 8.19854 12.9281 8.54854V14.7275C12.9281 15.077 12.6446 15.361 12.2951 15.361Z" fill="#F77F00"/>
<path d="M6.21796 15.3617C5.86846 15.3617 5.58496 15.0782 5.58496 14.7282V11.1052C5.58496 10.7557 5.86846 10.4717 6.21796 10.4717C6.56746 10.4717 6.85096 10.7552 6.85096 11.1052V14.7282C6.85096 15.0777 6.56746 15.3617 6.21796 15.3617Z" fill="#F77F00"/>
<path d="M14.3286 1.3584H4.18359C3.07909 1.3584 2.18359 2.2539 2.18359 3.3584V6.8584C2.18359 7.8969 2.96109 8.8279 3.99859 8.8824C5.10459 8.9404 6.02009 8.0604 6.02009 6.9669C6.02009 6.2594 6.59359 5.6859 7.30109 5.6859H15.3291C15.8816 5.6859 16.3291 5.2384 16.3291 4.6859V3.3584C16.3291 2.2539 15.4331 1.3584 14.3286 1.3584Z" fill="#EBEBEB"/>
</g>
<defs>
<clipPath id="clip0_2069_16619">
<rect width="20" height="20" fill="white"/>
</clipPath>
</defs>
</svg>
